<svg version="1" xmlns="http://www.w3.org/2000/svg" width="1568" height="1568" viewBox="0 0 1176.000000 1176.000000"><path d="M757.2 143.9c-1.6 5.2-1.5 8.6.2 10.1.8.6 1.6 2.6 1.8 4.3.2 2.6 1.3 3.9 5.3 6.5 2.8 1.8 5.9 4.1 7 5 1.1.9 3.8 3 6 4.7 2.2 1.6 4.2 3.3 4.3 3.7.2.4 1 .8 1.7.8s1.6.6 1.8 1.2c.4 1 .8.9 1.6-.2.9-1.3 1.1-1.2 1.1.6 0 2.7 7 7.9 8.2 6.1.5-.8.8-.5.8.8 0 1.1 1 2.7 2.3 3.4 1.2.8 2.2 1.3 2.2 1.1 0-.3 1.4.9 3.2 2.5 3.8 3.5 4.2 3.8 11.3 9 6.2 4.5 6.4 4.6 10.5 8 3.7 3.1 4.2 3.1 4.8.2.3-1.7.5-1.5.6.8.1 3.2 3.5 7 5.1 6 .6-.4 1 0 1 .8 0 .7 2.5 3.1 5.5 5.2 3.1 2.1 7 5 8.8 6.6 1.7 1.6 4.3 3.4 5.7 4.1 1.4.7 3.6 2.3 5 3.5 2.3 2.1 2.5 2.2 3.2.5.6-1.5.7-1.5.7.3.1 2.1 3.9 6.2 5.4 5.7.4-.1.7.2.7.6 0 .5 2.4 2.6 5.4 4.6 3 2.1 6.7 4.9 8.3 6.2 1.5 1.4 4.2 3.1 6 3.9 3.5 1.5 3.9 2.5 4.6 12.5.4 5.7 0 10.2-1.7 20-.2 1.4-1.6 9.2-3.1 17.5-1.4 8.2-3.9 22.4-5.5 31.5-1.6 9.1-6.3 36.1-10.5 60s-8.9 50.7-10.5 59.5c-1.6 8.8-5 27.9-7.5 42.5-2.5 14.6-5.9 33.9-7.5 43-1.6 9.1-4.7 27.1-7 40-2.2 12.9-5.2 29.6-6.5 37-7 39.1-27 152.1-32.5 184-9 51.4-22.1 124.8-22.6 126.3-.5 1.4-.1 1.8 1.3 1.5 1.4-.2 2.1-1.9 3-7.8.7-4.1 2.6-14.3 4.2-22.5 5.8-28.5 10-50 10.6-53.5.7-4.3 6.5-33.7 11.1-56 1.8-9.1 3.6-18.4 3.9-20.8.3-2.4 1.9-10.3 3.5-17.7 1.6-7.3 3.2-15.3 3.5-17.7.3-2.4 2.1-11.7 3.9-20.8 1.9-9.1 5.1-25.1 7.1-35.5 2-10.5 5.2-26.7 7-36 1.8-9.4 4.9-25.3 6.9-35.5s5.4-27.5 7.6-38.5c2.2-11 7.1-36.4 11-56.5 3.9-20.1 8.4-43 10-51 1.6-8 9.7-49.3 18-91.9 16.5-84.8 17.6-92.6 13.9-102.5-1.4-3.7-1.6-5.3-.7-6.3.6-.7.9-1.5.7-1.6-.2-.2-2-1.3-3.9-2.5s-3-2.2-2.5-2.2c.6 0-.5-.9-2.3-2-1.8-1.1-3.8-1.7-4.4-1.4-.7.5-.9.2-.5-.9.7-1.8-3.7-5.2-5.5-4.1-.8.5-.9.2-.5-1 .5-1.3.1-1.9-1.3-2.3-1.1-.3-2-.9-2-1.4 0-.5-.5-.9-1.1-.9-.6 0-1.7-.7-2.6-1.5-.8-.8-1.9-1.3-2.4-1-.5.4-.6-.1-.3-.9.4-1.1 0-1.6-1-1.6-.9 0-1.6-.5-1.6-1 0-.6-.9-1-2-1-1.3 0-1.8-.5-1.4-1.5.4-.8.1-1.5-.5-1.5-2 0-2.6-.3-3.8-1.9-.7-.9-1.3-1.3-1.3-.9 0 .3-1.9-1.1-4.1-3.3-2.3-2.2-4.7-3.8-5.4-3.5-.7.2-1.2-.3-1.1-1.2.1-1.1-.6-1.6-1.7-1.5-1.2 0-1.7-.4-1.3-1.3.3-.8-.2-1.8-1-2.1-.9-.3-2.8-1.7-4.2-3-1.4-1.3-3.2-2.1-3.9-1.9-.9.4-1.3 0-1.1-1 .2-1-1-2.3-2.9-3.4-1.8-.9-3-2-2.6-2.3.3-.4-.3-1-1.3-1.4-1-.4-2.4-1.4-3.1-2.2-.7-.9-1.3-1.2-1.3-.8 0 .5-1.3-.7-3-2.5-1.6-1.8-3-2.8-3-2.3s-.7 0-1.5-1.1c-1.3-1.6-1.6-1.7-2.5-.4-.8 1.2-1 1-.8-1 .2-1.8-.2-2.5-1.4-2.4-1 .1-1.6-.2-1.3-.6.3-.5-.9-1.9-2.7-3.2-1.8-1.2-4-3-4.9-3.8-7.2-6.5-7-6.4-8-4.9-.7 1.1-.9.9-.9-.9 0-1.3-.6-2.2-1.6-2.2-.8 0-1.2-.5-.9-1 .6-.9-.8-1.4-2.7-1.1-.5 0-.8-.6-.8-1.4 0-.8-.7-1.5-1.5-1.5s-1.5-.6-1.5-1.3c0-1.3-4-4.3-5.2-3.9-.5.1-.8-.4-.8-1.1 0-.6-1.5-2.2-3.3-3.5-1.9-1.2-5.1-3.8-7.3-5.8-2.1-2-4.9-4.2-6.1-5.1-1.3-.8-2.3-2.3-2.3-3.2 0-2-5.6-7.6-8.6-8.5-1.7-.5-2.3 0-3.2 3.3zm18.5 17.3c-.3.8-.6.5-.6-.6-.1-1.1.2-1.7.5-1.3.3.3.4 1.2.1 1.9zm6 13.5c-.3 1-.5.2-.5-1.7s.2-2.7.5-1.8c.2 1 .2 2.6 0 3.5zm28 19c-.3 1-.5.4-.5-1.2 0-1.7.2-2.4.5-1.8.2.7.2 2.1 0 3zm92 75c-.3 1-.5.2-.5-1.7s.2-2.7.5-1.8c.2 1 .2 2.6 0 3.5z"/><path d="M705.1 144.1c-1.5 4.4-1.4 9.6.3 10.2.8.3 1.7 2.7 2.1 5.6.5 4.1 1.3 5.5 4 7.5 1.9 1.5 3.8 2.6 4.4 2.6.6 0 1.1.4 1.1.8s2.8 2.8 6.3 5.2c3.4 2.4 6.6 5 7 5.7.5.7 1.2 1.1 1.8.8.5-.4.9-.2.9.3 0 .6 2 2.3 4.5 3.9 2.5 1.5 4.5 3.1 4.5 3.5 0 .5.6.8 1.4.8.8 0 1.7.8 2.1 1.7.7 1.7.8 1.6 1.5-.2.8-2 .9-2 .9.1.1 1.2 1.3 3 2.7 4 1.4 1 3.2 2.5 3.9 3.1.8.7 1.8 1.3 2.4 1.3.6 0 1.1.4 1.1 1 0 2.3 1.9.8 2.3-1.8.3-2.3.4-2.2.6.9.1 2.6.8 4.1 3 5.7l3 2.2.4-3.3.4-3.2.1 3.5c.2 3.4 2.9 7 5.2 7 .6 0 1 .3 1 .7 0 .5 2.3 2.4 5 4.3s5 3.8 5 4.2c0 .5.4.8 1 .8.5 0 2.1.9 3.4 2.1 1.3 1.2 2.7 2.1 3 2 .3-.1 1.4.7 2.4 1.6 3.4 3.3 7.2 6.3 7.9 6.3.4 0 2 1.2 3.5 2.7 2.4 2.3 3 2.5 3.8 1.3.8-1.2 1-1.1 1 .6 0 1.4 1.5 3.1 4.3 4.9 2.3 1.6 5.3 3.9 6.6 5.2 1.3 1.2 3 2.3 3.7 2.3.8 0 1.4.4 1.4.8 0 .5 2.5 2.6 5.6 4.7 4.5 3.1 5.7 3.6 6.5 2.4.7-1.1.9-.9.9.9 0 1.2.6 2.5 1.4 2.8 3.2 1.2 1.8 22.3-5.4 84.9-1.6 13.7-3.2 28.1-3.5 32-.3 3.8-1.7 16-3 27s-2.7 22.9-3 26.5c-.3 3.6-1.9 18.2-3.5 32.5-6.6 58.3-8.2 72.8-10 90-2.1 19.9-5.6 51.3-9.5 85-3 26.1-7.9 70-10.5 94.5-1.1 9.6-5.6 49.7-10 89-11.3 100.4-12.3 110-11.7 110.6 1.2 1.2 2.7-.8 2.7-3.6 0-1.6 1.8-15.8 4-31.7 2.2-15.8 5.8-41.9 8.1-57.8 2.2-16 5.3-38.5 6.9-50 5-35.8 9.7-69.9 13.5-97 2-14.3 5.1-37 7-50.5 5-35.9 11.2-80.5 14.5-104.5 4.7-33.8 10.8-78.4 14-101C855.8 333 858.9 310.2 860.4 299c1.6-12.6 1.1-29.1-1.1-33.9-1.2-2.6-1.3-3.9-.5-5.2 1-1.5.6-2-2-3.3-3.8-2-3.6-2-4.1.1-.2 1-.3.5-.2-1.1.1-2.1-.3-3-1.7-3.4-1-.2-1.8-.8-1.8-1.3s-.6-.9-1.4-.9c-.8 0-1.7-.7-2-1.6-.3-.8-1-1.3-1.5-1-.5.3-1.2-.1-1.5-1-.3-.9-1.3-1.4-2.1-1.1-.9.4-1.2.1-.9-.7.3-.7-.2-1.6-1-1.9-1.1-.4-1.6 0-1.7 1.1-.1 1.1-.3.9-.7-.6-.4-1.3-1.1-2.3-1.5-2.2-.5.1-1.5-.7-2.3-1.7-1.2-1.6-1.5-1.6-2.4-.3-.8 1.2-1 1.2-.8-.5.2-1.1 0-2-.4-2s-1.3-.9-2.1-1.9c-.8-1-1.9-1.6-2.5-1.2-.8.5-1 .2-.6-.8.4-1.1 0-1.6-1.4-1.6-1.1 0-2.3-.7-2.6-1.6-.3-.8-1-1.2-1.6-.9-.5.3-1-.1-1-.9 0-.9-.7-1.6-1.5-1.6s-1.5-.5-1.5-1c0-.6-.7-1-1.5-1-.9 0-1.8-.7-2.2-1.6-.3-.8-1.2-1.3-2-1-.8.4-1.1.1-.8-.5.4-.6-.2-1.3-1.4-1.6-1.2-.3-2.1-1.2-2.1-1.9 0-.8-.7-1.4-1.5-1.4s-1.5-.7-1.5-1.6c0-1.1-.6-1.5-2-1.1-1.3.3-2 0-2-.9 0-.8-.7-1.4-1.5-1.4s-1.5-.6-1.5-1.4c0-.7-.8-1.6-1.7-2-1-.3-2.3-.9-3-1.2-.6-.3-1.3.3-1.6 1.3-.2 1-.3.5-.1-1 .3-2.2-.1-3-1.6-3.4-1.1-.3-2-1-2-1.5 0-.6-.7-.8-1.5-.4-.9.3-1.5 0-1.5-.9 0-.8-.6-1.5-1.4-1.5-.8 0-1.7-.7-2-1.6-.4-.9-.9-1.4-1.2-1.1-.4.3-1.9-.9-3.5-2.6-2.5-2.7-3.1-3-3.9-1.7-.8 1.2-1 1.1-1-.8 0-1.2-.6-2.2-1.4-2.2-.8 0-1.6-.7-2-1.5-.7-2-2.3-1.9-3 .2-.3 1.1-.4.9-.3-.6.2-1.7-.7-2.8-3-4.1-1.8-.9-2.9-2-2.6-2.4.4-.4-.3-.9-1.5-1.3-1.2-.3-2.2-.9-2.2-1.4 0-.5-.4-.9-.9-.9-.6 0-2.2-1.1-3.7-2.5s-3.4-2.3-4.2-2c-.9.3-1.2 0-.9-.9.3-.8-.5-2.2-1.9-3.3-1.4-1-3.8-2.8-5.2-4.1-1.5-1.2-3.2-2-3.9-1.8-.6.3-1.3-.5-1.6-1.6-.3-1.1-1-1.7-1.6-1.3-.6.3-1.1-.1-1.1-.9 0-.9-.6-1.6-1.2-1.6-1.6 0-8.8-6.3-8.8-7.7 0-1.5-7.7-8.3-9.4-8.3-.8 0-1.9 1.4-2.5 3.1zm28.6 28.1c-.3.8-.6.5-.6-.6-.1-1.1.2-1.7.5-1.3.3.3.4 1.2.1 1.9zm-7 1c-.3.8-.6.5-.6-.6-.1-1.1.2-1.7.5-1.3.3.3.4 1.2.1 1.9zm13 8.5c-.3 1-.5.2-.5-1.7s.2-2.7.5-1.8c.2 1 .2 2.6 0 3.5zm6 .5c-.3.7-.5.2-.5-1.2s.2-1.9.5-1.3c.2.7.2 1.9 0 2.5zm9 12c-.3.7-.5.2-.5-1.2s.2-1.9.5-1.3c.2.7.2 1.9 0 2.5zm20 12.5c-.3 1-.5.2-.5-1.7s.2-2.7.5-1.8c.2 1 .2 2.6 0 3.5zm6 7.5c-.3.8-.6.5-.6-.6-.1-1.1.2-1.7.5-1.3.3.3.4 1.2.1 1.9zm16 12c-.3.7-.5.2-.5-1.2s.2-1.9.5-1.3c.2.7.2 1.9 0 2.5zm14 2c-.3.7-.5.2-.5-1.2s.2-1.9.5-1.3c.2.7.2 1.9 0 2.5zm-7 1c-.3.7-.5.2-.5-1.2s.2-1.9.5-1.3c.2.7.2 1.9 0 2.5zm13 8.5c-.3 1-.5.2-.5-1.7s.2-2.7.5-1.8c.2 1 .2 2.6 0 3.5zm6 7.5c-.3.8-.6.5-.6-.6-.1-1.1.2-1.7.5-1.3.3.3.4 1.2.1 1.9zm23 11c-.3.7-.5.2-.5-1.2s.2-1.9.5-1.3c.2.7.2 1.9 0 2.5zm-1 14c-.3.7-.5.2-.5-1.2s.2-1.9.5-1.3c.2.7.2 1.9 0 2.5zm7 .5c-.3 1-.5.4-.5-1.2 0-1.7.2-2.4.5-1.8.2.7.2 2.1 0 3z"/><path d="M733 145.4c-2.2 5.8-2.2 9.1-.1 11 1.2 1.1 2.1 2.7 2.1 3.6 0 1.1 3.1 3.9 7.8 7.1 4.2 2.9 8.1 5.9 8.5 6.6.4.7 1.2 1.3 1.8 1.3.5 0 2.2 1.1 3.6 2.4 1.5 1.4 3 2.3 3.5 2 .4-.3.8-.1.8.4s1.7 2.1 3.9 3.5c2.1 1.4 5.1 3.7 6.7 5.2 2.6 2.4 2.9 2.5 3.5.8.6-1.4.8-1.2.8.9.1 1.6.6 2.8 1.1 2.8.6 0 2.3 1.1 3.8 2.5s3.2 2.5 3.8 2.5c.7 0 1.5.8 2 1.7.6 1.4.9 1.1 1.4-1.7l.7-3.5.2 3.6c.1 2.7.8 4.1 2.7 5.5 1.4 1 3.2 2.5 3.9 3.1.8.7 1.8 1.3 2.4 1.3.6 0 1.1.4 1.1.8 0 .5 2.9 2.9 6.5 5.3s6.5 4.7 6.5 5.1c0 .5.4.8 1 .8.9 0 4.2 2.5 7.6 5.7.7.7 1.6 1.3 2.1 1.3.4 0 1.9 1 3.3 2.3 6.4 5.7 10.8 8.7 11.3 7.5.4-.9.6-.8.6.2.1 1.4 3.4 5 4.7 5 .2 0 1.7 1.1 3.1 2.4 1.4 1.3 3.7 3 5.2 3.8 1.4.7 3.5 2.3 4.7 3.5 1.2 1.3 2.6 2.3 3.3 2.3.6 0 1.1.4 1.1.8 0 .7 4.3 3.2 5.5 3.2.2 0 .6-.8.8-1.8.3-1.2.5-1 .6.7 0 1.4.8 3.2 1.7 4.2 1.4 1.6 1.5 3.3.6 14.1-.5 6.8-2.4 21.5-4.1 32.8-1.8 11.3-4.2 28.1-5.5 37.5-3.4 24.2-30.1 210.6-33.1 231-1.3 9.3-2.7 19-3 21.5-.6 5.1-5.1 36.6-9.6 67-1.6 11.3-3.2 22.7-3.5 25.5-.3 2.7-1.6 12-2.9 20.5-1.3 8.5-2.6 18-3 21-.3 3-1.9 14.5-3.5 25.5s-4.3 29.7-6 41.5c-1.6 11.8-4.2 29.4-5.6 39-1.4 9.6-3.4 24-4.4 32-1.1 8-2.9 20.3-4 27.5-1.8 12-5 35-5 36.7 0 .5.6.8 1.3.8.9 0 2.1-5.1 4-16.8 1.5-9.2 4.5-27.1 6.6-39.7 2.2-12.7 6-35.2 8.6-50 10.4-61.1 16.6-97.1 20-117 2-11.6 4.9-28.7 6.5-38 1.6-9.4 4.5-26.2 6.4-37.5 1.9-11.3 5.1-30 7.1-41.5 1.9-11.6 4.2-24.6 5.1-29 .8-4.4 2.1-12.1 2.9-17 .7-5 7-42.1 14-82.5 6.9-40.4 14.1-82.5 16-93.5 1.9-11 5-29.5 7-41 2-11.6 4.5-26.2 5.5-32.5 2.2-12.8 2.6-28.6.9-29.2-.6-.2-1.1-2.4-1.2-4.8-.2-4.7-2.9-8.4-5.5-7.5-.7.3-1.1.1-.8-.4.3-.5-.1-1.4-.9-2.1-.8-.7-1.5-.9-1.5-.4s-.5.1-1.1-.9c-.5-.9-1.4-1.7-1.9-1.7s-1.1.8-1.3 1.7c-.2 1-.3.6-.1-1 .2-1.8-.1-2.7-1-2.7-.7 0-1.9-.7-2.6-1.5-.7-.8-1.7-1.2-2.3-.8-.6.3-.7.1-.3-.6.4-.6 0-1.4-1.1-1.8-1-.4-2.5-1.3-3.3-2.1-1.3-1.3-1.5-1.2-2.1.9-.6 2.3-.6 2.3-1-.6-.2-1.7-.9-2.9-1.6-2.8-.7.2-1.2-.3-1-1 .1-.6-.6-1.1-1.5-1.1-1 .1-1.8-.4-1.8-1.2 0-.8-.7-1.4-1.6-1.4-.8 0-1.2-.5-.9-1.1.4-.6-.2-1.3-1.4-1.6-1.2-.3-2.1-.9-2.1-1.4 0-2-2.9-.8-3.3 1.3-.3 1.7-.5 1.4-.6-1-.1-2.1-.6-3.2-1.6-3.2-.8 0-1.4-.6-1.2-1.3.1-.6-.6-1.1-1.5-1.1-1 .1-1.8-.4-1.8-1.2 0-.8-.7-1.4-1.5-1.4s-1.5-.7-1.5-1.5-.6-1.5-1.4-1.5c-.8 0-1.6-.7-2-1.5-.3-.8-1.3-1.5-2.1-1.5-.9 0-1.4-.4-1.1-.8.3-.4-1.1-1.6-3-2.7-1.9-1-3.4-2.2-3.4-2.7 0-.4-.6-.8-1.4-.8-.7 0-1.9-.7-2.6-1.5-.7-.8-1.7-1.2-2.3-.8-.6.3-.7.1-.3-.6.4-.6 0-1.4-.9-1.8-1-.3-2.9-1.7-4.3-3s-3.1-2.2-3.8-1.9c-.8.3-1.1-.1-.7-1 .3-.8-.1-1.4-1-1.4-1 0-1.7 1.2-2 3.2-.3 2.9-.4 2.7-.5-1-.2-3.1-.6-4.2-1.8-4.2-.8 0-1.2-.5-.9-1 .3-.6-.1-1.3-1-1.7-1-.3-2.9-1.7-4.3-2.9-1.4-1.3-3.1-2.4-3.8-2.4-.8 0-1.3-.5-1.2-1 .2-.6-1-1.8-2.6-2.8-1.6-.9-4-2.7-5.4-4-1.4-1.2-3.2-2-4-1.7-.9.3-1.2 0-.9-.9.3-.8-.1-1.7-.9-2-.9-.3-1.4.1-1.5 1.2-.1 1.1-.4.8-.8-.8-.4-1.4-1.3-2.4-2-2.2-.7.1-1-.1-.7-.6.6-1-3.8-5.2-5.4-5.2-.6 0-1-.5-1-1 0-1.4-1.8-1.2-2.3.2-.2.7-.3.5-.2-.4.2-1.1-1-2.7-2.8-4-1.8-1.2-3.7-2.9-4.3-3.7-.6-.8-1.6-1.1-2.2-.7-.7.4-1.2.1-1.2-.6s-1.3-2.2-3-3.3c-1.6-1.1-3.1-3-3.5-4.2-.5-2.2-5.4-6.4-8.8-7.6-1.3-.5-2 0-2.7 1.7zm21.7 24.8c-.3.8-.6.5-.6-.6-.1-1.1.2-1.7.5-1.3.3.3.4 1.2.1 1.9zm13 8.5c-.3 1-.5.2-.5-1.7s.2-2.7.5-1.8c.2 1 .2 2.6 0 3.5zm15 12.5c-.3.7-.5.2-.5-1.2s.2-1.9.5-1.3c.2.7.2 1.9 0 2.5zm13 12.5c-.3 1-.5.4-.5-1.2 0-1.7.2-2.4.5-1.8.2.7.2 2.1 0 3zm13 7.5c-.3.8-.6.5-.6-.6-.1-1.1.2-1.7.5-1.3.3.3.4 1.2.1 1.9zm16 11.5c-.3 1-.5.4-.5-1.2 0-1.7.2-2.4.5-1.8.2.7.2 2.1 0 3zm7 3.5c-.3.7-.5.2-.5-1.2s.2-1.9.5-1.3c.2.7.2 1.9 0 2.5zm41 42c-.3.7-.5.2-.5-1.2s.2-1.9.5-1.3c.2.7.2 1.9 0 2.5zm7 0c-.3.7-.5.2-.5-1.2s.2-1.9.5-1.3c.2.7.2 1.9 0 2.5z"/><path d="M654.1 147.7c-1.5 5.3-1.4 8.1.4 9.1.9.5 1.8 2.9 2.1 5.9.6 4.6 1 5.3 4.8 7.7 2.2 1.4 5.7 3.9 7.6 5.6 1.9 1.6 4.1 3 4.8 3 .6 0 1.2.4 1.2.9s1.5 1.9 3.3 3c1.9 1.1 4.5 3.1 5.9 4.3 4.1 3.7 6.8 5.8 7.4 5.8.2 0 1.7 1.1 3.1 2.4 1.5 1.4 3 2.3 3.5 2 .4-.3.8-.1.8.3 0 .5 4.2 4 9.3 7.8 5 3.9 9.4 7.3 9.5 7.7.2.5 1 .8 1.8.8s1.4.3 1.4.7c0 .5 2 2.1 4.5 3.8 2.4 1.6 4.5 3.3 4.5 3.7 0 .5.7.8 1.5.8s1.5.4 1.5.8c0 .7 6 5.5 10.9 8.7.8.5 2.4 1.8 3.5 2.8 1.2 1 3.3 2.6 4.9 3.5 1.5.9 2.7 2 2.7 2.4 0 .4.7.8 1.5.8s1.5.4 1.5.8c0 .5 2.5 2.6 5.7 4.8 3.1 2.1 6.1 4.4 6.7 5 .6.6 3.9 3 7.3 5.3 3.5 2.3 6.6 4.7 6.9 5.3.9 1.4.6 15.1-.6 29.3-.5 6.6-1.4 24.1-2 39-.6 14.8-2.2 49.7-3.5 77.5-1.4 27.8-2.9 62.2-3.5 76.5-.6 14.3-2.1 48.7-3.5 76.5-1.3 27.8-2.9 62.2-3.5 76.5-.6 14.3-1.7 39.5-2.5 56s-2.6 55.4-4 86.5c-3.6 82.3-5.5 124.6-6.4 140.5-.4 9-.3 14.2.3 14.7 1.8 1.2 2.6-.2 2.6-4.8 0-2.4 1.8-28.6 4-58.2 2.2-29.5 6-81.6 8.5-115.7 2.5-34.1 6.1-83.6 8-110 2-26.4 4.9-66 6.5-88 1.6-22 3.2-43.6 3.5-48 .3-4.4 1.9-25.8 3.5-47.5s3.4-46.7 4-55.5c.6-8.8 1.9-27 3-40.5 5-61.7 7-101 5.1-101-.6 0-1.1-.9-1.1-1.9 0-1.1-.5-2.3-1-2.6-.7-.4-.6-1.3.1-2.6.8-1.7.7-2.3-.8-3.5-1.7-1.3-3-1.7-4.5-1.5-.4 0-.5-.6-.2-1.4.4-.9 0-1.5-.9-1.5-.8 0-2-.7-2.7-1.5-.7-.8-1.7-1.2-2.3-.8-.6.4-.7.1-.3-.6.5-.8 0-1.4-1.3-1.8-1.2-.3-2.1-.9-2.1-1.4 0-.5-.7-.9-1.5-.9s-1.5-.4-1.5-.9c0-1.1-6.8-5.4-8.5-5.4-.7 0-1.1-.6-.8-1.3.2-.7-.5-1.5-1.6-1.9-1.2-.3-2.1-1.1-2.1-1.7 0-.5-.7-.7-1.6-.4-.9.3-1.2.2-.9-.5.4-.6-.2-1.3-1.4-1.6-1.2-.3-2.1-.9-2.1-1.4 0-.5-.7-.9-1.5-.9s-1.5-.7-1.5-1.5c0-.9-.6-1.2-1.7-.8-1 .4-1.4.2-.9-.5.3-.6-.2-1.3-1.2-1.6-1-.3-3.8-2.5-6.2-4.7-4-3.7-4.5-3.9-5.2-2.3-.6 1.4-.7 1.1-.3-.9.4-2.2.2-2.7-1.5-2.7-1.1 0-2-.5-2-1 0-.6-.7-1-1.6-1-.8 0-1.3-.4-1-.8.3-.4-1.1-1.6-3-2.7-1.9-1-3.4-2.1-3.4-2.5 0-.4-1.9-2-4.1-3.5-3.4-2.2-4.3-2.4-5.1-1.3-.6.9-.7.6-.3-1 .5-1.6.2-2.2-.9-2.2-.9 0-1.6-.5-1.6-1 0-1.4-2.7-1.2-3.4.2-.4.7-.4.3-.2-1 .3-1.5-.1-2.5-1.2-2.9-.8-.4-2.3-1.4-3.2-2.2-2.8-2.6-5.4-4.6-6.3-4.8-.5-.1-1.9-1.3-3.2-2.7-1.3-1.4-2.8-2.6-3.3-2.6s-1.5-.7-2.2-1.5c-.7-.8-1.7-1.2-2.3-.8-.5.3-.7.1-.4-.4.8-1.3-4-4.6-5.3-3.8-.5.3-.7 0-.4-.8.3-.9-1.1-2.5-4-4.3-2.5-1.6-4.6-3.2-4.6-3.5 0-.3-2.2-2.1-5-4-2.7-1.9-5-3.7-5-4.2 0-.4-.4-.7-1-.7-1.4 0-5-3.3-5-4.6 0-1.6-7.7-8.4-9.5-8.4-.8 0-1.9 1.6-2.4 3.7zm15.6 15.5c-.3.7-.5.2-.5-1.2s.2-1.9.5-1.3c.2.7.2 1.9 0 2.5zm6 6c-.3.7-.5.2-.5-1.2s.2-1.9.5-1.3c.2.7.2 1.9 0 2.5zm36 31.5c-.3 1-.5.4-.5-1.2 0-1.7.2-2.4.5-1.8.2.7.2 2.1 0 3zm6 9.5c-.3.8-.6.5-.6-.6-.1-1.1.2-1.7.5-1.3.3.3.4 1.2.1 1.9zm22 8.5c-.3 1-.5.4-.5-1.2 0-1.7.2-2.4.5-1.8.2.7.2 2.1 0 3zm13 8.5c-.3.8-.6.5-.6-.6-.1-1.1.2-1.7.5-1.3.3.3.4 1.2.1 1.9zm-7 4c-.3.8-.6.5-.6-.6-.1-1.1.2-1.7.5-1.3.3.3.4 1.2.1 1.9zm16 7c-.3.8-.6.5-.6-.6-.1-1.1.2-1.7.5-1.3.3.3.4 1.2.1 1.9zm6 5.5c-.3 1-.5.4-.5-1.2 0-1.7.2-2.4.5-1.8.2.7.2 2.1 0 3zm22 12.5c-.3.8-.6.5-.6-.6-.1-1.1.2-1.7.5-1.3.3.3.4 1.2.1 1.9zm6 12c-.3.7-.5.2-.5-1.2s.2-1.9.5-1.3c.2.7.2 1.9 0 2.5z"/><path d="M677.2 147.9c-1.5 4.8-1.5 7.8-.1 8.6.5.4 1.4 1.7 1.9 3 1.1 3 15.6 13 16.3 11.2.3-.6.6-.3.7.8.1 2.5 8.6 9 9.3 7.2.4-.8.6-.7.6.3.1 1.4 3.4 5 4.7 5 .2 0 1.7 1.1 3.2 2.5 1.9 1.8 2.8 2.1 3.4 1.2.5-.8.8-.4.8 1 0 1.3.6 2.3 1.4 2.3.8 0 1.7.7 2 1.6.3.8 1 1.2 1.6.9.5-.3 1-.2 1 .3s2.1 2.4 4.8 4.2c2.6 1.9 4.9 3.8 5 4.2.2.4 1 .8 1.8.8s1.4.4 1.4.9c0 .8 7.4 6.2 8.5 6.1.3 0 1.7 1.2 3.1 2.7 1.5 1.6 3 2.7 3.5 2.6.5-.2.9.1.9.5 0 .5 2.2 2.4 5 4.3 2.7 1.9 5 3.7 5 4.1 0 .5.7.8 1.5.8s1.5.4 1.5.8 2.8 2.8 6.3 5.2c6.8 4.8 6.6 4.7 11.7 8.9 2.4 2.1 3.7 2.6 4.2 1.8s.8-.7.8.4c0 .9 1.2 2.5 2.7 3.5 3 1.9 3.1 2 8.3 6.4 1.9 1.6 5.4 3.9 7.7 5.1 2.9 1.5 4.4 3 4.7 4.8.9 4.5 1 10.6.2 11.9-.4.7-.5 1.6-.1 2.1.5.9-2.7 44.6-6 81.1-.8 9.1-2.2 25.9-3 37.5-.9 11.5-2.4 31.1-3.5 43.5-1.1 12.4-3.1 36.9-4.5 54.5-1.3 17.6-3.4 42.8-4.4 56-1.1 13.2-3.6 44-5.6 68.5-3.3 41.7-5.2 64.3-14 174-3.9 48.2-10.1 126-11.1 138.7-.5 6.8-.4 8.3.8 8.3 1 0 1.8-4.1 3.2-17.8 1-9.7 3.3-31 5.2-47.2 1.8-16.2 3.6-32.4 3.9-36 .3-3.6 1.9-17.8 3.6-31.5 1.6-13.8 3.2-27.9 3.5-31.5.2-3.6 2-19.6 3.9-35.5 1.9-16 3.7-31.9 4-35.5.3-3.6 2.1-20.2 4-37s5-44.7 7-62c1.9-17.3 5.1-45.7 7-63 12.4-110.1 27.4-248 27.4-250.5-.1-1.7-.1-6.2 0-10 .1-6.4-.4-8.5-3.1-13.8-.6-1.2-.5-2.3.2-3.2 1.4-1.6.5-3.5-1.6-3.5-.8 0-1.4-.5-1.4-1 0-.6-.4-1-.9-1-.6 0-2.2-1.1-3.7-2.5s-3.4-2.3-4.2-2c-.9.3-1.2 0-.9-.9.3-.8-.1-1.7-.9-2-.8-.3-1.4 0-1.5.7 0 .7-.4.2-1-1.1-.5-1.3-1.3-2-1.9-1.7-.5.3-1 0-1-.8 0-1.8-4.7-5-6-4.2-.6.3-1 0-1-.8 0-.7-1.2-2-2.7-2.8-1.6-.8-3.5-2-4.3-2.8-1.3-1.3-1.6-1.1-2.2 1.5-.6 2.5-.6 2.3-.5-1.1.2-3.4-.1-4-1.7-3.7-1.1.2-1.5-.1-1.1-.7.5-1-.7-1.5-2.7-1.2-.5 0-.8-.5-.8-1.3s-1.3-2-3-2.8c-1.6-.7-3-1.6-3-2 0-1.3-2.8-.9-3.4.4-.3.7-.3.1 0-1.5.5-2 .2-2.7-.9-2.7-.8 0-1.8.6-2.1 1.2-.4.7-.4.3-.2-1 .3-1.5-.1-2.5-1.1-2.9-.8-.3-2.7-1.7-4.1-2.9-1.4-1.3-3.1-2.4-3.9-2.4-.8 0-1.1-.5-.8-1 .6-.9-.8-1.4-2.7-1.1-.5 0-.8-.6-.8-1.4 0-.8-.4-1.5-.9-1.5-.6 0-2.2-1.1-3.7-2.5-3.4-3.2-4.2-3.1-4.7.2-.3 2.2-.4 2-.3-.6.1-2.4-.4-3.6-1.7-4-1-.4-1.8-1.1-1.7-1.6.1-.5-.3-1.1-.9-1.3-.6-.2-1.1.2-1.2 1 0 .7-.4.3-1-1-.5-1.3-1.3-2-1.9-1.7-.5.3-1 0-1-.8 0-1.4-4.4-5-5.6-4.5-.3.2-1-.5-1.5-1.5-.6-.9-1.4-1.5-2-1.2-.5.4-.9-.1-.9-.9 0-.9-.7-1.6-1.5-1.6s-1.5-.5-1.5-1c0-.6-.6-1-1.4-1-.8 0-1.6-.7-2-1.5-.7-2-2.4-1.9-2.9.2-.3 1.1-.5.7-.6-1-.1-1.6-.7-2.7-1.5-2.7s-1.7-.7-2-1.6c-.4-.9-.9-1.4-1.2-1.1-.3.3-2.3-1.2-4.4-3.4-2.1-2.1-4-3.9-4.3-3.9-.5 0-4.3-3-7.8-6.3-1-.9-2.3-1.7-2.9-1.7-.5 0-1-.5-1-1 0-.6-.4-1-1-1-.9 0-4.2-2.5-7.6-5.8-.8-.7-1.4-2-1.4-2.8 0-1.5-7.5-7.4-9.5-7.4-.6 0-1.7 1.7-2.3 3.9zm25.5 23.3c-.3.8-.6.5-.6-.6-.1-1.1.2-1.7.5-1.3.3.3.4 1.2.1 1.9zm31 25c-.3.8-.6.5-.6-.6-.1-1.1.2-1.7.5-1.3.3.3.4 1.2.1 1.9zm7 5c-.3.7-.5.2-.5-1.2s.2-1.9.5-1.3c.2.7.2 1.9 0 2.5zm19 16c-.3.8-.6.5-.6-.6-.1-1.1.2-1.7.5-1.3.3.3.4 1.2.1 1.9zm23 19c-.3.8-.6.5-.6-.6-.1-1.1.2-1.7.5-1.3.3.3.4 1.2.1 1.9zm19 11c-.3.8-.6.5-.6-.6-.1-1.1.2-1.7.5-1.3.3.3.4 1.2.1 1.9zm7 5c-.3.8-.6.5-.6-.6-.1-1.1.2-1.7.5-1.3.3.3.4 1.2.1 1.9zm16 12.5c-.3 1-.5.4-.5-1.2 0-1.7.2-2.4.5-1.8.2.7.2 2.1 0 3zm-7 .5c-.3.7-.5.2-.5-1.2s.2-1.9.5-1.3c.2.7.2 1.9 0 2.5zm6 13c-.3.7-.5.2-.5-1.2s.2-1.9.5-1.3c.2.7.2 1.9 0 2.5z"/><path d="M627.1 148.3c-2.2 5.7-2.2 8.3-.1 10.7 1.1 1.3 2 3.7 2 5.5 0 2.9.8 3.8 7.3 8.1 3.9 2.7 7.7 5.4 8.2 5.9 1.6 1.8 8.5 6.7 8.5 6.1 0-.3 1.3.7 2.8 2.2 4.5 4.2 10.5 8.7 11.4 8.4.4-.1.8.2.8.6 0 1.6 8.9 7.1 9.4 5.9.2-.7.5-.4.5.6.1 1.1 1.1 2.7 2.4 3.7 2.2 1.8 2.2 1.8 2.9-.3.6-2.1.6-2 .7.3.1 2.4 3.1 6 5 6 .5 0 1.1.3 1.3.8.2.4 2.3 2.3 4.8 4.2 2.5 1.9 4.7 3.7 5 4 .3.3 3.7 2.8 7.5 5.5 3.9 2.7 7.5 5.6 8.2 6.5.7.8 1.3 1.2 1.3.7 0-.4.9.1 1.9 1 3.9 3.7 7.3 6.3 8 6.3.4 0 1.6.9 2.6 2 1 1.2 2.5 1.8 3.2 1.6.7-.3 1.3.1 1.3.8 0 2 4.7 4.9 5.3 3.3.3-.6.6-.3.6.8.1 1.7 2.9 4.4 4.6 4.5.2.1 1.9 1.4 3.7 3 1.8 1.7 4.1 3.3 5.1 3.6 1.1.3 2.8 1.5 3.9 2.6 1.7 1.7 1.9 2.9 1.4 12.1-.8 16.9-3.3 101-4.5 152.2-.7 26.4-2.3 90.7-3.6 143-1.3 52.2-2.9 118.4-3.5 147-1.8 89-3.9 183.1-4.6 203.9l-.7 19.9 4.1-.6c2.8-.5 4.2-.3 4.5.6.3.6.6-.6.6-2.8.1-2.2.5-13.2 1.1-24.5.5-11.3 1.4-33.1 2-48.5.6-15.4 2.4-59.7 4-98.5s3.4-82 4-96c.5-14 2.1-52.3 3.5-85s4.3-103.8 6.5-158 4.4-107.5 4.9-118.5c1-23.9.5-37.7-1.6-42.4-1.2-2.7-1.3-3.8-.4-5.4 1-1.6.9-1.9-.8-2.4-1.2-.3-2.1-.9-2.1-1.4 0-.5-.4-.9-.9-.9-.6 0-2.2-1.1-3.7-2.5s-3.4-2.5-4.2-2.5c-.8 0-1.2-.3-.9-.7 1-.9-4.4-4.3-5.7-3.6-.5.4-.7-.1-.3-1 .5-1.2.1-1.7-1.2-1.7-1 0-2.2-.7-2.5-1.6-.4-.9-.9-1.4-1.3-1.1-.3.4-1.4-.5-2.5-1.8-1.1-1.4-2.6-2.5-3.4-2.5-.8 0-1.4-.5-1.4-1.1 0-.6-.9-.9-2-.6-1.5.4-2 .1-1.8-1.1.2-1.1-.3-1.6-1.4-1.6-1 .1-1.5-.2-1.2-.7.3-.5-.3-1.2-1.3-1.6-1-.4-2.7-1.6-3.8-2.8-2.1-2.3-5.4-4-7-3.6-.5.2-.7-.1-.3-.5 1-.9-1.2-3.5-2.3-2.8-.5.3-.9-.2-.9-1 0-.9-.4-1.6-.9-1.6-.6 0-2.2-1.1-3.7-2.5s-3.4-2.3-4.1-2.1c-.7.3-1.3-.1-1.3-.9 0-1.5-3.8-4.1-5.3-3.7-.5.1-.5-.2-.2-.8.4-.7-.2-1.4-1.4-1.7-1.2-.3-2.1-.9-2.1-1.4 0-.5-.5-.9-1.1-.9-.7 0-2.2-1.1-3.5-2.5-1.3-1.4-2.8-2.5-3.4-2.5-.5 0-1-.5-1-1 0-.6-.4-1-1-1-.5 0-2.3-1.4-4-3-1.7-1.7-3.5-2.8-4-2.5-.4.3-1.1-.2-1.4-1.1-.3-.8-1-1.2-1.6-.9-.5.3-1-.1-1-.9 0-.9-.7-1.6-1.5-1.6s-1.5-.5-1.5-1c0-.6-.4-1-1-1-.5 0-1.8-.8-2.8-1.8-2.6-2.4-5.6-4.7-6.4-5-.4-.1-2.3-1.7-4.1-3.5-1.8-1.8-4.7-4.2-6.5-5.2-1.8-1.1-3.2-2.3-3.2-2.7 0-.4-.4-.8-.9-.8-.9 0-4.1-2.4-8.2-6.3-1-.9-1.9-1.5-1.9-1.2 0 .2-1.1-.6-2.5-1.9-1.4-1.3-2.5-2.8-2.5-3.3 0-1.2-6.1-6.9-8.3-7.6-1.2-.5-2 0-2.6 1.6zm14.6 21.9c-.3.8-.6.5-.6-.6-.1-1.1.2-1.7.5-1.3.3.3.4 1.2.1 1.9zm13 2c-.3.8-.6.5-.6-.6-.1-1.1.2-1.7.5-1.3.3.3.4 1.2.1 1.9zm-7 4c-.3.8-.6.5-.6-.6-.1-1.1.2-1.7.5-1.3.3.3.4 1.2.1 1.9zm21 10c-.3.7-.5.2-.5-1.2s.2-1.9.5-1.3c.2.7.2 1.9 0 2.5zm22 17c-.3.7-.5.2-.5-1.2s.2-1.9.5-1.3c.2.7.2 1.9 0 2.5zm6 5c-.3.8-.6.5-.6-.6-.1-1.1.2-1.7.5-1.3.3.3.4 1.2.1 1.9zm22 16.5c-.3 1-.5.4-.5-1.2 0-1.7.2-2.4.5-1.8.2.7.2 2.1 0 3zm-7 .5c-.3.7-.5.2-.5-1.2s.2-1.9.5-1.3c.2.7.2 1.9 0 2.5zm13 9c-.3.8-.6.5-.6-.6-.1-1.1.2-1.7.5-1.3.3.3.4 1.2.1 1.9zm22 8c-.3.8-.6.5-.6-.6-.1-1.1.2-1.7.5-1.3.3.3.4 1.2.1 1.9zm13 11c-.3.8-.6.5-.6-.6-.1-1.1.2-1.7.5-1.3.3.3.4 1.2.1 1.9zm-7 4c-.3.8-.6.5-.6-.6-.1-1.1.2-1.7.5-1.3.3.3.4 1.2.1 1.9zm15 18.5c-.3 1-.5.4-.5-1.2 0-1.7.2-2.4.5-1.8.2.7.2 2.1 0 3zM789.2 150.7c-1.6 5.9-1.5 7.1.8 10 1.1 1.4 2 3.4 2 4.4 0 1.1.3 1.9.8 1.9.4 0 2 1.1 3.6 2.5s3.2 2.5 3.5 2.5c.3 0 2.6 1.8 5.1 4 3.9 3.3 4.6 3.7 5.2 2.2.5-1.3.7-1.1.8.8.1 1.8 1.9 3.8 6.7 7.5 3.6 2.7 7.4 5.9 8.4 6.9 1.1 1.1 1.9 1.6 1.9 1.1s.7 0 1.5 1.1c1.4 1.8 1.4 1.8 1.6-.6.1-2.1.3-1.9.8.8.3 1.8.9 3.3 1.4 3.2.4 0 1.5.8 2.5 1.7 1 1 3.8 3.4 6.2 5.3 2.4 1.9 4.9 4.1 5.6 4.7.7.7 1.5 1.3 1.8 1.3.3 0 1.4.8 2.4 1.7 1 1 3.8 3.4 6.2 5.3 2.4 1.9 5 4.1 5.8 4.9 1.2 1.2 1.5 1.2 2.3 0 .7-1.1.9-.9.9.8 0 1.4 1.3 2.9 3.5 4.3 1.9 1.2 3.5 2.5 3.5 2.9 0 .4 1.3 1.4 2.8 2.3 1.5.9 3.9 2.7 5.3 4 1.3 1.3 4.2 3.7 6.4 5.3 5 3.7 8.2 6.4 10.6 8.9 1.9 2 1.9 2 2 0 .1-1.7.2-1.7.7.2.7 2.2 9.8 10.4 11.6 10.4.5 0 2 1.2 3.3 2.6 2.3 2.5 2.4 3 1.9 14.6-.3 6.6-.9 12.4-1.2 13-.4.6-1.3 4.3-2 8.2-.7 3.9-6.7 33.9-13.4 66.6-6.7 32.7-13.2 64.9-14.5 71.5-1.3 6.6-6.3 30.9-11 54s-9.2 45.4-10 49.5c-.8 4.1-5.3 26.4-10 49.5-14.1 69.2-45.5 225.4-47 234.2-.8 4.5-2.4 11.9-3.4 16.5-1.1 4.6-2.2 10.3-2.6 12.8-.3 2.5-1.9 10.6-3.5 18-6.2 29.4-12.2 61.2-11.6 61.8 1.5 1.4 2.9-2.6 7-20.4 2.5-10.4 8.9-37.6 14.4-60.4 5.5-22.8 13.8-57.7 18.5-77.5 12.6-52.5 23.4-98.2 35.3-148 5.8-24.2 13.9-58.2 18-75.5 4.1-17.3 8.5-36 9.9-41.5 2.3-9.4 8-33.4 24.6-103.5 3.8-16.2 8.3-34.7 9.9-41 1.6-6.3 3.2-12.9 3.5-14.7.6-3.7 6.5-28.4 10-42.3 1.4-5.2 2.7-13.9 3-19.3.5-8.3.2-10.5-1.4-14.1-1.2-2.8-1.6-4.9-1-5.7 1.3-2 1.1-2.9-.6-2.9-.8 0-1.6.8-1.6 1.7-.1 1-.4.4-.8-1.2-.4-1.7-1.3-2.9-2-2.7-.9.2-1.1-.3-.8-1.3.4-.8.2-1.5-.3-1.5h-1.5c-.2-.1-2.3-1.9-4.5-4-4.6-4.5-5.6-4.8-6.4-2.3-.3 1-.4.5-.2-1.1.3-2.1-.1-3-1.5-3.3-1.1-.3-1.9-.9-1.9-1.4 0-.5-.7-.9-1.5-.9s-1.5-.5-1.5-1c0-.6-.7-1-1.6-1-.8 0-1.2-.5-.9-1.1.4-.6-.2-1.3-1.4-1.6-1.2-.3-2.1-.9-2.1-1.4 0-.5-.9-.9-2-.9-1.3 0-1.8-.5-1.4-1.5.4-1 0-1.5-1.4-1.5-1.1 0-2.3-.7-2.6-1.6-.3-.8-.9-1.3-1.3-1.1-1 .5-4.3-3-3.6-3.7.6-.5.1-.6-2.2-.6-.3 0-2.5-2.1-4.9-4.6-2.5-2.5-4.9-4.3-5.5-3.9-.6.3-1.1 0-1.1-.8s-1.2-2.2-2.6-3.2c-1.4-.9-3.4-2.4-4.4-3.3-6-5.5-7-6.3-8-5.7-.5.3-1-.1-1-.9 0-.9-.6-1.6-1.4-1.6-.8 0-1.7-.7-2-1.6-.3-.8-1.1-1.2-1.7-.8-.8.5-.9.3-.5-.5.5-.8 0-1.4-1.3-1.8-1.2-.3-2.1-.9-2.1-1.4 0-.5-.6-.9-1.4-.9-.7 0-1.6-1-1.9-2.1-.4-1.4-1.1-2-2.1-1.6-1 .4-1.3.1-.9-.9.5-1.2-.7-1.9-2.9-1.5-.5 0-.8-.5-.8-1.2 0-1-3.1-3.6-4.5-3.7-.2-.1-2.3-1.9-4.6-4.1-2.5-2.4-4.8-3.8-5.6-3.4-1.1.3-1.3.1-1-1 .8-1.9-1.3-3.1-2.4-1.4-.6 1-.9.8-.9-.9 0-1.3-.6-2.2-1.6-2.2-.8 0-1.3-.4-1-.9.3-.5-.4-1.6-1.7-2.4-1.2-.8-3.3-2.4-4.7-3.6-5.9-5.2-7-6.1-7.5-6.1-.3 0-1.3-.8-2.3-1.8-1-.9-3.5-3-5.5-4.7-2-1.6-3.7-3.7-3.7-4.5 0-2-5.8-7.6-8.6-8.2-1.7-.4-2.2.2-3.2 3.9zm28.5 26.5c-.3.7-.5.2-.5-1.2s.2-1.9.5-1.3c.2.7.2 1.9 0 2.5zm6 8c-.3.7-.5.2-.5-1.2s.2-1.9.5-1.3c.2.7.2 1.9 0 2.5zm15 9c-.3.7-.5.2-.5-1.2s.2-1.9.5-1.3c.2.7.2 1.9 0 2.5zm6 7.5c-.3 1-.5.4-.5-1.2 0-1.7.2-2.4.5-1.8.2.7.2 2.1 0 3zm7 3.5c-.3.7-.5.2-.5-1.2s.2-1.9.5-1.3c.2.7.2 1.9 0 2.5zm9 9c-.3.8-.6.5-.6-.6-.1-1.1.2-1.7.5-1.3.3.3.4 1.2.1 1.9zm13 10.5c-.3 1-.5.2-.5-1.7s.2-2.7.5-1.8c.2 1 .2 2.6 0 3.5zm6 7.5c-.3.7-.5.2-.5-1.2s.2-1.9.5-1.3c.2.7.2 1.9 0 2.5zm7 1c-.3.7-.5.2-.5-1.2s.2-1.9.5-1.3c.2.7.2 1.9 0 2.5zm22 20.5c-.3 1-.5.2-.5-1.7s.2-2.7.5-1.8c.2 1 .2 2.6 0 3.5zm6 6.5c-.3.8-.6.5-.6-.6-.1-1.1.2-1.7.5-1.3.3.3.4 1.2.1 1.9zm16 13c-.3.8-.6.5-.6-.6-.1-1.1.2-1.7.5-1.3.3.3.4 1.2.1 1.9zm-7 8c-.3.8-.6.5-.6-.6-.1-1.1.2-1.7.5-1.3.3.3.4 1.2.1 1.9zm13 5.5c-.3 1-.5.4-.5-1.2 0-1.7.2-2.4.5-1.8.2.7.2 2.1 0 3zm-7-.5c-.3.8-.6.5-.6-.6-.1-1.1.2-1.7.5-1.3.3.3.4 1.2.1 1.9z"/><path d="M600.1 152.9c-1.1 4.5-1.1 5.2.7 7.8 1.1 1.5 2.3 5.3 2.6 8.3.5 4.6 1.1 5.9 3.8 8.2 1.8 1.6 4.3 3.1 5.6 3.4 1.2.3 2.2 1.2 2.2 2s.6 1.4 1.3 1.4c1.1 0 4.3 2.4 10.4 7.8 1.2 1.1 2.4 1.8 2.6 1.6.2-.2 1.5.6 2.9 2 1.5 1.3 4.1 3.4 6 4.7 1.8 1.3 4.3 3.2 5.5 4.2 1.1 1.1 2.4 1.9 2.7 1.8.3-.1 1.4.7 2.4 1.6 2.5 2.4 4.6 4 11.7 9.3 3.3 2.5 6.2 4.8 6.3 5.2.6 1.4 2 .8 2.5-1 .3-1.1.5-.7.6 1 .1 1.9 1.1 3.3 3.6 4.8 2 1.2 4.1 2.7 4.8 3.4.6.7 3.9 3.2 7.2 5.6 3.3 2.4 6.2 4.7 6.3 5.2.2.4 1 .8 1.7.8s1.6.7 1.9 1.6c.4.9.9 1.4 1.2 1.1.3-.3 1.4.2 2.3 1.1 2.5 2.4 4.8 4.2 11.7 9.2 3.2 2.4 6.1 4.7 6.2 5.2.2.4.8.8 1.3.8.6 0 1.5.5 2.2 1 .7.6 2.8 2.1 4.7 3.3 2.3 1.5 3.4 3 3.3 4.3-.2 1.8 2 293.7 3.1 409.9.5 58.6-.5 83.3-1.7 41.5-1.2-40.5-4.6-197.8-5.2-239.5-.7-53.1-3.3-173.9-4.1-192.5-.4-10.5-1.1-16.4-2.1-18.3-1.1-2.3-1.2-3.1-.2-4.3 1-1.3 1-1.7-.1-2.4-.8-.5-1.7-.7-2.1-.4-.4.2-1-.3-1.3-1.2-.3-.8-1-1.2-1.6-.9-.5.3-1-.1-1-.9 0-.9-.5-1.6-1.1-1.6-.7 0-1.8-.8-2.5-1.8-1.2-1.5-1.5-1.5-2.5-.2-.9 1.3-1 1.3-.6-.2.4-1.1-.4-2.3-2.1-3.4-1.5-.9-3.1-2.3-3.5-3.1-1.1-1.8-2.5-1.6-3 .4-.3 1.1-.5.7-.6-1-.1-1.7-.7-2.7-1.6-2.7-.8 0-1.5-.7-1.5-1.6 0-1-.6-1.4-1.4-1.1-.8.3-1.7-.1-2-.9-.3-.9-1-1.2-1.6-.9-.5.3-1-.1-1-1 0-1.1-.5-1.5-1.6-1.1-.8.3-1.2.2-.9-.4.3-.6-.2-1.3-1.2-1.7-1-.4-2.1-1.1-2.5-1.7-.4-.6-1.3-1.1-2-1.1-.7-.1-1.2-.7-1-1.4.2-.9-.4-1-1.9-.6-1.5.5-1.9.4-1.5-.4.4-.6 0-1.4-.8-1.7-.9-.3-1.6-1.2-1.6-2 0-1.7-1.2-1.8-2.9-.2-1 1.1-1.1 1-.6-.3.7-1.8-4.1-6.3-5.6-5.3-.5.3-.9-.1-.9-.8 0-1.6-4.9-4-6.3-3.1-.6.4-.8 0-.4-1 .7-1.8-3.7-5.2-5.5-4.1-.8.5-.9.2-.5-.9.6-1.5-.3-2.2-2.5-1.8-.5 0-.8-.6-.8-1.5 0-1-.6-1.4-1.5-1-.9.3-1.5 0-1.5-.8s-1.3-2-3-2.8c-1.6-.7-3-1.6-3-2 0-.5-.7-.8-1.6-.8-.8 0-1.3-.4-1-.9.3-.5-.1-1.4-.9-2.1-.8-.7-1.5-1-1.5-.7 0 .5-2.2-1.2-7.7-6.1-2.5-2.1-3.7-2.6-5.6-2.3-.5.1-.6-.3-.2-.9.3-.5-.2-1.3-1.2-1.7-1-.3-2.2-1.3-2.6-2-.5-.7-1.3-1-1.9-.7-.7.4-.8.2-.4-.4.4-.7.3-1.2-.3-1.2-.5 0-2.9-1.8-5.3-4-2.3-2.2-4.9-3.8-5.5-3.5-.7.2-1.3-.1-1.3-.8 0-1.4-3.5-4.7-4.9-4.7-.5 0-1.2-.6-1.4-1.3-.4-.9-.8-.8-1.6.3-.9 1.3-1.1 1.1-1.1-.6 0-1.2-1.1-2.9-2.5-3.8-1.4-.9-2.5-1.4-2.5-1.1 0 .3-1.1-.6-2.5-2.1-1.3-1.4-2.2-3-2-3.4.7-1.1-7.2-8-9-8-3.1 0-4.9 10.6-2.1 12.9.8.6 1.7 3.5 2 6.5l.7 5.3 10.1 7.4c5.5 4.1 10.7 7.8 11.6 8.4.9.5 2.7 2 4.1 3.2 1.4 1.3 2.9 2.3 3.2 2.3.3 0 1.7 1 3.1 2.2 4.2 3.8 7.1 6.2 11 9l3.7 2.7.4-2.2c.4-2 .4-2 .6.3 0 1.4 1 3.3 2.1 4.3 2.6 2.2 2.8 2.2 3.3-.6.3-1.7.5-1.5.6.8.1 2.6 1.9 4.9 4.4 5.4.4 0 1.5.9 2.5 1.8 2.9 2.7 6.3 5.5 10.7 8.7 2.2 1.6 4.2 3.3 4.3 3.8.2.4 1 .8 1.7.8s1.5.4 1.7.8c.2.5 3 2.8 6.3 5.2 3.3 2.4 6.9 5.2 7.9 6.2 1.1 1 2.4 1.8 2.8 1.8.5 0 2.1 1.1 3.6 2.5 1.9 1.8 2.8 2.1 3.4 1.2.5-.8.8-.4.8 1s.6 2.3 1.5 2.3c.8 0 1.5.4 1.5 1 0 .5.4 1 .9 1s2 .9 3.3 2c1.2 1.1 3.9 3.3 5.8 5 1.9 1.6 5.4 3.9 7.8 5.1l4.2 2.2v11.4c0 6.3-.4 12.2-.9 13.1-.5 1 .1 21.1 1.5 50.2 4.6 94 7.4 153.7 8.4 176 .6 12.4 2.4 49.7 4 83s3.2 66.6 3.5 74c.3 7.4 1.7 35.3 3 62 1.4 26.7 3.2 64.1 4 83 3.1 71 5.7 117.6 6.7 120l1.1 2.5 1.4-3.5c1.1-2.5 1.5-7.3 1.5-17-.1-16.4 1.9-90.4 5.8-220 1.6-53.6 3.4-116 4-138.5.6-22.6 1.9-72.7 3-111.5 4.1-147.7 4.4-166.1 3.2-168.1-.7-1-1.2-5-1.2-8.8 0-3.9-.7-8.4-1.5-10.6-.9-2-1.3-4.5-1-5.4.4-1.3-.3-2.4-2.2-3.7-1.6-.9-3.5-2.4-4.3-3.3-1.3-1.3-1.6-1.1-2.1 1.5l-.7 2.9-.1-3.3c-.1-2.2-.6-3.2-1.7-3.2-.8 0-1.3-.4-.9-.9.3-.5 0-1.3-.6-1.7-.6-.3-1.5 0-2 .7-.6 1-.9.8-.9-.9 0-1.3-.6-2.2-1.6-2.2-.8 0-1.2-.5-.9-1 .3-.6.2-1-.4-1-.5 0-1.6-.6-2.3-1.3-2.4-2.2-5.9-3.8-6.8-3.2-.6.3-.7-.1-.4-.9.4-1 .1-1.6-.9-1.6-.8 0-1.8-.7-2.1-1.6-.4-.9-1.3-1.4-2.2-1-.9.4-1.3.2-.8-.5.4-.6 0-1.5-.7-2-.9-.5-1.6-.3-2.1.9-.5 1.4-.7 1.3-.7-.6-.1-1.3-.7-2.2-1.6-2.2-.8 0-1.5-.5-1.5-1 0-.6-.7-1-1.6-1-.8 0-1.2-.5-.9-1 .3-.6-.2-1.3-1.2-1.7-1-.3-2.2-1.3-2.6-2-.5-.7-1.3-1-1.9-.7-.7.4-.8.2-.4-.5.4-.6 0-1.4-1.1-1.8-.9-.4-2.7-1.7-3.9-3-2.3-2.5-4.3-3-4.5-1.1-.1.7-.4.2-.8-1.2s-1.3-2.4-1.9-2.3c-.7.2-1.2-.4-1.2-1.2 0-1.8-1.6-2-2.3-.3-.3.7-.6.3-.6-1-.1-1.2-.6-2.2-1.1-2.2-.6 0-2.1-1.1-3.4-2.5-1.3-1.4-2.7-2.5-3.2-2.5s-2.3-1.2-4.1-2.8c-5.3-4.7-7.3-6.2-8.2-6.2-.5 0-1.1-.7-1.5-1.5-.3-.8-1.2-1.5-2.1-1.5-.8 0-1.5-.5-1.5-1 0-.6-.7-1-1.6-1-.8 0-1.3-.4-.9-.9.3-.5-.3-1.2-1.4-1.6-1-.3-3.1-1.7-4.5-3.2-1.4-1.4-2.6-2.2-2.6-1.7 0 .5-.4.4-.8-.2-.4-.5-2.5-2.3-4.7-3.9-2.2-1.7-4.4-3.6-4.8-4.3-.5-.7-1.2-1-1.8-.7-.5.4-.9-.1-.9-.9 0-.9-.6-1.6-1.4-1.6-.8 0-1.7-.8-2-1.7-.6-1.5-.8-1.5-1.6-.3-.8 1.3-1 1.2-1-.2 0-.9-1.6-2.6-3.5-3.8-1.9-1.2-3.5-2.6-3.5-3.1s-.7-.9-1.5-.9-1.5-.4-1.5-.8-1.3-1.6-3-2.5c-1.6-1-3-2.6-3-3.7 0-2.2-6.4-8-8.8-8-1.3 0-2.2 1.3-3.1 4.9zm-15.4 25.3c-.3.7-.5.2-.5-1.2s.2-1.9.5-1.3c.2.7.2 1.9 0 2.5zm6 5c-.3.8-.6.5-.6-.6-.1-1.1.2-1.7.5-1.3.3.3.4 1.2.1 1.9zm37 2c-.3.8-.6.5-.6-.6-.1-1.1.2-1.7.5-1.3.3.3.4 1.2.1 1.9zm-22 4c-.3.7-.5.2-.5-1.2s.2-1.9.5-1.3c.2.7.2 1.9 0 2.5zm-6 1c-.3.8-.6.5-.6-.6-.1-1.1.2-1.7.5-1.3.3.3.4 1.2.1 1.9zm34 1c-.3.8-.6.5-.6-.6-.1-1.1.2-1.7.5-1.3.3.3.4 1.2.1 1.9zm15 4c-.3.8-.6.5-.6-.6-.1-1.1.2-1.7.5-1.3.3.3.4 1.2.1 1.9zm-7 4c-.3.8-.6.5-.6-.6-.1-1.1.2-1.7.5-1.3.3.3.4 1.2.1 1.9zm-14 1c-.3.8-.6.5-.6-.6-.1-1.1.2-1.7.5-1.3.3.3.4 1.2.1 1.9zm27 1c-.3.7-.5.2-.5-1.2s.2-1.9.5-1.3c.2.7.2 1.9 0 2.5zm7 1c-.3.7-.5.2-.5-1.2s.2-1.9.5-1.3c.2.7.2 1.9 0 2.5zm-28 9c-.3.7-.5.2-.5-1.2s.2-1.9.5-1.3c.2.7.2 1.9 0 2.5zm43 7c-.3.7-.5.2-.5-1.2s.2-1.9.5-1.3c.2.7.2 1.9 0 2.5zm-28 9c-.3.8-.6.5-.6-.6-.1-1.1.2-1.7.5-1.3.3.3.4 1.2.1 1.9zm34 1c-.3.7-.5.2-.5-1.2s.2-1.9.5-1.3c.2.7.2 1.9 0 2.5zm-21 4c-.3.7-.5.2-.5-1.2s.2-1.9.5-1.3c.2.7.2 1.9 0 2.5zm-7 1c-.3.7-.5.2-.5-1.2s.2-1.9.5-1.3c.2.7.2 1.9 0 2.5zm50 6.5c-.3 1-.5.4-.5-1.2 0-1.7.2-2.4.5-1.8.2.7.2 2.1 0 3zm-21 4.5c-.3.8-.6.5-.6-.6-.1-1.1.2-1.7.5-1.3.3.3.4 1.2.1 1.9zm34 1c-.3.8-.6.5-.6-.6-.1-1.1.2-1.7.5-1.3.3.3.4 1.2.1 1.9zm-7 4c-.3.8-.6.5-.6-.6-.1-1.1.2-1.7.5-1.3.3.3.4 1.2.1 1.9zm-21 1c-.3.8-.6.5-.6-.6-.1-1.1.2-1.7.5-1.3.3.3.4 1.2.1 1.9zm43 17.5c-.3 1-.5.4-.5-1.2 0-1.7.2-2.4.5-1.8.2.7.2 2.1 0 3zm-21 1.5c-.3.7-.5.2-.5-1.2s.2-1.9.5-1.3c.2.7.2 1.9 0 2.5zm-7 3c-.3.7-.5.2-.5-1.2s.2-1.9.5-1.3c.2.7.2 1.9 0 2.5zm34 0c-.3.8-.6.5-.6-.6-.1-1.1.2-1.7.5-1.3.3.3.4 1.2.1 1.9zm-7 503.5c-.1 4.3-.3 1-.3-7.2 0-8.3.2-11.8.3-7.8.2 4 .2 10.7 0 15zM815.5 154.3c-1.4 4.4-2.2 8.6-1.6 9.3 1 1.5 10.9 9.4 11.6 9.4.4 0 3.3 2.2 6.5 5 3.2 2.7 6.1 5 6.4 5 .4 0 1.7 1.1 3 2.5 2.9 3.1 3.3 3.1 3.9.2.3-1.7.5-1.5.6.9.1 2.2 1 3.8 3.3 5.5 1.8 1.3 4.9 3.9 7 5.8 2.1 1.8 3.8 3.1 3.8 2.7 0-.3 1.5.9 3.3 2.7 1.8 1.8 4.9 4.3 7 5.7 2 1.4 3.7 2.8 3.7 3.2 0 .5.6.8 1.4.8.8 0 1.7.7 2 1.6.3.8 1 1.2 1.6.9.5-.3 1 0 1 .7s1.5 2.3 3.3 3.5c1.8 1.3 4.2 3.1 5.3 4.1 1 1 3.7 3.1 5.9 4.7 2.2 1.7 4.4 3.7 4.9 4.5.8 1.2 1.1 1 1.7-1l.7-2.5.1 2.5c.1 2.2 3.9 7 5.5 7 .3 0 1.4.8 2.4 1.7 2.8 2.6 6.2 5.5 10.4 8.6 3.6 2.6 4.9 3.6 12.2 9.9 2.7 2.4 3.2 2.5 3.8 1 .6-1.4.7-1.4.7.4.1 1.9 3.9 6.4 5.3 6.4.4 0 .9-1.2 1.1-2.8.3-2.2.4-2 .6 1 0 2.4.6 3.8 1.4 3.8.8 0 2.3 1.1 3.5 2.3 2 2.1 2.2 3.5 2.3 13.8.1 13.3.2 12.3-4.4 30.4-2 7.7-6.6 25.9-10.1 40.5-3.6 14.6-9.5 38.6-13.1 53.4-3.7 14.8-6.8 27.8-7.1 29-.3 1.9-1.6 7.3-10.4 42.6-6.2 25.1-10.3 41.7-16.9 69-3.9 15.7-10.6 43.1-15 61s-11.4 46.4-15.6 63.5c-4.2 17-10.7 43.6-14.5 59-3.8 15.4-10.3 41.7-14.4 58.5-9.6 38.9-25.4 103.3-31.1 126.5-4.7 18.8-5 20.5-3.7 20.5.5 0 1.6-3.3 2.7-7.3 1-3.9 3.2-12.4 5-18.7 1.8-6.3 5.2-18.5 7.5-27 5.3-19.5 10-36.6 15-54.5 2.2-7.7 5.8-20.8 8-29 4.1-14.6 7.3-26.5 14.6-53 2-7.2 5.4-19.1 7.5-26.5 2.2-7.4 3.9-14 3.9-14.5 0-.6 1.6-6.4 3.5-13s5.3-18.8 7.5-27c2.3-8.3 5.7-20.4 7.5-27 1.9-6.6 6.6-23.7 10.5-38 3.9-14.3 10-36.6 13.6-49.5 3.6-12.9 8.1-29.4 10-36.5 1.9-7.2 5-18.4 6.9-25 1.9-6.6 5.6-20.3 8.4-30.5 2.7-10.2 8.6-31.6 13-47.5 4.3-16 10-36.7 12.6-46 10.5-38.6 12.9-47.4 15.1-55 1.3-4.6 1.9-8.1 1.4-8.3-.6-.2-1-4.2-1-8.8 0-4.7-.5-9.5-1.2-10.7-.6-1.2-1.2-3.9-1.2-6-.1-2-.5-3.7-.9-3.6-.5 0-1.5-.8-2.3-1.8-1.2-1.6-1.5-1.6-2.4-.3-.8 1.2-1 1-.8-1 .2-1.9-.2-2.5-1.4-2.4-1 .1-1.8-.4-1.8-1.2 0-.8-.7-1.4-1.6-1.4-.8 0-1.2-.5-.9-1 .6-.9-.8-1.4-2.7-1.1-.5 0-.8-.6-.8-1.4 0-.8-.4-1.5-.9-1.5-.6 0-2.2-1.1-3.7-2.5s-3.3-2.5-3.9-2.5c-.7 0-1.6-.7-1.9-1.6-.3-.8-1.1-1.2-1.7-.8-.8.4-.9.3-.5-.5.4-.6 0-1.4-1.1-1.8-1-.3-2.2-1.3-2.6-2-.5-.7-1.3-1-1.9-.7-.7.4-.8.2-.4-.5.4-.6 0-1.4-1-1.8-1-.3-2.5-1.4-3.5-2.2-5.9-5.4-6.9-6.2-7.6-5.8-1.1.5-4.3-3-3.5-3.8.3-.3-.3-.8-1.5-1.1-1.2-.3-2.4-1.2-2.7-2-.8-2.1-2.4-1.7-2.9.8-.2 1.3-.3.8-.1-1.1.2-2.6-.1-3.4-1.6-3.8-1.1-.3-2-.9-2-1.4 0-.5-.7-.9-1.6-.9-.8 0-1.2-.5-.9-1.1.4-.6-.2-1.3-1.4-1.6-1.2-.3-2.1-.9-2.1-1.4 0-.5-.7-.9-1.5-.9s-1.5-.7-1.5-1.5-.7-1.5-1.5-1.5-1.5-.5-1.5-1c0-.6-.6-1-1.4-1-.7 0-1.9-.7-2.6-1.5-.7-.8-1.7-1.2-2.3-.8-.5.3-.7.1-.4-.4.7-1.1-4.2-4.9-5.6-4.5-.5.1-.6-.2-.3-.7.3-.5-.1-1.4-.9-2.1-.8-.7-1.5-.9-1.6-.4 0 .5-.4-.1-.9-1.4-1.3-3.2-2.8-2.7-3.3 1-.3 2.9-.4 2.7-.5-1-.2-3-.6-4.2-1.7-4.2-.8 0-1.5-.7-1.5-1.5 0-1.8-1.6-2-2.3-.3-.3.7-.6.3-.6-1-.1-1.2-.7-2.2-1.6-2.2-.8 0-1.5-.6-1.5-1.3 0-.6-1.2-1.8-2.7-2.4-2.1-1-2.9-1-3.6 0-.5.7-.6.4-.2-1 .4-1.3.1-2.5-.8-3-1.4-.7-9.5-7.6-13.8-11.6-1-.9-2.2-1.7-2.5-1.7-.4 0-1.7-1.1-3-2.5s-2.7-2.5-3.2-2.5c-.6 0-1.3-.8-1.8-1.8-.6-1.4-.8-1.2-1.4 1.3l-.8 3-.1-3.2c0-1.8-.8-3.6-1.7-4.1-.8-.5-1.6-1.6-1.8-2.5-.3-2.2-6.3-8.4-8.8-9-1-.3-2.1 0-2.3.6zm36.2 32.9c-.3.8-.6.5-.6-.6-.1-1.1.2-1.7.5-1.3.3.3.4 1.2.1 1.9zm79 68c-.3.8-.6.5-.6-.6-.1-1.1.2-1.7.5-1.3.3.3.4 1.2.1 1.9zm28 34c-.3.8-.6.5-.6-.6-.1-1.1.2-1.7.5-1.3.3.3.4 1.2.1 1.9z"/><path d="M543.6 159.1c-1 5.1-.7 8.6.7 9.2.9.3 1.7 3 2 6.8.8 7 1.5 8.1 7.2 11.7 2.2 1.4 5.1 3.5 6.4 4.8 1.3 1.3 2.7 2.1 3.2 1.8.5-.3.9.2.9 1 0 .9 1.3 2.2 2.9 3.1 2.9 1.5 3 1.4 3.4-1.3.2-1.5.3-1 .2 1-.2 2.9.1 3.9 1.6 4.3 1 .4 1.9 1.1 1.9 1.7 0 .5.7.8 1.4.5 1-.4 1.3-.1.9.9-.3.8.1 1.4 1.1 1.4.9 0 1.6.4 1.6 1 0 .5.7 1 1.5 1s1.5.4 1.5 1c0 1.7 1.8 1.1 2.3-.8.3-1 .5-.7.6 1 .1 2.5 3.4 5.6 5.4 5 .4-.1.7.5.7 1.3 0 1.4 3.8 4.1 5.3 3.7.4-.1.7.5.7 1.3s.5 1.5 1.1 1.5c.6 0 2.5 1.4 4.2 3.1 2.8 2.9 3.2 3 3.8 1.3.7-1.8.8-1.8.8 0 .1 1 1.2 2.9 2.5 4.1l2.5 2.3.4-2.2c.4-2 .4-2 .6.2.2 3.5 10.8 13.1 12.6 11.4.5-.4.5-.2.1.5s.3 1.7 1.6 2.4 2.7 1.8 3.1 2.5c.4.8 2.9 2.8 5.5 4.6 4.3 2.9 9.5 6.9 13.2 10.2 5.1 4.5 18.4 14.8 20.9 16 1.6.9 3.1 2.3 3.5 3.1.3.9.6 7.4.6 14.5 0 7 2 38.6 4.5 70.1 2.5 31.6 5.6 71.8 7 89.4 1.4 17.6 4.3 54.9 6.5 83 4.4 57.2 8.6 110.7 13 167 6.3 81.2 11 141 12 154.2.6 7.6 2.4 29.8 3.9 49.4 2.5 31.2 3.9 41.4 5.7 39.6.2-.2 0-8.4-.6-18.3-.6-9.8-2.6-49.4-4.5-87.9-4.1-82.5-3.9-78.7-7-140-1.4-26.4-2.9-57.9-3.5-70-.6-12.1-2.4-48.3-4-80.5-7.8-153.8-10-199.3-11.5-233.5-1.1-26.5-2-38.4-3.1-41.8-1.2-3.7-1.3-5.2-.4-6.3 1-1.1.8-1.5-1.1-2.3-1.3-.5-3.6-1.9-5-3.2-4.2-3.8-6.9-5.9-7.5-5.9-.3 0-1.2-.7-2.1-1.5-.8-.8-1.9-1.2-2.5-.9-.7.5-.8.2-.4-.5.5-.8 0-1.4-1.3-1.8-1.2-.3-2.1-.9-2.1-1.4 0-.5-.7-.9-1.5-.9s-1.5-.5-1.5-1c0-.6-.7-1-1.6-1-.8 0-1.3-.4-1-.9.3-.4-.6-1.3-1.9-1.9-1.4-.7-2.5-1.6-2.5-2.2 0-.6-.4-.9-.9-.6-.5.3-1.1-.1-1.5-.9-.8-2.2-2.4-1.8-2.9.7-.3 1.5-.4 1.3-.2-.5.1-2.2-.5-3.1-2.5-4.2-1.5-.8-3.1-1.1-3.4-.7-.4.3-.4-.1 0-1.1.4-1.1.1-1.7-.9-1.7-.8 0-2-.7-2.7-1.5-.7-.8-1.7-1.2-2.3-.8-.6.4-.7.1-.3-.6.5-.8 0-1.4-1.3-1.8-1.2-.3-2.1-1.2-2.1-1.9 0-.8-.6-1.4-1.4-1.4-.8 0-1.6-.7-2-1.5-.3-.8-1.2-1.5-2.1-1.5-.8 0-1.5-.5-1.5-1.1 0-.6-.7-.9-1.5-.5-.8.3-1.4 0-1.2-.6.1-.6-.3-1.2-1-1.5-.7-.2-1.3.8-1.6 2.4-.3 2.3-.4 2.2-.6-1-.1-2.6-.6-3.7-1.6-3.7-.8 0-1.4-.6-1.2-1.3.1-.6-.6-1.1-1.5-1.1-1 .1-1.8-.4-1.8-1.2 0-.8-.7-1.4-1.5-1.4s-1.5-.5-1.5-1c0-.6-.7-1-1.6-1-.8 0-1.3-.4-.9-.9.3-.5-.3-1.2-1.4-1.6-1-.3-3.5-2.1-5.4-4-2-1.9-4-3.5-4.5-3.5s-1.5-.7-2.2-1.5c-.7-.8-1.6-1.2-2.1-.9-.5.3-.8.1-.7-.6.2-.6-1-1.8-2.6-2.8-1.6-.9-3.7-2.4-4.6-3.2-3.7-3.3-6.1-5-6.9-5-.5 0-1.2-.7-1.5-1.6-.3-.8-1.1-1.2-1.7-.8-.8.4-.9.3-.5-.5.4-.6 0-1.4-1.1-1.8-.9-.4-2.7-1.7-3.9-3-1.2-1.3-2.6-2.3-3.3-2.3-.6 0-1.1-.5-1.1-1 0-.6-.6-1-1.4-1-.8 0-1.7-.7-2-1.6-.4-.9-.9-1.4-1.2-1.1-.3.3-1.3-.2-2.3-1.1-1-1-3.4-3-5.4-4.7-2-1.6-3.7-3.5-3.7-4.1 0-1.8-6.8-7.4-8.9-7.4-1.3 0-2 1-2.5 3.1zm21.1 27.1c-.3.8-.6.5-.6-.6-.1-1.1.2-1.7.5-1.3.3.3.4 1.2.1 1.9zm13 0c-.3.8-.6.5-.6-.6-.1-1.1.2-1.7.5-1.3.3.3.4 1.2.1 1.9zm14 20.5c-.3 1-.5.4-.5-1.2 0-1.7.2-2.4.5-1.8.2.7.2 2.1 0 3zm22 11.5c-.3.8-.6.5-.6-.6-.1-1.1.2-1.7.5-1.3.3.3.4 1.2.1 1.9zm6 10.5c-.3 1-.5.4-.5-1.2 0-1.7.2-2.4.5-1.8.2.7.2 2.1 0 3zm22 16.5c-.3.7-.5.2-.5-1.2s.2-1.9.5-1.3c.2.7.2 1.9 0 2.5zm-7 4c-.3.7-.5.2-.5-1.2s.2-1.9.5-1.3c.2.7.2 1.9 0 2.5zm13 1c-.3.7-.5.2-.5-1.2s.2-1.9.5-1.3c.2.7.2 1.9 0 2.5zm29 13c-.3.8-.6.5-.6-.6-.1-1.1.2-1.7.5-1.3.3.3.4 1.2.1 1.9zm-14 3c-.3.8-.6.5-.6-.6-.1-1.1.2-1.7.5-1.3.3.3.4 1.2.1 1.9zm7 2c-.3.7-.5.2-.5-1.2s.2-1.9.5-1.3c.2.7.2 1.9 0 2.5zm13 1c-.3.8-.6.5-.6-.6-.1-1.1.2-1.7.5-1.3.3.3.4 1.2.1 1.9zm-7 10.5c-.3 1-.5.4-.5-1.2 0-1.7.2-2.4.5-1.8.2.7.2 2.1 0 3zM837.9 162.5c-1.5 6.6-1.4 6.6 9.1 14.4 4.1 3 8.6 6.5 10 7.8 2.3 2.1 2.5 2.1 3.2.5.5-1.3.7-1 .7 1 .1 1.6.6 2.8 1.1 2.8.6 0 1.9.8 2.9 1.7 5.2 4.9 6.9 6.3 7.4 6.3.3 0 .8-1 1-2.3.4-1.9.4-1.8.6.6.1 3 1.5 4.8 7.4 9 2.4 1.8 3.7 2.3 3.8 1.5.1-.7.4-.3.7 1 .4 1.3 1.1 2.3 1.5 2.2.5-.1 1.4.5 2 1.3.7.8 3.8 3.5 7 6.1 3.2 2.6 7 5.8 8.5 7.1 1.9 1.8 2.8 2.1 3.4 1.2.6-.9.8-.8.8.4 0 .8 1.6 2.9 3.6 4.5s4.5 3.7 5.5 4.6c1.1 1 2.1 1.8 2.3 1.8.3 0 1.7 1.1 3.2 2.5 1.4 1.3 3 2.2 3.5 1.9.5-.3.9.1.9.8 0 .7 1.2 2.1 2.6 3.2 2.2 1.5 2.8 1.6 3.6.5.7-1.2.9-1.1.7.1-.3 2.7.1 4 1 4 .6 0 2.4 1.3 4.2 3 2.4 2.1 3.5 2.6 4.1 1.7.5-.8.8-.4.8 1 0 1.3.5 2.3 1 2.3.6 0 1.8.8 2.9 1.7 1.7 1.7 5.2 4.5 11.2 9.2 1.5 1.1 2.9 1.7 3.3 1.4.3-.3.6-.1.6.6 0 1.5 5 5.7 6.2 5.3.5-.1.8.2.8.8 0 .5.6 1 1.3 1 .7 0 1.8.9 2.5 2 3.3 5.3 2.2 20-2.6 37-1.7 5.8-4.4 15.4-6 21.5-1.7 6-5.4 19.3-8.2 29.5-2.8 10.2-8.2 29.7-12 43.5-3.8 13.7-8.5 30.8-10.5 38-8.5 30.6-22.8 82.4-26 94.5-1.3 4.7-4.6 16.8-7.5 27-7.5 26.9-18.8 68.2-21.5 78-1.2 4.7-4.3 15.9-6.8 25-5.7 20.5-24.9 90.7-31.1 113.5-2.6 9.3-6.3 22.8-8.2 30-2 7.1-5.2 18.6-7 25.5-1.9 6.9-5 18.1-6.9 25-1.9 6.9-4.8 17.7-6.6 24-1.7 6.3-4.4 16-5.9 21.5-1.6 5.5-3.5 12.9-4.4 16.5-.8 3.6-1.8 7.3-2.1 8.2-.5 1.2-.2 1.8.6 1.8.9 0 2.3-3.1 3.7-7.8 6.8-22.8 11.5-38.3 13.2-43.2 1-3 3.7-11.8 6-19.5 2.3-7.7 5.7-18.7 7.5-24.5 1.8-5.8 5.1-16.8 7.5-24.5 2.3-7.7 5.5-18.1 7-23 1.5-5 4.7-15.3 7-23 2.4-7.7 5.7-18.7 7.5-24.5 1.8-5.8 4.9-16.1 7-23 2-6.9 5.2-17.2 7-23 1.8-5.8 4.9-16.1 7-23 2.1-6.9 5.2-17.2 7-23 1.8-5.8 4.9-16.1 7-23 2.1-6.9 5.5-17.9 7.5-24.5 2.1-6.6 5.4-17.6 7.5-24.5 5.5-18.3 10.3-34.1 14-46 1.8-5.8 4.9-16.1 7-23 2.1-6.9 5.3-17.2 7-23 1.8-5.8 5.2-16.8 7.5-24.5 2.3-7.7 5.5-18.1 7-23 1.5-5 4.7-15.3 7-23 2.3-7.7 5.5-18.1 7-23 1.6-5 5-16 7.5-24.5 6.6-21.5 13-42.5 17.1-55.3 4-12.6 4.6-24.5 1.8-31.3-1.2-2.9-1.3-4.3-.5-5.6.9-1.5.8-2-.6-2.5-1-.4-2.4-1.4-3-2.2-1.1-1.4-1.4-1.4-2.3-.1-.9 1.2-1 1-.5-.8.4-1.3.2-2.2-.4-2.2h-1.6c-.2-.1-2.3-1.9-4.6-4.1-2.4-2.3-4.8-3.8-5.6-3.5-.9.4-1.3 0-1.1-1.2.2-1.1-.3-1.7-1.4-1.6-1 .1-1.8-.4-1.8-1 0-.7-1.5-1.8-3.4-2.6-2.2-.8-3.2-1.8-2.9-2.7.3-.8-.2-1.3-1.6-1.3-1.2 0-2.1-.6-2.1-1.5s-.6-1.2-1.7-.8c-1.1.4-1.4.3-.9-.5.4-.7 0-1.5-1.1-1.9-1-.3-2.2-1.2-2.6-2-1.2-2-2.5-1.6-3 .9-.3 1.7-.5 1.4-.6-1-.1-2.1-.6-3.2-1.6-3.2-.8 0-1.4-.6-1.2-1.3.1-.6-.6-1.1-1.5-1.1-1 .1-1.8-.4-1.8-1.2 0-.8-.7-1.4-1.6-1.4-.8 0-1.2-.5-.9-1 .3-.6-.2-1.3-1.2-1.7-1-.3-2.2-1.2-2.6-2-.4-.7-1.5-1.3-2.2-1.3-.8 0-1.5-.6-1.5-1.3 0-.7-1.6-1.9-3.5-2.7-1.9-.7-3.2-1.7-2.9-2.2.4-.5-.3-1.2-1.5-1.5-1.2-.3-2.1-.9-2.1-1.4 0-.5-.7-.9-1.5-.9s-1.5-.5-1.5-1.1c0-1.1-3.9-4.8-5.2-4.9-.4 0-.9 1.5-1.1 3.2-.3 2.9-.4 2.7-.5-1-.2-3-.6-4.2-1.7-4.2-.8 0-1.4-.6-1.2-1.3.1-.6-.5-1.2-1.3-1.2s-1.8-.8-2.2-1.8c-.4-1-1.2-1.6-1.7-1.3-.5.3-1.1-.1-1.5-.9-.7-2-2.4-1.9-2.9.2-.2 1-.3.5-.2-1.1.1-2.1-.3-3-1.7-3.4-1-.2-1.8-.8-1.8-1.3 0-1.6-2.8-.9-3.4.8-.3 1-.4.6-.2-.9.2-2.1-.3-3.2-2.3-4.5-1.4-1-3-1.6-3.4-1.5-.5.1-.6-.2-.2-.8.3-.5-.2-1.3-1.2-1.7-1-.4-3-2.1-4.5-3.7-1.6-1.7-2.8-2.7-2.8-2.3 0 .5-.7.1-1.6-.7-.8-.9-2-1.4-2.5-1.1-.5.4-.6 0-.3-.8s-.5-2.1-1.9-3c-1.3-.9-3-2.2-3.8-2.9-.8-.7-3.2-2.6-5.4-4.2-2.2-1.7-4.4-3.6-4.8-4.3-.4-.7-1.3-1.3-1.8-1.3-.6 0-1.7-.7-2.5-1.5s-2.4-2.1-3.5-2.9c-1.1-.8-2.2-2.1-2.3-3-.4-2.6-6.8-8.6-9.2-8.6-1.9 0-2.4.8-3.5 5.5zm29.8 24.7c-.3.8-.6.5-.6-.6-.1-1.1.2-1.7.5-1.3.3.3.4 1.2.1 1.9zm12 11.5c-.3 1-.5.4-.5-1.2 0-1.7.2-2.4.5-1.8.2.7.2 2.1 0 3zm42 34.5c-.3.7-.5.2-.5-1.2s.2-1.9.5-1.3c.2.7.2 1.9 0 2.5zm36 29c-.2 1.3-.4.5-.4-1.7-.1-2.2.1-3.2.4-2.3.2 1 .2 2.8 0 4zm20 15c-.3.8-.6.5-.6-.6-.1-1.1.2-1.7.5-1.3.3.3.4 1.2.1 1.9zm2 14c-.3.7-.5.2-.5-1.2s.2-1.9.5-1.3c.2.7.2 1.9 0 2.5zm7 1.5c-.3 1-.5.4-.5-1.2 0-1.7.2-2.4.5-1.8.2.7.2 2.1 0 3z"/><path d="M514 164.5c-1.3 5.2-1.2 5.7.7 7.5 1.6 1.5 2.2 3.7 2.8 10.2.4 4.6 1 9 1.4 9.9.6 1.6 6.7 6.6 41.2 33.9 7.3 5.8 18.1 14.3 24 19 5.9 4.7 15.3 12.1 21 16.5 5.6 4.4 15.2 11.9 21.2 16.7 6 4.9 11.2 8.8 11.6 8.8.4 0 1.7.9 2.9 2.1 2.1 1.9 2.3 2.8 2.1 15.2 0 8.6.8 20.7 2.5 34.7 1.4 11.8 4.1 35.1 6.1 51.7 1.9 16.7 5.1 43.8 7 60.3 1.9 16.5 5.1 43.6 7 60.2 2 16.7 4.9 41.5 6.5 55.3 1.7 13.7 3.9 33.1 5 43 1.1 9.9 2.7 23.4 3.5 30 .8 6.6 3.5 29.4 6 50.8 5.5 47.5 11.1 95.6 20.9 179.2 4.2 35.2 7.9 67.3 8.2 71.3.6 5.9 1 7.2 2.3 7 .9-.2 1.6-1 1.6-1.8-.1-5.4-2-31.4-4.5-60.5-1.6-18.7-3.1-37.8-3.5-42.5-.3-4.7-1.8-24.9-3.5-45-1.6-20.1-4.5-56.1-6.5-80-1.9-23.9-5.1-63.1-7-87-5-62.4-8.1-101.2-11.5-144.5-1.7-20.9-3.5-42.7-4-48.5-.5-5.8-2.1-24.7-3.4-42-1.4-17.3-3.5-43.9-4.6-59-1.4-17.8-2.7-28.6-3.6-30.5-1-2-1.4-5.6-1.3-10 .1-4.7-.3-8.3-1.4-10.9-1.3-3-1.4-4.2-.5-5.3.8-1.1.8-1.7-.1-2.6-.9-.9-1.4-.9-2.1.3-.8 1.2-1 1-1-.8 0-1.3-.6-2.2-1.6-2.2-.8 0-1.3-.4-.9-.9.3-.5-.3-1.2-1.3-1.5-1.6-.5-4.3-2.7-11-8.8-2-1.8-2.5-1.9-3.3-.7-.7 1.1-.9.9-.9-.9 0-1.3-.6-2.2-1.5-2.2-.8 0-1.5-.7-1.5-1.6 0-1-.6-1.4-1.5-1-.9.3-1.5 0-1.5-.8s-.9-1.6-2.1-1.9c-1.4-.4-1.8-1-1.3-1.8.5-.9.2-1-.9-.6s-1.7.1-1.7-.8c0-2.1-2.8-1.9-3.3.2-.3 1.5-.4 1.4-.4-.2-.1-3.9-.3-4.5-1.5-4.2-.7.1-1.2-.4-1-1.1.2-1-.4-1.1-1.9-.7-1.5.5-1.9.4-1.4-.5.4-.7-.1-1.3-1.3-1.7-1.1-.3-1.9-1-1.6-1.7.4-1.2-4.2-4.2-5.8-3.8-.5.1-.8-.5-.8-1.3s-.6-1.5-1.4-1.5c-.8 0-1.7-.7-2-1.6-.4-.9-1.3-1.4-2.1-1-.9.3-1.5 0-1.5-.9 0-.8-.7-1.5-1.5-1.5s-1.5-.7-1.5-1.6c0-.9-.5-1.4-1.2-1.2-.6.2-2.6-1-4.3-2.6-6.6-6.3-8.3-7.4-9.5-6.2-.9.8-1.1.7-.8-.5.4-1.8-6.7-8.3-8.2-7.4-.5.3-1 0-1-.8s-1.1-2.2-2.5-3.1c-2.9-1.9-3.2-2-3.8-.4-.2.7-.3.3-.1-.8.3-1.5-.4-2.7-2.1-3.8-2.9-1.9-3.2-2-3.8-.4-.2.7-.2.3-.1-.9.3-1.5-.2-2.4-1.6-2.8-1.1-.3-2-1.1-2-1.6s-.6-.9-1.4-.9c-.8 0-1.7-.7-2-1.6-.3-.8-1-1.3-1.5-1-.5.3-1.2-.1-1.5-1-.3-.8-1-1.2-1.6-.9-.5.3-1 0-1-.8 0-.7-1.7-2.7-3.7-4.3-2-1.6-4.2-3.5-4.9-4.2-.7-.6-1.7-1.2-2.3-1.2-.6 0-1.1-.4-1.1-.9 0-.4-1.9-2.1-4.2-3.6-4.8-3.2-8.8-7.3-8.8-9 0-1.8-6.7-7.5-8.9-7.5-1.3 0-2.1 1.4-3.1 5.5zm28.7 24.2c-.3 1-.5.4-.5-1.2 0-1.7.2-2.4.5-1.8.2.7.2 2.1 0 3zm-7 4c-.3 1-.5.2-.5-1.7s.2-2.7.5-1.8c.2 1 .2 2.6 0 3.5zm6 11.5c-.3.7-.5.2-.5-1.2s.2-1.9.5-1.3c.2.7.2 1.9 0 2.5zm15 .5c-.3 1-.5.4-.5-1.2 0-1.7.2-2.4.5-1.8.2.7.2 2.1 0 3zm6 11.5c-.3.8-.6.5-.6-.6-.1-1.1.2-1.7.5-1.3.3.3.4 1.2.1 1.9zm29 13.5c-.3 1-.5.4-.5-1.2 0-1.7.2-2.4.5-1.8.2.7.2 2.1 0 3zm-7 4c-.3 1-.5.2-.5-1.7s.2-2.7.5-1.8c.2 1 .2 2.6 0 3.5zm6 10.5c-.3.8-.6.5-.6-.6-.1-1.1.2-1.7.5-1.3.3.3.4 1.2.1 1.9zm23 5c-.3.8-.6.5-.6-.6-.1-1.1.2-1.7.5-1.3.3.3.4 1.2.1 1.9zm-7 3c-.3.8-.6.5-.6-.6-.1-1.1.2-1.7.5-1.3.3.3.4 1.2.1 1.9zm13 4.5c-.3 1-.5.2-.5-1.7s.2-2.7.5-1.8c.2 1 .2 2.6 0 3.5zm-7 5.5c-.3.8-.6.5-.6-.6-.1-1.1.2-1.7.5-1.3.3.3.4 1.2.1 1.9zm36 12c-.3.7-.5.2-.5-1.2s.2-1.9.5-1.3c.2.7.2 1.9 0 2.5zm-14 1c-.3.8-.6.5-.6-.6-.1-1.1.2-1.7.5-1.3.3.3.4 1.2.1 1.9zm7 2c-.3.8-.6.5-.6-.6-.1-1.1.2-1.7.5-1.3.3.3.4 1.2.1 1.9zm-10 1c-.3.8-.6.5-.6-.6-.1-1.1.2-1.7.5-1.3.3.3.4 1.2.1 1.9zm23 3c-.3.7-.5.2-.5-1.2s.2-1.9.5-1.3c.2.7.2 1.9 0 2.5zm-7 8c-.3.7-.5.2-.5-1.2s.2-1.9.5-1.3c.2.7.2 1.9 0 2.5zM881.5 169.4c-.4 2.5-.5 5.6-.2 6.8.4 1.2.1 4.1-.4 6.4-1.1 4.1-1 4.4 2.3 7.3 1.8 1.7 4.5 3.6 6.1 4.3 1.5.7 2.7 1.6 2.7 2 0 .3 1.6 1.6 3.5 2.8 2 1.2 4.1 2.7 4.8 3.3 2.8 2.7 21.2 17.1 21.5 16.9.1-.1 1.3.9 2.6 2.3s2.8 2.5 3.4 2.5c.6 0 1.2.3 1.4.8.2.4 3.5 3.3 7.3 6.5 10.2 8.5 10.4 8.7 11.4 8.7.5 0 1.2.7 1.5 1.6.4.9.9 1.4 1.2 1.1.3-.3 1.8.7 3.3 2.1 3.3 3.1 5.1 4.6 10.6 8.7 2.2 1.7 4.2 3.3 4.3 3.7.2.5.8.8 1.3.8s1.7.8 2.7 1.7c1 1 3.5 3.1 5.6 4.8 2.1 1.6 4.7 3.8 5.9 4.8 1.2 1 3.4 2.6 5 3.5 1.5.9 2.7 1.9 2.7 2.3 0 .3 1.8 1.8 4 3.3 2.2 1.4 4 2.4 4 2.1 0-.3.9.4 2 1.5s2 3.3 2 4.8.5 3.3 1.2 4c.9.9.9 1.2 0 1.2-.8 0-1.2 2.7-1.2 9 0 5-.4 9.8-.9 10.8-.6.9-6.8 20.4-14 43.2-7.1 22.8-21.8 69.6-32.6 104-10.8 34.4-25 79.8-31.7 101-6.6 21.2-16.2 52-21.4 68.5-14.1 44.9-15.8 50.2-22.9 73-3.6 11.5-8.1 25.7-9.9 31.5-1.9 5.8-8.2 26-14.1 45-12.4 39.7-29.9 95.4-34.9 111.5-2 6-6.3 19.7-9.6 30.2-3.3 10.6-6.1 19.6-6.1 20 0 .5.7.9 1.5 1.1 1 .2 1.6-.3 1.6-1.3 0-.9 7.7-24.5 17.1-52.3 9.4-27.9 17.7-52.7 18.4-55.2.7-2.5 18.5-55.6 39.5-118 52-154.8 58-172.7 99.7-297.5 33.7-100.9 36.5-109.6 36.9-117.2.3-6.1 0-9.3-1.1-12-.9-2.1-1.4-4.7-1.1-5.9.4-1.6-.1-2.6-2.2-4-1.5-.9-3.2-2.5-3.9-3.3-.7-.9-1.3-1.3-1.3-1 0 .4-1.6-.9-3.6-2.7-1.9-1.9-4.2-3.4-5-3.4-.8 0-1.3-.4-1-.9.7-1.1-7.2-6.4-8.4-5.6-.5.3-.7 0-.4-.8.3-.9-.8-2.2-2.8-3.5-1.8-1.2-2.9-2.2-2.4-2.2.6 0-1.1-1.3-3.7-3-2.6-1.6-4.7-3.4-4.7-4 0-.5-.7-1-1.5-1s-1.5-.5-1.5-1c0-.6-.7-1-1.5-1s-1.5-.7-1.5-1.5-.7-1.5-1.5-1.5-1.5-.7-1.5-1.5-.4-1.5-1-1.5c-.5 0-1.8-.8-2.8-1.8-2.7-2.5-5.5-4.7-6.7-5.2-.5-.2-1.8-1.4-2.8-2.7-1-1.3-2.3-2.3-2.8-2.3s-2.5-1.6-4.5-3.5c-1.9-1.9-3.9-3.5-4.4-3.5-.6 0-1-.5-1-1 0-.6-.7-1-1.5-1s-1.5-.7-1.5-1.5-.4-1.5-.9-1.5c-1 0-4-2.4-10.2-8.3-2.3-2-4.4-3.7-4.7-3.7-.6 0-5.2-4.1-15.9-14-1.8-1.7-3.5-3-3.8-3-.3 0-1.6-1.1-2.9-2.5-1.3-1.4-2.6-2.5-3-2.5-1 0-6.6-5.2-6.6-6.2 0-1.5 1.5-.7 5.6 3 2.2 2 6 5.3 8.4 7.2 2.4 1.9 5.8 4.7 7.5 6.1 1.6 1.4 6.6 5.5 11 9 4.4 3.6 9.1 7.4 10.5 8.6 1.4 1.2 9.7 8 18.5 15.3 8.8 7.2 16.9 13.9 18 14.8 1.1 1 8.3 6.9 16 13.2 7.7 6.3 14.5 11.9 15.1 12.5.6.5 5.9 4.8 11.6 9.5 12.4 10.1 14.5 12.8 15.8 20.5.9 5.5.8 6.3-2.4 13.4-1.9 4.2-7.5 19.7-12.5 34.6-5 14.8-16.3 48.4-25.1 74.5-8.9 26.1-20.1 59.4-25 74-4.9 14.6-16.2 47.9-25 74s-20.1 59.4-25 74c-4.9 14.6-16.1 47.9-25 74-8.8 26.1-20.1 59.4-25 74-4.9 14.6-16.1 47.9-25 74-23 67.9-30 89.3-30 90.9 0 .8-.7 2.3-1.6 3.2-1.5 1.7-1.5 2-.1 4.3 1.8 2.6 7.3 4.4 8.9 2.8.9-.9 23 3.3 62.8 11.9 20.3 4.4 44.6 6.2 54 4 6.6-1.6 7-1.8 14.7-10.4l7.9-8.7 6.4-17.5 6.4-17.4 7.6-.7 7.5-.6 3.8-4.8c3.7-4.8 3.7-4.8 3.7-14.4 0-10.2-.4-11-6.8-15.4-1.5-1-2.1-2-1.6-3.1 5-12.1 11.5-32.5 15.5-48.6 3.6-14.6 13.4-45.4 36.7-114.7 17.4-52.2 32.2-94.8 32.7-94.8.6 0 3.8-5.5 7.2-12.3 3.4-6.7 9.6-18.7 13.8-26.7 4.9-9.3 10.5-22.4 15.6-36.5l8.1-22 1.5-18.5c.8-10.2 1.2-20.8.9-23.5-.4-4.8 0-5.8 8.6-22 7.8-14.7 10.2-20.5 17.8-43 7.1-21.3 9-26 10.6-26.2 1-.1 4.8-.5 8.4-.8 6.5-.7 6.5-.7 10.1-5.8l3.6-5.2-.5-9.8-.5-9.7-4.8-3.7c-2.7-2-4.9-4.2-4.9-4.9 0-.6.7-3.1 1.5-5.4.8-2.3 1.5-7.5 1.5-11.5v-7.1l-5.5-6.4c-3-3.5-7-7.2-8.8-8.4-5.8-3.6-27.7-23-27.7-24.5 0-.8-1-4.1-2.2-7.5-2.7-7.7-10.5-16.9-28.2-33.3-13.1-12.2-13.1-12.2-24.6-16.7-7.7-2.9-14.5-4.8-20.4-5.6-4.9-.6-9.7-1.5-10.5-2-.9-.4-10.3-7.6-21-15.8l-19.4-14.9-15.1-3.6c-8.3-2-23.9-5.7-34.6-8.2-46.2-10.9-45-10.5-48.7-13.8-2.3-2.1-5.1-3.3-8.2-3.8-2.5-.4-6-1-7.8-1.4-3.1-.7-3.2-.7-3.8 3.9zm116.3 55.7c.3 1.7-2.3 2.9-4.5 2.2-.7-.3-1.3-1.4-1.3-2.4 0-1.6.6-2 2.7-1.7 1.6.2 2.9 1 3.1 1.9zm61 8.9c4.7 2.1 17 11.9 17.1 13.6.1.5-.5 1.8-1.2 2.8-1.2 1.7-1.7 1.7-5.2.5-4.7-1.7-21.8-17.1-20.1-18.1 1.9-1.3 4.9-.9 9.4 1.2zm35.6 31.2c1.4 2.3 2.3 4.4 2.1 4.7-.3.2-2.1-.9-4.2-2.4-2.1-1.6-3.9-2.9-4.1-3-.1-.1 0-1 .4-1.9 1-2.7 3.2-1.8 5.8 2.6zm-55.4 18.9c0 1.4-.4 1.1-4.1-2.8l-3.4-3.6 3.8 2.8c2 1.5 3.7 3.1 3.7 3.6zm-1.1 7.8c1 1.8.6 3.1-1 3.1-.3 0-.9-1.1-1.1-2.5-.6-2.9.7-3.3 2.1-.6zm24.5 78.2c3.8 15.4.2 26.7-10.8 33.6-6.9 4.4-13.4 11.2-15.3 16.1-1.2 3.1-1.8 7.3-1.8 12.4 0 4.6-.3 7.4-.9 6.8-1.6-1.6-.1-17.2 2.1-21.5 2.3-4.4 8.1-10.1 15.6-15.2 5.7-4 10.4-11 11.3-17.1.6-4.2.2-7-3.3-21.2-.4-1.7-.2-2.2.5-1.5.5.5 1.7 4 2.6 7.6zm107.5.5c2.4.5 3.1 1.2 3.1 3 0 2.3-.4 2.4-6 2.4-3.3 0-6-.3-6-.8.1-4.9 2.1-5.9 8.9-4.6zm-113.4 3.4c0 1.8-.6 2.6-2.3 2.8-2.4.4-3.8-1.8-2.8-4.4.3-.9 1.5-1.4 2.8-1.2 1.7.2 2.3 1 2.3 2.8zm2.1 10.7c-.9 7.4-3.1 11.8-7.3 14.4-1.9 1.2-3.6 1.9-3.9 1.6-.3-.2 1-1.3 2.9-2.4 4.1-2.5 6.7-7.7 6.7-13.5 0-4.1.5-5.8 1.8-5.8.3 0 .2 2.5-.2 5.7zm-30.6 12.9c0 2.4-.4 3.4-1.2 3.2-2.4-.8-2.2-6.8.2-6.8.5 0 1 1.6 1 3.6zm17.8 17.6c-6.5 6.4-8.1 13.3-5.4 23.6.7 2.9 1 5.2.6 5.2-2.4 0-3.8-14.2-2-20.6 1.3-4.5 7.8-12.4 10.2-12.4.5 0-1 1.9-3.4 4.2zm-8.2 30.3c.7 1.8-1.3 4.5-3.3 4.5-1.7 0-2.7-2.4-1.9-4.5.7-2 4.5-1.9 5.2 0zm-8 7.6c3 11.5 1.1 20.1-6 26.8-2 1.9-3.6 3.1-3.6 2.5 0-.5 1.5-2.3 3.2-3.9 6.4-6.2 8-13.3 5.3-23.5-.8-3-1.5-6.1-1.5-6.9 0-2.6 1.1-.4 2.6 5zm6.2 11.3c-.6 10.8-2.8 14.5-13.9 22.6-8.5 6.2-12.8 11.2-14.8 16.9-1.6 5-1.3 13.8.8 19.9 1 2.9 1.5 5.5 1.1 5.7-1.4.9-4.4-11.1-4.3-17.6 0-11.1 3.7-16.7 18.2-27.6 9.3-7 10.5-8.9 10.9-18.1.3-8.1.7-10.2 1.8-10.2.4 0 .5 3.8.2 8.4zm-19.3 33c-3.1 3.1-4.6 5.6-5 8.3-.4 2.1-1 4.9-1.5 6.3-.8 2.5-.8 2.5-.9.2-.2-5.3 2.3-11.6 6.1-15.4 2.1-2.1 4.2-3.8 4.8-3.8.5 0-1 2-3.5 4.4zm1.1 20.1c.8 2-1.3 4.5-3.7 4.5-1.3 0-1.9-.7-1.9-2.3 0-1.3.3-2.7.7-3 1.2-1.3 4.4-.7 4.9.8zm38 16.9c2.6 2.6 3.4 4.2 3.4 7 0 4.9-2.3 9.2-6 11.1-3.7 1.9-6.3 1.9-10 0-4.2-2.1-6-5.3-6-10.3 0-3.7.6-5 3.4-7.8s4.2-3.4 7.6-3.4c3.4 0 4.8.6 7.6 3.4zm28.5 1.2c1.1 1 2.4 3.4 3 5.4 3.3 11-10.4 19.2-18.5 11.1-2.6-2.7-3.1-3.9-3.1-8 0-3.9.5-5.5 2.4-7.5 4.4-4.7 11.7-5.1 16.2-1zm-87.3 10.5c8.1 1.9 9.2 2.4 9.2 4.3 0 4.4-1 4.6-11.1 1.8-9.6-2.7-10.4-3.3-9.5-6.5.5-2.1.2-2.1 11.4.4zm-2 8.1l9.3 2.2-.7 3.1c-.3 1.6-.7 3.1-.8 3.2-.6.8-20.1-5.7-20-6.6.5-5-.3-4.9 12.2-1.9zm-5.3 7.8c11.2 2.4 13.2 3.8 10.6 7.9-.8 1.2-2.5 1-10.8-1.4-5.4-1.5-9.9-2.8-10.1-3-.1-.1.3-1.4.9-2.9.8-1.7 1.8-2.5 2.8-2.2.9.3 3.9 1 6.6 1.6zm49.3 13.6c2.8 1.9 5.2 6.5 5.2 10 0 3.8-3.5 8.9-7 10.4-11.2 4.7-20.6-10.3-11.9-19 2.4-2.4 3.9-3 7.3-3 2.3 0 5.2.7 6.4 1.6zm30.1 3c7.4 6.2 4.6 18.3-4.6 20-12 2.2-18.4-14.3-8.1-20.6 4.6-2.8 9-2.6 12.7.6zm-70.9 3.9c0 .2-.5 1.6-1.2 3-1.1 2.4-2.2 3-7.3 3.7-1.2.2-2.3 1.5-2.9 3.7-.9 3-.7 3.6 1.2 4.9 2.6 1.7 2.7 3 .4 6l-1.8 2.3-8.4-6.2c-4.7-3.4-8.7-6.3-8.9-6.5-.2-.2.7-2.5 2-5.1l2.4-4.8 11-.6c6.1-.3 11.6-.6 12.3-.7.6-.1 1.2 0 1.2.3zm-23.2 27c4 .8 7.6 1.5 7.8 1.5.3 0 .4 1.4.2 3.1-.3 2.8-.9 3.4-5.8 5.1-7.4 2.7-7.9 3.5-3.1 4.3 4.7.8 5.4 1.5 4.6 4.8-.5 1.6-1.2 2.3-2.3 2.1-.9-.2-5.9-1.3-10.9-2.5l-9.3-2.1 1.5-2.7c1.4-2.8 3.2-3.8 10.8-6.1 4.5-1.4 4.1-2.6-1.3-3.5-2.2-.4-4.2-1.1-4.5-1.5-.9-1.5 1.9-5 3.5-4.5.8.2 4.8 1.1 8.8 2zm49.2 10.2c6.1 5.4 4.7 15.6-2.4 19-7.6 3.6-15.6-1.7-15.6-10.4 0-3.8.5-5 3.4-7.9 4.5-4.5 10.1-4.7 14.6-.7zm30.6 3.7c2.6 2.6 3.4 4.2 3.4 7 0 5.2-2.3 9-6.6 11.1-7.4 3.5-15.4-1.7-15.4-9.9.1-7.5 4.1-11.5 11.4-11.6 3 0 4.5.7 7.2 3.4zM968.2 636c5.9 4.6 6.3 14.4.8 19.2-2.5 2.3-3.9 2.8-8.5 2.8-5.2 0-5.7-.2-7.5-3.3-1.3-2-2-5-2-8.1 0-4.3.4-5.3 3.5-8.2 4.9-4.6 9.8-5.5 13.7-2.4zm41.4 26.4c2.9 2.9 3.4 4.1 3.4 7.9 0 11.5-14.2 15.9-20.1 6.3-4.8-7.8.5-17.6 9.4-17.6 3.1 0 4.6.7 7.3 3.4zm29.2 1.6c10.2 6.2 5.8 21-6.2 21-11 0-14.4-17.1-4.3-21.5 4.4-1.9 6.7-1.8 10.5.5zm-84 3.8c1.2.8 2.2 1.9 2.2 2.4 0 .7 1.6.8 4 .5 2.2-.3 4-.4 4-.2s-.4 1.5-1 2.9c-.6 1.8-1.9 2.7-4.5 3.2-3.8.7-4.7 2.9-1.5 3.9 2.3.7 2.7 4.3.6 5.1-1.2.4-18.3-4.1-19.5-5.2-.2-.2.7-3.2 2-6.8 3-8.6 6.9-10.3 13.7-5.8zm-5.4 27.3c6.2 7.4 4 16.5-4.9 19.9-7.3 2.8-13.5-1.8-13.5-10.1 0-6.3.6-7.5 4.9-10.4 5.2-3.6 10.2-3.4 13.5.6zm43.1 7.3c3.8 1.6 6.5 6 6.5 10.6 0 6.7-4.3 11-11 11s-11-4.3-11-11c0-4.5 2.4-8.5 6.2-10.3 4.1-2 5-2.1 9.3-.3zm31.5 5.3c5.9 5.3 4.8 15.3-2 18.8-3.7 1.9-6.3 1.9-10 0-4.2-2.1-6-5.3-6-10.3 0-3.7.6-5 3.4-7.8 4.5-4.5 10.1-4.7 14.6-.7zm-93.8 19.1c-2.1 3-2.4 4.1-1.8 6.7.9 3.6 3.3 4.2 6.2 1.5 1.6-1.6 2.4-3.4 2.4-5.7 0-3 .3-3.3 3-3.3 2.9 0 3 .1 3 4.7 0 3.4-.7 5.5-2.6 8-2.3 3-3 3.3-7.8 3.3-4.6 0-5.6-.4-8.5-3.4-2.9-3-3.2-3.7-2.5-7.2.4-2.2 2-5.1 3.6-6.8 2.7-2.7 3-2.8 4.6-1.2 1.4 1.3 1.4 2 .4 3.4zm50.8 21.9c6.2 5.5 4.8 15.3-2.6 18.8-3.1 1.4-4.3 1.5-7.5.6-5.3-1.6-7.9-5.2-7.9-11.2 0-4 .5-5.2 3.1-7.8 4.2-4.2 10.4-4.4 14.9-.4zm26.9-.3c3.3 1.8 5.1 5.4 5.1 10.5 0 7.5-6.8 12.4-14.1 10.2-5.4-1.6-8.2-6-7.6-12.1.9-8.2 9-12.5 16.6-8.6zM925 760.9c0 .4-1.8 2-4 3.5-15.5 10.3-19.2 19.8-13.5 35 4.7 12.6 3 22.8-5.6 32.1-5.8 6.2-6.2 4.9-.5-1.7 4.8-5.5 7.6-11.9 7.6-17.4 0-1.8-1.2-7-2.6-11.5-5.6-17.8-3-25.3 13-37.2 5.3-4 5.6-4.1 5.6-2.8zm-.5 12.1c0 1.8-.6 2.6-2.3 2.8-1.3.2-2.5-.3-2.8-1.2-1-2.6.4-4.8 2.8-4.4 1.7.2 2.3 1 2.3 2.8zm-12 6.6c-3.9 5.7-4.4 9.8-2 15.9.8 1.9.7 1.9-1.1.2-3.3-3.1-2.6-10.4 1.6-16.6 1.9-2.8 3.6-4.7 3.8-4.2.2.5-.9 2.6-2.3 4.7zm-8.1 33.3c0 7-2.8 12.7-8.6 17.4-5.3 4.2-6.8 5.1-6.8 4 0-.5 2-2.3 4.4-4 2.4-1.7 5.6-5.2 7.1-7.8 2.5-4.3 2.7-5.3 2.2-11.8-.5-5.6-.3-6.8.5-5.3.6 1.1 1.1 4.5 1.2 7.5zm-11 24.7c2 .8 2.1 3.8.1 5.4-1.2 1-1.8 1-3 0-1.8-1.5-2-4.6-.2-5.3.6-.3 1.3-.6 1.4-.6.1-.1.8.2 1.7.5zm5.4 8.5c-.2.6-2.4 2.2-4.8 3.6-9.4 5.1-13.7 12.9-12.5 22.7.4 3.7.3 4.7-.4 3.6-1.5-2.2-1.3-11.5.3-15.4 1.7-4.2 7-10.2 11.6-13.2 3.8-2.5 6.4-3.1 5.8-1.3zm64.7.9c20.3 1.7 20.3 1.7 22.1 5.2 2.5 4.8 1.1 14-2.9 18.5-2.2 2.6-3.6 3.3-5.1 2.8-1.2-.3-5.9-1.6-10.6-2.8l-8.5-2.2-7.7-11c-4.3-6-7.8-11.4-7.8-11.8 0-.5 1.9-.7 4.3-.3 2.3.3 9.6 1 16.2 1.6zm-77.5.9c0 .5-1.6 2.8-3.6 5.2-7.5 9-7.9 12.3-3.3 26.1 2.6 7.7 3 10.4 2.6 15.5-.5 7.3-4.3 14-10.4 19-4.5 3.5-10.3 6.7-10.3 5.6 0-.5 1.6-1.7 3.6-2.8 5.1-2.7 10.9-8.7 13.5-13.7 3.1-6.1 3-13.3-.5-23.6-3.7-11-3.4-18.2 1-23.7 1.6-2 3.6-4.8 4.4-6.1 1.5-2.4 3-3.2 3-1.5zm-9 45.2c0 4.8-3.4 12.9-5.9 13.7-.7.2.2-2.1 2-5.2 3.2-5.8 3.4-7.6 1.4-15.6l-.6-2.5 1.5 2.5c.8 1.4 1.5 4.6 1.6 7.1zm113.1 7c2 3.2 1 3.9-5.6 3.9-3.6 0-6.5-.2-6.5-.5 0-.2.5-1.6 1.2-3.1 1.1-2.4 1.6-2.6 5.6-2.1 2.5.3 4.8 1.1 5.3 1.8zM865.5 908c0 1.8-.6 2.6-2.3 2.8-2.4.4-3.8-1.8-2.8-4.4.3-.9 1.5-1.4 2.8-1.2 1.7.2 2.3 1 2.3 2.8z"/><path d="M1052.7 372.7c-1.4 1.3-.6 3.3 1.3 3.3 1.3 0 2-.7 2-2 0-1.9-2-2.7-3.3-1.3zM1033 447.1c0 1.4.5 1.9 1.7 1.7 2.6-.5 2.9-3.8.4-3.8-1.5 0-2.1.6-2.1 2.1zM1013 519c0 1.5.5 2 1.8 1.8.9-.2 1.7-1 1.7-1.8s-.8-1.6-1.7-1.8c-1.3-.2-1.8.3-1.8 1.8zM986.6 546.5c-.3.9 0 1.8.7 2 9.5 3.1 16.1 4.5 17 3.6 1.7-1.7-.1-2.8-7.3-4.6-3.6-.9-7.2-1.8-8.1-2.1-.9-.2-1.9.2-2.3 1.1zM984.5 554c-1.1 1.8.4 2.6 8.6 4.9 9.1 2.5 8.9 2.5 8.9.3 0-1.3-1.7-2.2-7.2-3.6-4-1-7.8-2.1-8.4-2.3-.7-.2-1.5.1-1.9.7zM981.5 563.1c-.9 1.4-.9 1.4 7.1 3.8 8.4 2.5 10.4 2.6 10.4.6 0-.8-1.7-1.9-4.2-2.5-2.4-.6-5.6-1.5-7.2-2-3.8-1.3-5.3-1.3-6.1.1zM978.7 584.7c-4.3.4-4.8.7-6.2 4-.8 1.9-1.3 3.9-1 4.4.3.4 3.8 3.1 7.7 5.9 6.3 4.4 7.3 4.8 8.2 3.3.7-1.2.3-2.1-1.4-3.5-2.1-1.7-2.2-2.1-1-6.3 1.1-3.8 1.7-4.5 3.7-4.5 2.9 0 6.3-1.7 6.3-3 0-1-6.3-1.1-16.3-.3zm3.9 3.6c.1.1 0 1.5-.3 3.1-.5 2.6-.8 2.8-4.1 2.3-4.5-.8-4.8-1.2-3.3-4.3 1-2.3 1.6-2.6 4.3-2 1.7.3 3.3.7 3.4.9z"/><path d="M976.7 588.7c-1.3 1.3-.7 3.1 1.4 3.6 2.4.7 3.9-2.1 1.8-3.4-1.7-1.1-2.4-1.1-3.2-.2zM964.5 609.9c-.7 1.3.1 1.7 6.8 3.1 3.1.6 5.7 1.5 5.7 1.9 0 .4-3.8 1.9-8.4 3.4-7.3 2.4-10.8 4.8-9.2 6.4.3.4 16.1 4.3 17.2 4.3.3 0 .4-.8.2-1.7-.2-1.2-2.3-2.2-6.8-3.3l-6.5-1.6 8.5-2.9c12.8-4.2 13.4-6.4 2.2-8.8-9.1-2-8.9-2-9.7-.8zM956.9 638.3c-4.4 2.9-5.8 8-3.8 13.4 3.7 9.7 18.9 4.6 18.9-6.4 0-1-1.1-3.5-2.5-5.6-2.1-3-3.2-3.7-5.9-3.7-1.8 0-4.8 1-6.7 2.3zm8.1 2.7c2.5 1.3 4.1 6.5 3 9.4-.5 1.3-2.2 2.8-3.8 3.4-2.4.8-3.5.6-6.1-1-3.5-2.3-4-5.2-1.6-9.8 1.6-3.2 4.9-3.9 8.5-2z"/><path d="M959.3 641.6c-.7.3-1.7 2.2-2.4 4.1-1.1 3.3-1 3.8 1.1 5.5 4.1 3.3 9 1.6 9-3.2 0-4.6-4-7.9-7.7-6.4zM945.2 668.3c-1.2 1.5-5.4 10.9-5 11.2 1.4 1.2 17.5 5.2 18.2 4.5 1.2-1.2-.2-3-2.5-3-4.3 0-1-5.7 3.5-6.2 1.6-.2 3.2-.9 3.4-1.7.3-1-.2-1.2-2.4-.8-2.2.4-3.4-.1-5.5-2.4-2.9-3.1-7.8-3.9-9.7-1.6zm6.8 2.2c1.9 2.3-.5 8.5-3.3 8.5-3.9 0-4.9-1.3-3.7-4.6 2.1-5.4 4.6-6.8 7-3.9z"/><path d="M947.6 672.2c-2 2.9-2 4.4 0 5.2.9.4 1.8.5 1.8.4 2-3.5 2.4-5.8 1.1-6.8-1-.8-1.7-.6-2.9 1.2zM938.5 694.5c-4.7 2.4-6.5 5.2-6.5 10 0 6.2 2.9 9.5 8.4 9.5s9.2-2.8 10.6-8c1.2-4.3.5-6.6-3.3-10.8-2.4-2.6-5-2.8-9.2-.7zm7 5c1.7 1.7 2.5 3.5 2.5 6 0 3.2-.4 3.8-3.5 5.1-3.2 1.3-3.8 1.3-6-.2-3.9-2.5-4.5-4.5-2.9-8.4 2.4-5.7 5.9-6.6 9.9-2.5z"/><path d="M938.1 700.4c-2.3 2.8-1.8 6.8 1.1 8.5 3.5 2 7.8.3 7.8-3.2 0-5.3-6-8.8-8.9-5.3zM926.3 725.5c-1.3.9-2.4 3.1-2.8 5.6-.6 3.6-.4 4.4 2.1 7 2.6 2.7 3.3 2.9 7.4 2.3 3.2-.4 5.2-1.4 6.7-3.2 2.2-2.6 3.1-8.1 1.6-9.5-1.1-1.1-3.3 1.4-3.3 3.7 0 3-4 6.6-7.3 6.6-2.2 0-2.8-.6-3.6-3.7-.8-3-.7-4.2.5-6.1 2.1-3.1 1.4-4.6-1.3-2.7zM920 773c0 1.3.7 2 2 2s2-.7 2-2-.7-2-2-2-2 .7-2 2zM890.3 839.6c-.8 2.1 1.3 4.2 2.8 2.7 1.3-1.3.5-4.3-1.1-4.3-.6 0-1.3.7-1.7 1.6zM861.5 907c-.8 1.4.3 3 2.1 3 .8 0 1.4-.9 1.4-2 0-2.1-2.4-2.8-3.5-1zM483.1 170.7c-1.5 5.3-1.4 8.4.4 9.7.8.6 1.8 3.9 2.2 7.6.8 6.4.8 6.5 6.3 10.3 3 2.1 6.5 4.7 7.8 5.7 1.2 1.1 2.6 2 3.1 2s1.2.7 1.5 1.6c.3.8 1 1.2 1.6.9.5-.3 1 0 1 .8 0 .7 1 1.8 2.3 2.4 1.2.6 4.1 2.7 6.4 4.8 2.3 2 4.4 3.6 4.7 3.6.4-.1 1.7 1 3 2.4s2.8 2.5 3.4 2.5c.6 0 1.2.4 1.4.9.2.5 3.7 3.5 7.8 6.7s7.7 6.2 7.8 6.6c.2.4.8.8 1.3.8s1.8.8 2.8 1.7c4.4 4.1 7 6.2 13.6 11.2 3.9 3 7.2 5.7 7.3 6.2.2.5 1 .9 1.8.9s1.4.4 1.4.8c0 .5 2.1 2.4 4.8 4.2 2.6 1.9 4.9 3.8 5 4.2.2.4.8.8 1.3.8.6 0 2 1.1 3.3 2.5 1.3 1.4 2.6 2.5 3 2.5.3 0 1.6.9 2.8 1.9 3.5 3 6.4 5.4 9.9 8.1 1.8 1.4 3.7 2.9 4.3 3.5.6.5 2.4 1.7 4 2.5 4.9 2.5 5.4 4.3 4.6 17-.6 9-.4 14.1 1.1 23.5 1 6.6 3.2 21.4 4.9 33 3 20.6 6.5 44 13.5 91.3 2 13 5.1 34 7 46.7 1.9 12.6 5 33.8 7 47 2 13.2 5.1 34.3 7 47 1.9 12.6 5 33.6 6.9 46.5 3.7 24.5 8.3 55.3 14.1 94.5 1.9 12.6 5.3 35.1 7.5 50 2.2 14.8 5.4 36 7 47 1.6 11 4.8 32.1 7 47 4.1 27.3 10 67.5 10 68 0 .2 1.5.5 3.4.7 3.2.3 3.3.2 2.6-2.2-.4-1.5-1.3-7.6-1.9-13.6-.7-6-2.6-22.2-4.2-35.9-1.6-13.8-3.2-27-3.4-29.5-.3-2.5-2.1-17.8-4-34-2-16.2-5.2-42.6-7.1-58.5-1.9-16-5-41.6-6.9-57-1.9-15.4-5-41.3-7-57.5-1.9-16.2-5.1-42.1-7-57.5-1.9-15.4-5.2-42.9-7.4-61-2.2-18.2-5.9-47.9-8.1-66-2.2-18.2-7.3-60.7-11.5-94.5-4.1-33.9-7.5-62.8-7.5-64.2 0-1.5-.7-3.3-1.5-4.2-1.1-1.1-1.5-3.7-1.5-9.9 0-5.6-.4-8.7-1.2-8.9-.6-.2-1.1-2.4-1.1-5.1 0-3-.5-4.7-1.3-4.7-.6 0-1.4-.7-1.8-1.5-.7-2-2.4-1.9-2.9.2-.2 1-.3.6-.1-1 .2-1.8-.1-2.7-1-2.7-.7 0-1.9-.7-2.6-1.5-.7-.8-1.7-1.2-2.3-.8-.6.3-.7.1-.3-.6.4-.6 0-1.4-1.1-1.8-1-.3-2.2-1.3-2.6-2-.5-.7-1.2-1.1-1.8-.8-.5.4-.9-.1-.9-.9 0-.9-.6-1.6-1.4-1.6-.8 0-1.6-.7-2-1.5-.3-.8-1.2-1.2-2.1-.9-1.1.4-1.5 0-1.5-1.6 0-1.9-.2-2-1.5-1-1.3 1.1-1.4 1-.9-.4.5-1.2 0-1.6-1.6-1.6-1.5 0-2-.5-1.7-1.4.8-2-.4-2.8-2-1.4-1.1.8-1.2.7-.7-.6.6-1.4-.5-2.1-2.8-1.7-.5 0-.8-.6-.8-1.5 0-1-.6-1.4-1.5-1-1 .4-1.5-.1-1.5-1.5s-.5-1.9-1.4-1.6c-.8.3-1.7-.1-2-.9-.3-.9-1-1.2-1.6-.9-.5.3-1-.3-1-1.4 0-2.4-1-2.7-2.9-.9-1 1.1-1.1 1-.6-.3.7-1.9-4.1-6.3-5.8-5.2-.6.3-.7.1-.3-.6.4-.6 0-1.4-1.1-1.8-1-.4-2.4-1.3-3.2-2.1-1.3-1.3-1.6-1.2-2.3.4-.6 1.4-.7 1.1-.3-.9.4-2 .1-2.7-1-2.7-.9 0-1.8-.7-2.1-1.5-.7-1.8-2.1-2-2.7-.3-.2.7-.3.5-.2-.4.3-1.6-4.2-5.5-5.7-5-.5.1-.8-.5-.8-1.4 0-1-.6-1.4-1.5-1-.9.3-1.5 0-1.5-.9 0-.8-.7-1.5-1.5-1.5s-1.5-.7-1.5-1.6c0-1-.6-1.4-1.5-1-.9.3-1.5 0-1.5-.9 0-.8-.7-1.5-1.5-1.5s-1.5-.6-1.5-1.4c0-2.1-3-2.9-3.1-.8-.1 1.1-.4.8-.8-.8-.4-1.4-1.3-2.4-1.9-2.2-.7.1-1.1-.4-1-1 .2-.7-.4-1.3-1.2-1.3-.8 0-1.8-.8-2.2-1.8-.4-1-1.2-1.5-1.8-1.2-.5.3-1-.1-1-.9 0-.9-.7-1.6-1.5-1.6s-1.5-.5-1.5-1c0-.6-.4-1-.9-1-.6 0-2.2-1.1-3.7-2.5s-3.4-2.3-4.1-2c-.8.3-1.1 0-.7-.6.7-1.3-4.8-6.5-14.1-13.3-2.2-1.6-5.1-4-6.5-5.3-1.4-1.3-2.8-2.3-3.2-2.3-.5 0-.8-.8-.8-1.9 0-2.1-7.2-9.1-9.5-9.1-.8 0-1.9 1.6-2.4 3.7zm24.6 25.5c-.3.7-.5.2-.5-1.2s.2-1.9.5-1.3c.2.7.2 1.9 0 2.5zm-7 4c-.3.7-.5.2-.5-1.2s.2-1.9.5-1.3c.2.7.2 1.9 0 2.5zm13 3c-.3.7-.5.2-.5-1.2s.2-1.9.5-1.3c.2.7.2 1.9 0 2.5zm15 11.5c-.3 1-.5.4-.5-1.2 0-1.7.2-2.4.5-1.8.2.7.2 2.1 0 3zm6 11.5c-.3.8-.6.5-.6-.6-.1-1.1.2-1.7.5-1.3.3.3.4 1.2.1 1.9zm22 17.5c-.3 1-.5.2-.5-1.7s.2-2.7.5-1.8c.2 1 .2 2.6 0 3.5zm6 5.5c-.3.7-.5.2-.5-1.2s.2-1.9.5-1.3c.2.7.2 1.9 0 2.5zm23 10c-.3.8-.6.5-.6-.6-.1-1.1.2-1.7.5-1.3.3.3.4 1.2.1 1.9zm-7 3c-.3.8-.6.5-.6-.6-.1-1.1.2-1.7.5-1.3.3.3.4 1.2.1 1.9zm13 3.5c-.3 1-.5.4-.5-1.2 0-1.7.2-2.4.5-1.8.2.7.2 2.1 0 3zm6 5.5c-.3.8-.6.5-.6-.6-.1-1.1.2-1.7.5-1.3.3.3.4 1.2.1 1.9zm16 11c-.3.8-.6.5-.6-.6-.1-1.1.2-1.7.5-1.3.3.3.4 1.2.1 1.9zm-7 3c-.3.8-.6.5-.6-.6-.1-1.1.2-1.7.5-1.3.3.3.4 1.2.1 1.9zm13 3.5c-.3 1-.5.4-.5-1.2 0-1.7.2-2.4.5-1.8.2.7.2 2.1 0 3zm6 11.5c-.3.8-.6.5-.6-.6-.1-1.1.2-1.7.5-1.3.3.3.4 1.2.1 1.9z"/><path d="M454.9 177.6c-1.2 5.1-1.1 5.8.5 7 1.3.9 2.1 3.8 3 10.9.7 5.2 1.7 9.9 2.2 10.3.5.5 3.1 2.6 5.8 4.8 6.5 5.1 15.3 12.3 24.6 19.9 4.1 3.4 15.6 12.6 25.5 20.6 9.9 7.9 18.5 14.8 19.1 15.4 1.4 1.3 6.4 5.3 19.4 15.6 5.8 4.6 10.7 8.6 11 8.9.7.8 15.3 12.1 18.4 14.3 2.5 1.7 2.6 2.2 2.6 11.6 0 6.4.8 13.9 2.4 21.7 1.3 6.6 2.7 13.9 2.9 16.4.3 2.5 1.9 11.9 3.6 21 3.4 18.1 7.1 38.6 12.6 70 2 11.3 5 27.7 6.6 36.5 1.5 8.8 6.7 37.6 11.4 64s9.7 53.8 11 61c1.3 7.1 3.1 17.3 4 22.5.9 5.2 2.7 15.3 4 22.5 1.3 7.1 4 22 6 33 4 22.5 9 50 14 77.5 1.8 10.2 4.9 27.3 6.9 38 1.9 10.7 5.1 28.5 7.1 39.5s5.2 28.5 7 39c1.9 10.4 5.2 28.7 7.4 40.5s4.3 23.7 4.7 26.5c.4 2.7 1.4 5.5 2.3 6.2 3.4 2.5 3.4 1.5-.4-22.2-1.3-8.3-2.7-17.5-3-20.5-.3-3-1.7-12.5-3-21s-4.5-29.5-7-46.5c-6.5-44.4-12.2-82.6-15-100.5-1.4-8.5-3.1-20.5-4-26.5-.8-6.1-2.6-18.2-4-27-2.8-18.5-7.9-51.8-12.9-85.5-3.5-23.3-8-52.5-13.6-90-1.6-10.7-5.2-34.6-8-53s-6.4-42.3-8-53c-1.6-10.7-5.2-34.6-8-53-2.7-18.4-5.4-34.3-6-35.3-.6-.9-1-5.2-.9-9.5.1-5.5-.4-8.8-1.5-11.1-1.2-2.3-1.4-3.6-.6-5 .8-1.6.6-2.1-.8-2.5-.9-.3-3.5-2.2-5.7-4.1-2.1-2-4.6-3.3-5.3-3-.9.3-1.2 0-.9-.9.7-1.7-3.8-5-5.5-4-.8.5-.9.2-.5-.9.6-1.5.3-1.8-1.8-1.7-.3 0-1.6-1.1-2.9-2.5-2.7-2.9-4.3-3.2-5-.8-.3 1.1-.4.7-.3-.7.1-1.5-.8-3.6-2-5l-2.2-2.3-1.1 2.4-1 2.4.5-2.6c.4-2.1-.1-3.1-2-4.3-1.4-.9-3-1.4-3.5-1.1-.6.3-1-.1-1-.9 0-.9-.7-1.6-1.5-1.6s-1.4-.6-1.2-1.3c.1-.6-.6-1.1-1.5-1.1-1.2.1-1.8-.5-1.8-1.8 0-1.4-.5-1.8-1.6-1.4-.9.3-1.2.2-.9-.5.4-.6-.2-1.3-1.3-1.6-1.1-.3-2.3-1.1-2.6-1.9-.7-1.9-2.3-1.8-3 .3-.3 1-.4.6-.2-1 .3-2.4-.4-3.2-2.6-2.8-.5 0-.8-.6-.8-1.4 0-.8-.6-1.5-1.4-1.5-.8 0-1.7-.7-2-1.6-.4-.9-.9-1.4-1.2-1.1-.4.3-1.8-.7-3.3-2.2-1.4-1.5-4.2-3.8-6.1-5.2-1.9-1.3-4.7-3.6-6.1-5.1-2.1-2-2.9-2.4-3.9-1.5-.9.9-1.1.7-.8-.8.2-1.4-.2-2-1.4-1.9-1 .1-1.8-.4-1.8-1.1 0-.7-1.2-2-2.6-3-1.4-.9-3.3-2.4-4.3-3.3-3.7-3.5-7.5-6.1-8.3-5.6-.4.3-.8-.2-.8-1 0-.9-.6-1.6-1.4-1.6-.8 0-1.7-.7-2-1.6-.4-.9-.9-1.4-1.2-1.1-.3.3-2.3-1.2-4.4-3.4-2.1-2.1-4.1-3.9-4.4-3.9-.4 0-1.7-1.1-3-2.5s-2.8-2.5-3.5-2.5c-.6 0-1.1-.4-1.1-.9 0-.4-1.9-2.1-4.2-3.6-4.8-3.2-8.8-7.3-8.8-9 0-1.9-6.8-7.5-9-7.5-1.4 0-2.1 1.2-3.1 5.6zm24.8 28.6c-.3.7-.5.2-.5-1.2s.2-1.9.5-1.3c.2.7.2 1.9 0 2.5zm6 6.5c-.3 1-.5.4-.5-1.2 0-1.7.2-2.4.5-1.8.2.7.2 2.1 0 3zm22 8.5c-.3.7-.5.2-.5-1.2s.2-1.9.5-1.3c.2.7.2 1.9 0 2.5zm-7 3c-.3.8-.6.5-.6-.6-.1-1.1.2-1.7.5-1.3.3.3.4 1.2.1 1.9zm13 4c-.3.7-.5.2-.5-1.2s.2-1.9.5-1.3c.2.7.2 1.9 0 2.5zm-7 9.5c-.3 1-.5.2-.5-1.7s.2-2.7.5-1.8c.2 1 .2 2.6 0 3.5zm6 4.5c-.3.8-.6.5-.6-.6-.1-1.1.2-1.7.5-1.3.3.3.4 1.2.1 1.9zm23 2.5c-.3 1-.5.2-.5-1.7s.2-2.7.5-1.8c.2 1 .2 2.6 0 3.5zm6 5.5c-.3.8-.6.5-.6-.6-.1-1.1.2-1.7.5-1.3.3.3.4 1.2.1 1.9zm-13 2.5c-.3 1-.5.4-.5-1.2 0-1.7.2-2.4.5-1.8.2.7.2 2.1 0 3zm6 6.5c-.3.7-.5.2-.5-1.2s.2-1.9.5-1.3c.2.7.2 1.9 0 2.5zm29 16.5c-.3 1-.5.4-.5-1.2 0-1.7.2-2.4.5-1.8.2.7.2 2.1 0 3zm6 5.5c-.3.8-.6.5-.6-.6-.1-1.1.2-1.7.5-1.3.3.3.4 1.2.1 1.9zm16 11c-.3.8-.6.5-.6-.6-.1-1.1.2-1.7.5-1.3.3.3.4 1.2.1 1.9zm13 4.5c-.3 1-.5.2-.5-1.7s.2-2.7.5-1.8c.2 1 .2 2.6 0 3.5zm-20-1.5c-.3.8-.6.5-.6-.6-.1-1.1.2-1.7.5-1.3.3.3.4 1.2.1 1.9zm13 3.5c-.3 1-.5.4-.5-1.2 0-1.7.2-2.4.5-1.8.2.7.2 2.1 0 3z"/><path d="M431.5 185c-.3.5-.9 3.3-1.2 6.1-.5 4-.3 5.5.9 6.3 1 .7 1.9 4.6 2.7 12.1 1.2 10.7 1.3 11.1 4.7 14.1 1.9 1.8 7.9 7.4 13.2 12.5 10.3 9.9 14.6 14 46.2 43.9 10.7 10.1 23 21.8 27.3 25.9 4.3 4.2 8.1 7.7 8.5 7.8.4.1 2.3.4 4.4.7 3.6.6 3.7.8 7.8 11.4 2.3 5.9 4.5 12.7 5 15.2s3.7 16.2 7 30.5c3.4 14.3 7.4 31.6 9 38.5 1.6 6.9 4.7 20.4 7 30 2.3 9.6 5.2 22.2 6.5 28 1.3 5.8 4.2 18.4 6.5 28 2.2 9.6 6.8 29 10 43 3.3 14 9.1 39.2 13 56 12.7 54.6 16.4 70.5 25.5 110 5.8 25.5 11.5 49.6 16.5 71 1.6 6.9 4.8 20.4 7 30 2.2 9.6 5.4 23.1 7 30 1.6 6.9 5.9 25.1 9.5 40.5 3.6 15.4 8.4 35.4 10.5 44.5 2.1 9.1 4.7 20 5.6 24.3 1.4 6 2.1 7.7 3.3 7.5 1.9-.4 2 .9-1.8-19.3-1.7-8.8-4.6-24.6-6.5-35-2-10.5-4.9-26.2-6.5-35-1.7-8.8-5.1-27.3-7.6-41-2.5-13.8-5.4-29.5-6.5-35-1.1-5.5-4.4-23.7-7.5-40.5-3.1-16.8-6.7-36.1-8-43-1.3-6.9-4-21.3-6-32s-5.1-27.6-7-37.5c-1.8-9.9-5-26.8-7-37.5-8.2-44.5-14.8-79.9-20.9-112-1.9-10.2-5.1-27.3-7.1-38-5.1-27.4-11.1-59.9-14.5-77.5-1.6-8.3-3.6-19.5-4.5-25-1-5.5-2.3-11.4-3-13.1-.8-2-1.1-5.5-.8-9.6.4-4.3.2-6.8-.6-7.2-.6-.4-1.1-1.8-1.1-3.1s-.5-2.7-1-3c-.7-.4-.7-1.2 0-2.5 1.3-2.5 1.3-3-.4-3-.8 0-1.7-.7-2-1.6-.3-.9-1.3-1.4-2.1-1.1-.9.4-1.2.1-.8-.9.5-1.2-.2-1.6-2.4-1.3-.3 0-1-.6-1.5-1.5s-1.4-1.3-2-1c-.7.5-.9.2-.5-.9.7-1.8-1.9-3.2-2.7-1.4-.2.7-.5.1-.5-1.2-.1-1.5-.6-2.1-1.5-1.8-.9.4-1.6-.3-2-1.6-.3-1.2-.8-1.8-1.2-1.5-.3.4-1.9-.7-3.4-2.4-2.6-2.8-2.9-2.9-3.9-1.2-1.1 1.7-1.1 1.7-.6-.4.5-1.6.2-2.2-.9-2.2-.9 0-1.6-.6-1.6-1.3 0-1.3-7.3-6.7-9.1-6.7-.4 0-.6-.7-.3-1.5.7-1.8-.7-2-2.3-.4-.8.8-1.1.6-1-.7.1-1.1-.4-1.8-1-1.7-.7.2-1.3-.6-1.3-1.7s-.6-2-1.4-2c-.7 0-1.9-.7-2.6-1.5-.7-.8-1.6-1.3-2-1-.4.3-1.1-.2-1.4-1.1-.3-.8-1-1.2-1.6-.9-.5.3-1 0-1-.7-.1-1.7-4.7-5.1-6-4.3-.6.3-.7-.1-.4-.9.3-.9.1-1.6-.5-1.6-.7 0-2.2-1.1-3.5-2.5-2.7-2.9-4.3-3.2-4.9-.8-.2 1-.3.6-.2-.9.2-2.9-3.6-6.5-5.5-5.3-.6.3-.7-.1-.4-.9.3-.9.1-1.6-.6-1.6-.6 0-1.8-.7-2.7-1.5-.8-.8-1.8-1.3-2.3-1-.4.3-.7-.3-.6-1.3 0-1-.6-1.6-1.6-1.6-1 .1-1.5-.2-1.2-.7.3-.5-.3-1.2-1.3-1.6-.9-.4-2.7-1.7-3.9-3-1.2-1.3-2.6-2.3-3.3-2.3-.6 0-1.1-.5-1.1-1 0-.6-.7-1-1.5-1s-1.5-.6-1.5-1.3c0-.6-1.2-2-2.6-3.1-2.2-1.5-2.8-1.6-3.6-.5-.7 1.1-.8 1.1-.6-.3.3-1.8-4-6.1-5.4-5.2-.4.3-.7 0-.6-.8.2-.7-.3-1.2-.9-1.1-.7.2-1.3-.3-1.3-1s-1-2.1-2.1-3.1c-1.8-1.5-2.3-1.5-3-.5-.6 1-.9.8-.9-.7 0-1.2-1.2-2.9-2.6-3.9-1.4-.9-3.4-2.4-4.4-3.3-1-.9-3.4-3.2-5.4-5-2-1.8-3.6-3.9-3.6-4.6 0-1.7-6.6-7.6-8.5-7.6-.7 0-1.7.4-2 1zm26.2 39.7c-.3 1-.5.4-.5-1.2 0-1.7.2-2.4.5-1.8.2.7.2 2.1 0 3zm21 7.5c-.3.7-.5.2-.5-1.2s.2-1.9.5-1.3c.2.7.2 1.9 0 2.5zm-13 0c-.3.8-.6.5-.6-.6-.1-1.1.2-1.7.5-1.3.3.3.4 1.2.1 1.9zm6 5.5c-.3 1-.5.4-.5-1.2 0-1.7.2-2.4.5-1.8.2.7.2 2.1 0 3zm22 13.5c-.3.8-.6.5-.6-.6-.1-1.1.2-1.7.5-1.3.3.3.4 1.2.1 1.9zm6 6c-.3.7-.5.2-.5-1.2s.2-1.9.5-1.3c.2.7.2 1.9 0 2.5zm22 12.5c-.3 1-.5.4-.5-1.2 0-1.7.2-2.4.5-1.8.2.7.2 2.1 0 3zm-7 1.5c-.3.8-.6.5-.6-.6-.1-1.1.2-1.7.5-1.3.3.3.4 1.2.1 1.9zm13 8c-.3.8-.6.5-.6-.6-.1-1.1.2-1.7.5-1.3.3.3.4 1.2.1 1.9zm15 15.5c-.3 1-.5.4-.5-1.2 0-1.7.2-2.4.5-1.8.2.7.2 2.1 0 3zm13 4.5c-.3.8-.6.5-.6-.6-.1-1.1.2-1.7.5-1.3.3.3.4 1.2.1 1.9zm15 16.5c-.3 1-.5.2-.5-1.7s.2-2.7.5-1.8c.2 1 .2 2.6 0 3.5z"/><path d="M405 199.1c-1.1 2.5-1.1 5.7-.1 16.8l1.2 13.6 7.2 6.9c6.5 6.3 43.3 42 77.7 75.4 9.3 9 14.2 13.1 15.8 13.2 4.6 0 6 1.9 10.6 13.8 5.1 13.1 5.5 14.4 9.1 28.1 1.4 5.1 5.2 19.3 8.5 31.5 7.4 26.7 9.6 35 24.5 90.1 6.4 23.6 13.4 49.3 15.5 57 2.1 7.7 6.6 24.1 10 36.5 3.3 12.4 7.9 29 10.1 37 2.2 8 5.6 20.3 7.5 27.5 2 7.1 4.6 16.9 5.9 21.6 1.4 4.7 3.1 11 3.9 14 1.5 6 11.2 41.5 18.1 66.4 8.7 31.6 16.8 61.1 17.5 64 .4 1.6 3.5 12.9 6.8 25s11.3 41.1 17.7 64.5c15.8 58.1 14.4 53.3 15.9 52.1 1-.8.6-3.6-1.9-13.8-1.8-7.1-4.9-20-6.9-28.8s-5.2-22.5-7.1-30.5c-1.9-8-5-21.5-7-30s-4.9-21.1-6.5-28c-1.6-6.9-4.7-20.2-6.9-29.5-20-85.2-24.3-103.8-29.7-126.8-1.9-8.3-5.3-22.6-7.4-31.7-2.1-9.1-6.8-29.1-10.5-44.5-8.3-35.3-11.4-48.7-16.4-70-2.2-9.4-7.2-30.5-11.1-47-3.9-16.5-8.4-35.6-10-42.5-4.8-20.4-11.6-49.3-16-68.5-3-12.7-4.8-18.5-6.2-19.7-1-.9-2.7-4.1-3.7-7-2.7-7.9-5.8-13.6-8.1-14.8-1.6-.8-1.8-1.5-1-3.4.7-1.9.5-2.6-.8-3.2-.9-.4-2-.6-2.4-.6-.5.1-.8-.3-.8-1 0-1.2-5.9-6.8-7.2-6.8-.4 0-.8-.6-.8-1.3 0-1.3-4-4.3-5.2-3.9-.4.1-.5-.5-.2-1.3.4-.9 0-1.5-.9-1.5-.8 0-1.8-.7-2.1-1.6-.3-.8-1-1.2-1.6-.9-.5.3-1-.2-1-1.2s-1.4-2.7-3-3.7c-1.7-.9-2.8-2.2-2.5-2.7.4-.5-.1-.9-.9-.9-.9 0-1.6-.5-1.6-1 0-.6-.7-1-1.5-1s-1.5-.5-1.5-1c0-.6-.7-1-1.5-1s-1.5-.9-1.5-1.9c0-1.7-2.5-3.6-4.2-3.3-.5.1-.8-.7-.8-1.8 0-2-1.4-2.7-2.3-1.3-.2.5-.3.3-.1-.3.1-.7-2-3.1-4.7-5.5s-7.4-6.8-10.4-9.7c-2.9-2.8-5.7-5.2-6.2-5.3-.4 0-2.5-2.1-4.5-4.5-2.1-2.5-3.8-4.3-3.8-4 0 .3-.9-.3-2-1.4-1.1-1.1-2-2.5-2-3 0-.6-.4-1-1-1-.5 0-2.6-1.6-4.6-3.5-1.9-1.9-4-3.5-4.5-3.5s-.9-.6-.9-1.3c0-1.3-4-4.3-5.2-3.9-.5.1-.8-.4-.8-1.1 0-.7-5.9-7-13-14-7.2-7.1-13.5-13.7-14-14.8-1.6-2.8-3.6-2.3-5 1.2z"/><path d="M378.7 209.6c-1.7 3.8-1.7 4.2.8 15.9 1.5 6.6 2.8 13 2.9 14.3.2 1.5 16.7 18.2 49.2 49.8 26.9 26.1 50.2 48.4 51.8 49.4 3.6 2.3 12.5 20.6 12.6 25.8 0 1.8 1.1 6.8 2.4 11 11.8 37.2 17.3 54.9 30.1 95.7 8.1 25.8 19.1 60.9 24.5 78 5.4 17 11.8 37.5 14.3 45.5s10.4 32.9 17.5 55.5c7.2 22.5 14.9 47.3 17.2 55 5.3 17.7 7.3 24.2 15.3 49.5 3.6 11.3 9.1 28.8 12.2 39 3.2 10.2 8.3 26.6 11.6 36.5 3.2 9.9 8.7 27.7 12.3 39.5 6.1 20.1 28.4 88 29.2 88.9.3.3.9 0 1.4-.5.7-.7-3.9-18.7-13.5-53-8-28.5-16.6-59.3-19.1-68.4-2.5-9.1-5.9-21-7.4-26.5-1.6-5.5-4.5-15.7-6.4-22.8-3.3-11.9-5.3-18.8-14-50-11.7-41.6-64.1-225.7-71.2-250.2-1.9-6.6-5.1-17.6-7.1-24.5-1.9-6.9-5.2-18.4-7.3-25.5-6.2-21.5-9.7-34.3-13.5-49-6.8-26-8.2-31-10.2-35.5-1.1-2.5-3-7.3-4.3-10.8-1.3-3.5-3.6-7.7-5.2-9.3-1.9-1.9-2.8-3.5-2.4-4.6.4-1.1-1-3.1-4.3-6.4-2.8-2.7-5.5-4.9-6.1-4.9-.5 0-1-.4-1-1 0-1.5-9.1-10-10.1-9.4-.5.3-.9-.4-.9-1.5 0-1.5-.4-1.9-1.7-1.4-1.1.4-1.4.3-.9-.5.4-.7.1-1.5-.8-1.8-.9-.3-1.6-1.3-1.6-2.1 0-.9-.6-1.3-1.5-.9-.8.3-1.4.2-1.3-.2.4-1.1-3.5-5.2-4.4-4.6-.4.3-.8-.4-.8-1.5 0-1.4-.9-2.3-2.5-2.7-1.6-.4-2.5-1.3-2.5-2.5 0-1-.5-1.9-1-1.9-.6 0-2-1.1-3.2-2.5-1.2-1.4-2.8-2.5-3.5-2.5-.7 0-1.3-.7-1.3-1.5s-.5-1.5-1.1-1.5c-1.4 0-3.9-2.5-3.9-3.9 0-.6-.7-1.1-1.5-1.1s-1.5-.7-1.5-1.5-.4-1.5-.8-1.5c-.5 0-1.9-1-3.2-2.3-1.4-1.2-2.8-2.1-3.2-2-.5.2-.8-.2-.8-.8 0-1.4-6.1-7.5-7.2-7.1-.4.1-.7-.2-.6-.7.3-1-6.1-7.1-7.4-7.1-.4 0-.8-.7-.8-1.5s-.3-1.5-.8-1.5c-.4 0-2.5-1.8-4.7-3.9-2.2-2.2-4.3-3.7-4.7-3.4-.5.2-.8-.2-.8-.9s-5.3-6.6-11.7-12.9c-6.5-6.4-13.2-13.4-14.8-15.4l-3.1-3.8-1.7 3.9z"/><path d="M343.8 213.1c-.3 2.1-.7 2.3-5 2l-4.8-.3v4.1c0 3.9-.1 4.1-3.2 4.1-1.7 0-11.5 3.6-21.7 7.9-10.2 4.4-33 13.8-50.6 21.1-40 16.4-69.6 28.6-75.5 31.1-2.5 1-9.7 4.5-16.1 7.6-8.9 4.5-11.8 6.4-12.6 8.5-1 2.4-1.7 2.8-5 2.9-3.5 0-4.2.5-10.1 8-4.9 6.1-6.3 8.6-6 10.7.2 2.2.9 2.8 3.6 3 4.2.4 4.1 1.9-.2 2.7-4.2.8-11.2 8.6-18.7 20.9-4.4 7.3-7.1 10.4-15.2 17.2-11.4 9.7-20.3 14.8-41.3 23.7-8.3 3.5-23.8 10.4-34.4 15.3-18.8 8.7-19.3 9-23.2 14.4-4 5.5-4 5.5-3.4 12.6.7 9.5 3.6 23.5 5.1 25.4 1 1.2 10.1 26.3 26.6 73.5 1.5 4.4 5.1 14.5 7.9 22.5 2.8 8 8.3 23.5 12.2 34.5 3.8 11 7.8 22.3 8.8 25.1l1.8 5.1-11.2 6c-18.9 10.4-33.2 14-43.1 10.9-2.7-.8-5.1-1.3-5.3-1.1-.7.7 2 63.5 2.7 64 .4.2 7.3-.5 15.4-1.5 18.1-2.4 22.8-4.4 34.4-15.2 9.2-8.5 13.2-10.3 20.4-9.5 3.5.4 4.9.3 4.9-.6.1-.9 31.3 86.4 37 103.3.4 1.4 3.3 9.5 6.3 18s11.4 32.4 18.7 53c7.3 20.6 15.4 43.8 18.2 51.5 2.7 7.7 5.6 16 6.5 18.5.8 2.5 3 7.2 4.8 10.6 3.1 5.6 3.8 6.2 9.8 8.6l6.4 2.5 20.9-4.3c11.5-2.3 25-5.3 29.9-6.7 5-1.4 15-4.1 22.3-6.1l13.2-3.7 15.8 2.2c8.6 1.1 22 3.6 29.7 5.4 19.5 4.7 21 4.9 32.7 3.6 10.4-1.2 11.4-1.6 14.3-6.5 1.9-3.2 4.5-.9 4.5 3.9v4.2l25.2 24c70.9 67.2 79.5 74.4 97.6 81.4l8.7 3.4h41l40-17.4c22-9.5 47.2-20.2 56-23.6 8.8-3.4 19.1-7.6 22.9-9.4 3.8-1.7 8.3-3.1 9.9-3.1 4.3 0 8.7-4.4 8.7-8.5 0-1.8-.7-5.4-1.5-8-.8-2.7-1.1-5.3-.8-5.8.3-.6.1-.7-.5-.3-.7.4-1.2.5-1.2.2s-14-44.3-31.1-97.8-32.3-101.4-33.9-106.3c-1.5-5-20.5-64.1-42-131.5-21.6-67.4-40.5-126.6-42-131.5-19.4-61.3-39.4-122.6-41.4-126.9-1.4-3-2.6-6-2.6-6.7 0-.6-1.2-3.7-2.6-6.8-2.3-4.8-7.3-10-33.3-35.1-16.8-16.2-44.3-42.8-61.1-59-16.8-16.3-32.2-31.2-34.3-33.1-4.7-4.2-4.3-6.9.9-6.9 1.9 0 3.4-.3 3.4-.8-.1-1.3-7.8-6.2-10.8-6.8-2.6-.5-3.1-.3-3.4 1.7zM288.5 249c1.4 1.5 3.1 2 7.2 2 8.9 0 11.4 4.7 7.3 13.9-2.7 5.9-15.7 18.6-20 19.4-4.5.9-17 .9-17-.1.1-.4 3.3-3.3 7.3-6.5 14.9-11.9 15.1-12.1 13.8-14.5-1.1-2.1-1.5-1.9-12.1 6.9-9.4 7.8-11 9.5-11 12v2.9h-18.2l1.7-2.8c1-1.5 3.7-4.9 5.9-7.6 2.3-2.7 4.8-6 5.6-7.2 2.2-3.3 23.9-20.4 26-20.4.9 0 2.5.9 3.5 2zm93 37.4c0 3.6-13.1 8.1-18 6.2-2.5-.9-.3-4 4.7-6.5 5.6-2.8 13.3-2.6 13.3.3zm-193 12.7c2.6 4.2-6.8 12.3-14.5 12.4-4 0-4.5-.3-4.8-2.3-.5-3 3-6.9 8.3-9.3 4.4-2.1 10-2.5 11-.8zm278.7 58.4c1.5 2.8 2.4 5.3 2 5.6-.4.4-4.5 1.9-9.2 3.4-11.2 3.6-47.6 17.5-56.5 21.5-3.8 1.7-11.5 5.2-17 7.7-18.4 8.4-50 15.1-71.2 15.3-5.5 0-15.3-1.9-15.3-3 0-.4 6-1 13.3-1.3 20.2-1 37.2-4.5 49.2-10.2 5.5-2.6 25.1-10.9 43.5-18.5 18.4-7.5 38.5-16.5 44.5-19.8 6.1-3.4 11.7-6 12.5-5.9.8.1 2.7 2.5 4.2 5.2zm-283.1 8.2c1.3 1.6 1.2 1.7-.3.4-1-.7-1.8-1.5-1.8-1.7 0-.8.8-.3 2.1 1.3zm28 22c1.3 1.6 1.2 1.7-.3.4-1-.7-1.8-1.5-1.8-1.7 0-.8.8-.3 2.1 1.3zM104 389.4c0 .2-.8 1-1.7 1.7-1.6 1.3-1.7 1.2-.4-.4 1.3-1.6 2.1-2.1 2.1-1.3zm131.5 31.5c20.7 16.1 37.9 29.1 38.2 28.8.3-.3.1-1.8-.4-3.4-.7-2-10.4-10.2-34.6-29.3-18.4-14.6-33.9-26.9-34.4-27.4-1.1-1.4 10.9 7.2 39.3 27.8 13.6 9.9 27.2 19.3 30.3 20.9 6.6 3.5 6.5 3.3-1.3-2.7-3.3-2.5-5.6-4.6-5.2-4.6.4 0 3.8 1.8 7.6 4.1 3.8 2.2 11 5.4 16 7 8.4 2.6 10.5 2.9 23.4 2.9 22 0 40-3.3 60.1-10.8 8.8-3.3 19.8-7.6 24.5-9.6 7.3-3.1 9.5-3.6 16.3-3.6 7.3 0 8.3.3 13.7 3.6 7.5 4.6 9.8 8.2 14.4 22.9 4 12.7 42.3 131.4 53.1 164.5 3.5 10.7 11.1 34.3 17 52.5 18.9 58.4 32.5 100.5 39 120.5 3.5 10.7 13.2 40.6 21.5 66.5 8.3 25.8 18.2 56.4 22 68 13.8 42 14 43.4 8.5 54.1-7.5 14.6-16.9 20.6-44.8 28.9-22.8 6.7-36.7 9-49.7 8-26.6-1.9-38.3-4.8-49.1-11.9-8.6-5.8-48.3-42.2-69.4-63.8-7.7-7.8-12.4-12.9-10.5-11.2 13.8 12.2 65.2 56.4 65.6 56.4 1 0-61.3-58.4-73.6-69-4.1-3.5-8.1-7.5-8.8-8.9-.7-1.4-2.7-4.1-4.4-5.8-1.8-1.8-2.9-3.6-2.5-3.9.8-.9 6.5 2.8 15 9.7 3.9 3.2 8.5 6.1 10.2 6.5 2.6.6 9.2 5.8 45.5 35.8 1.4 1.1 0-.5-3-3.7-3-3.1-5.1-5.7-4.6-5.7s.3-.7-.4-1.5c-.7-.9-1.5-1.3-1.8-1-.6.6-9.3-7-31.6-27.8-11.5-10.6-17.7-15.7-19.3-15.7-3 0-9.3-8.2-9.3-12.1 0-2.7.3-2.9 3.8-2.9 3.4 0 5.4 1.6 26.7 21.1 33 30.2 36.6 33.3 35.9 31.3-.4-1.1 1.3-.1 4.2 2.6l4.9 4.5-4.4-4.7c-2.4-2.6-4.8-4.5-5.2-4.3-.3.3-1.2-.2-1.9-1s-.9-1.5-.5-1.5c.5 0 0-.9-1-2-.9-1-2-1.8-2.4-1.7-.3.1-4.2-3.5-8.6-7.9-15.8-15.8-49.3-45.8-52.8-47.1-3.3-1.4-3.7-1.9-5.1-8.3-.9-3.8-1.6-7.2-1.6-7.5 0-1.5 21.6 16.4 37.5 30.9 18.5 17 18.9 17.1 4.5 1.7-7.4-8-12.9-14.1-12.2-13.7.6.4 1.2.4 1.2-.1-.1-1.5-27-22.8-30.9-24.5-3.2-1.4-3.9-2.2-4.5-5.5-.4-2.1-1-4.6-1.3-5.6-1.2-4.4 5.3.7 30.4 23.7 14.5 13.2 26.9 24.3 27.6 24.5 1.3.4-16.9-18.8-29.5-31.1-4.3-4.2-7.8-8-7.8-8.4 0-.5 1.9 1 4.3 3.2 2.3 2.3 6.5 5.8 9.2 8 2.8 2.1 8.4 6.8 12.5 10.3 12.1 10.5 2 .2-18.5-18.8-25-23.1-25-23.1-28.9-23.1-3.2 0-3.5-.3-5-4.7-.9-2.6-1.6-5.3-1.6-6 0-3 6.8 2.5 31.4 25 23 21.2 38 34.6 43 38.7 1.1.8-10.1-10.4-24.8-25-14.7-14.6-27.4-26.9-28.2-27.3-2.4-1.4-1.5-2.7 1.1-1.5 1.3.6 2.2 1.4 2 1.8-.3.4.2 1.3.9 1.9 1.2 1 1.4.9 1.2-.6-.4-2.4-22.4-21.2-25.8-21.9-2-.5-3.6-2.1-5.8-5.9-5.7-9.9-4.4-9.2 17.8 9.5 9.9 8.2 18.2 15 18.6 15 .9 0-5.7-8.1-13.9-16.9-6.3-6.8-5.9-7.1 1.5-1.2 12.4 10 10.7 7.9-8-9.9-14.2-13.4-16.4-15.1-19-14.8-2.8.3-3.2-.2-6-6-1.7-3.5-3-6.8-3-7.3 0-2.8 4.8.5 17.4 12.3 22.7 21.2 22.8 21.3 12.4 7.6-3.2-4.2-5.8-7.9-5.8-8.3 0-.3.9-.1 2.1.5 5.2 2.9 1.8-.5-10.6-10.3-11.8-9.4-13.8-10.6-16.3-10.1l-2.9.6-1.2-7.6c-.6-4.2-1.1-8.1-1.1-8.7 0-2.3 7.3 3.1 17.5 13 6 5.8 10.4 9.9 9.7 9.1-1.8-2.1-1.5-3.4.6-1.9 1.5 1.3 1.6 1.2.3-.3-.7-1-1.7-1.6-2.1-1.3-.8.5-7.5-7.4-6.8-8 .2-.2 3.3 1.4 6.8 3.6 6.4 3.9 6.3 3.8-6.5-8.5-12.2-11.8-13.2-12.5-17.1-12.6-3.9 0-4.2-.2-6.4-4.9-2.1-4.6-2.1-7.1.1-7.1.6 0 5.6 3.7 11.2 8.2 13 10.4 13.9 11 9.8 6.5-1.9-2-3.2-3.9-3-4.2.8-.7 12.4 9.2 12.4 10.6 0 .7 1.1 1.4 2.5 1.6 1.9.3-1.7-3.9-15.1-17.2-16-16.1-17.9-17.7-21.7-18.2-4-.5-4.1-.7-6.2-6.6-2.4-7.4-2.5-7.7-.2-7.7 1 0 5 3.3 9 7.3 7 7.1 7.6 7.4 12.3 7.6 2.7.1 4.9-.3 4.9-.8s-5-5.4-11.1-10.9c-9.8-8.9-11.6-10.1-15.2-10.4-4-.3-4.1-.4-6.4-6.2-1.2-3.3-2.1-6.1-1.9-6.4 1.6-1.6 7.5 2.1 16.4 10.3 5.7 5.2 10.6 9.5 10.9 9.5.2 0-1.7-2.5-4.2-5.5-2.6-3-4.3-5.5-3.9-5.5 1.3 0 10.4 7.7 9.8 8.2-.2.3.4 1.1 1.3 1.9 1.6 1.3 1.7 1.2.4-.4-1.7-2.1-.3-2.2 2.7-.1 4.8 3.3 1.6.1-13.3-13.5-8.8-8-17.1-14.7-19.3-15.6-2.9-1.2-4.6-2.9-6.9-7-1.7-2.9-2.9-5.6-2.5-5.9 1.4-1.5 4.1-.1 12.1 6.6 20.9 17.4 19.7 16.5 17.4 13.3-1.1-1.7-3.1-3.9-4.3-5-1.2-1.1-3.2-3.4-4.3-5l-2.2-3 2.6 2c2.2 1.7 9.2 8 22.9 20.5 3.3 3 3.4 3.1.5 1.4l-3-1.8 2.9 3.2c3.3 3.6 3.8 3.9 3 1.7-1-2.5.6-1.7 6.2 3.1 3 2.5 5.4 4.3 5.4 4 0-.2-12.4-11.8-27.6-25.5-26.9-24.5-27.7-25.1-31.8-25.1h-4.2l-3.2-7.8c-1.8-4.2-3.2-8-3.2-8.5 0-.4 1.4-.7 3.1-.7 2.7 0 5.8 2.5 22.3 18.2 20.3 19.5 20.9 19.8 7.6 3.6l-8.5-10.3 5 3.6c12 8.6 7.4 3.8-10.3-10.9-9.6-7.9-10.7-8.5-15.9-9.1l-5.6-.6-3.5-8.3c-1.9-4.5-3.3-8.5-3-8.8.3-.2 2.5 0 4.8.5 3.8.8 6.6 3.2 21.3 17.8 9.3 9.2 16.6 16.1 16.2 15.3-.5-.8-3.7-5.2-7.3-9.8-3.5-4.5-6.1-8.2-5.7-8.2.4 0 6.8 5 14.3 11.2 17.4 14.1 18.3 14.9 14.7 11.1-1.6-1.7-13.8-12.6-26.9-24.2-21.6-19-24.3-21.1-27.5-21.1-3.4 0-3.8-.4-7-6.3-3.2-5.9-3.7-10.4-1.1-9.5.5.2 8 6.6 16.6 14.3 8.7 7.7 16.7 14.6 17.8 15.4 2 1.4 2 1.4.5-.5-16.1-19.5-16.7-20.4-8.4-14 2.2 1.8 7 5.6 10.8 8.5 12.5 9.8 6.8 4.3-13.4-12.9-19.7-16.8-20.1-17.1-23.1-16.1-1.7.6-3.6 1.1-4.3 1.1-1 0-6.5-16.4-6.5-19.4 0-2.3 6.3 2.4 22.5 16.7 25.7 22.9 26.4 23.5 13.7 10.9-6.3-6.1-11.2-11.2-10.9-11.2.3 0 12.9 10 27.9 22.1 33.7 27.4 31.8 25.8 28.8 22.7-1.4-1.4-18.7-17-38.4-34.7-35.6-31.8-35.9-32.1-40.3-32.1h-4.4l-3.5-7.6c-3.9-8.7-4.1-9.4-1.5-9.4 1.6 0 14.1 10.4 44.6 36.9l3 2.6-2-2.5c-1.1-1.4-6.2-7-11.2-12.6-5.1-5.6-9.3-10.4-9.3-10.8 0-.4 3.1 1.9 6.8 5.1 19 16.1 25.4 21.3 22.7 18.5-1.6-1.7-13.8-12.6-27-24.1-20.4-17.9-24.4-21.1-27.1-21.1-3 0-3.3-.4-5.8-7.1-3-8.1-3.1-8.9-1.2-8.9.7 0 12.5 9.7 26.2 21.6 30.5 26.5 32.1 27.8 16.9 13.3-6.6-6.2-14.7-14-18-17.3l-6-5.9 8 6.5c6.8 5.4 22.5 18.3 42.8 35.1 2.6 2.1 4.7 3.6 4.7 3.4 0-.6-5.2-5.2-45.7-40.5L242.2 502h-11l-3.1-8.1c-4.2-10.9-4.2-10.8 1.3-8.5 2.6 1.1 63.2 51.7 75.9 63.4 1.5 1.4 2.7 2.3 2.7 2 0-.3-10.8-10.6-24-22.9-13.2-12.2-24-22.5-24-22.7 0-.3 1.2.6 2.8 1.9 1.5 1.4 14.7 12.8 29.4 25.3 24.2 20.5 32.9 26.8 34.6 25.1.8-.8 3 1.1-50.1-42.4-44.1-36-48.2-39.1-51.6-39.1-3.8 0-3.8 0-5.4-6-2.2-7.7-2.2-10.4-.2-9.6.9.3 19.4 13.8 41.3 29.9 42.1 31.1 51.6 38 49.2 35.5-.8-.8-21.2-17.8-45.2-37.7L221 451.9l-3.1 1.6c-1.7.9-3.2 1.5-3.4 1.3-.1-.2-1.6-4.7-3.3-10.1l-3-9.7h2.7c2 0 13.7 8.5 46.1 33.6 23.9 18.4 43.9 33.8 44.5 34.1 2.4 1.3-5.2-5.3-44.2-38.6L216.1 429h-11.9l-2.3-6.7c-2.1-6.4-2.1-6.7-.3-8 1-.7 2.3-1.3 2.8-1.3 1.7.1 53.1 38.7 52.9 39.8-.1.5.8 1.8 2 2.8l2.2 1.9-1.9-2.3c-2.8-3.3-1.2-2.7 5 1.9 3.4 2.5 5.2 4.5 4.8 5.2-.4.7-.4.9.1.5 1.1-1.1 4.7 1.1 17.5 10.6 9.9 7.4 12.1 8.6 15.5 8.6 4.7 0 3.8-1.1-3-3.6-3.5-1.3-18.2-12.3-49.9-37.2-43.7-34.3-45.1-35.3-49-35l-4 .3-1.3-6c-.7-3.3-1.2-7.3-1.3-8.9 0-3.5-4.9-7 41.5 29.3zm229.7-3.2c-1.1 3.7-2.2 8.2-2.5 9.9-1.3 7.2 3.2 16.2 10.4 20.4 14.2 8.6 18.3 14.5 18.1 25.7-.1 3.9-.6 8.2-1.2 9.5-.7 1.6-.8.3-.4-4.7.6-6.4.3-7.7-2.4-13.6-3-6.7-4.9-8.7-14.7-15.1-5.9-3.9-10.5-11-11.2-17.1-.5-3.8 2.6-19.1 4.4-22 1.5-2.5 1.3 1-.5 7zm9.3 3.3c0 1.8-.6 2.6-2.3 2.8-1.3.2-2.5-.3-2.8-1.2-1-2.6.4-4.8 2.8-4.4 1.7.2 2.3 1 2.3 2.8zm-3.7 20c1 1.4 3.2 3.1 4.8 3.9 1.6.8 2.4 1.6 1.7 1.8-2.2.8-7-2.6-8.7-6.1-.9-2-1.5-5.6-1.5-8.8l.1-5.3.9 6c.5 3.3 1.7 7.1 2.7 8.5zm11 21.4c1.7 2 3.4 5.2 3.8 7.2.8 4.3 0 12.7-1.5 16.8-1.9 4.7-2.1 2.6-.4-4.4 2.1-9.5 1.2-14.1-4.3-19.7-2.4-2.6-4.4-4.8-4.4-5 0-1 4.1 2.1 6.8 5.1zM106.5 471c9.5 5.8 8.6 20.8-1.5 26.1-4.6 2.5-8.6 2.4-14-.4-9.5-4.8-10.8-16.9-2.7-24.5 4.8-4.5 12.1-4.9 18.2-1.2zm38.9 7.8c7 4 9.4 12.7 5.7 20-4.8 9.4-17.6 10.8-25 2.8-3.3-3.5-4.1-12.5-1.6-17.2 4.1-7.6 13.1-10 20.9-5.6zm345.4 10.4c1.6 1.6 1.5 2.3-.4 4.2-1.2 1.2-2 1.3-3.5.6-1-.6-1.9-1.6-1.9-2.3 0-1.6 2-3.7 3.5-3.7.6 0 1.6.5 2.3 1.2zm4.2 8.7c-3.5 11-2.5 16.9 3.7 23.3 2 2.1 3.4 4 3.1 4.3-1.1 1.2-8.7-8.5-9.8-12.5-1.2-4.5-.1-12.3 2.6-18.9 2.3-5.5 2.5-3.1.4 3.8zm-415.4 1.7c4.7 2.2 7.6 6.7 8.2 12.4.5 5.7-1.4 9.8-6.4 13.6-6.9 5.3-18.1 2.7-21.8-5-6.4-13.5 6.7-27.3 20-21zm408.7 7.6c-1.3 8.8 2.5 15.2 12.7 21.6 10.7 6.8 14.7 12.3 15.7 21.7.6 5.4-2.6 18.7-4.7 20-1.3.8-1.3.7 1-6 3.6-10.3 2.2-21.3-3.3-27.4-1.2-1.3-4.7-3.9-7.7-5.9-6.7-4.2-11.7-8.8-13.6-12.4-.9-1.7-1.4-5.7-1.3-11 0-5.5.3-7.6.9-6.3.4 1.1.6 3.7.3 5.7zM119.8 509c13 7.9 7.4 28-7.8 28-8.5 0-15-6.5-15-15s6.5-15 15-15c2.7 0 5.8.8 7.8 2zm39.2 7.8c4.9 2.6 8.3 9.3 7.6 15-1.1 8.3-6.7 13.2-15.1 13.2-8.8 0-14.9-6.2-14.9-15.2 0-11.1 12.3-18.3 22.4-13zm-66.1 21c4.1 3 6.3 6.7 6.8 11.5 1.1 9.2-7.2 17.5-16.4 16.4-5.8-.6-9.2-3.1-12.1-8.9-2.6-5.2-2.4-9.4.9-14.7 4-6.5 14.7-8.7 20.8-4.3zm413.2.9c3.9 3.4 5.9 7.9 5.8 13.5-.1 5-.5 4.2-1.4-2.7-.6-4.2-1.4-5.7-5.1-9.3-4.9-4.6-4.4-5.8.7-1.5zM131.7 545c11.8 5.3 11.1 22.9-1.1 27.5-6.1 2.4-10.8 1.4-15.9-3.4-3.6-3.4-4.1-4.4-4.4-9.2-.5-7 1.8-11.5 7.7-14.6 5.2-2.8 8.2-2.9 13.7-.3zm41.3 8.9c9.9 7.1 9 21-1.8 26.2-10.4 5.1-21.2-1.7-21.2-13.4 0-7.7 2.8-11.8 9.7-14.3 4.5-1.6 9.8-1 13.3 1.5zm335.5 7.1c0 1.8-.6 2.6-2.3 2.8-1.3.2-2.5-.3-2.8-1.2-1-2.6.4-4.8 2.8-4.4 1.7.2 2.3 1 2.3 2.8zm-403.8 14.1c13.9 6.7 8.9 28.3-6.4 28.3-9.3-.1-15.3-5.9-15.3-14.8 0-12.1 10.8-18.8 21.7-13.5zm40.9 10.1c4.5 3.1 6.8 7.4 6.8 12.9 0 18.5-26.6 20.4-30 2.1-1-4.9 2-11.7 6.4-14.7 4.9-3.3 12.2-3.4 16.8-.3zm387.1 4.9c1 2.3.8 3-1.3 5-3.6 3.3-3.2 5.3.9 4.5 3-.6 3.5-.3 4.6 2 .6 1.5 1 2.8.9 2.9-.2.1-4.8 1.9-10.3 4.1-5.5 2.1-10.2 4-10.5 4.2-.3.1-1.7-3.3-3.1-7.7-2-5.9-2.4-8.3-1.6-9.7 1.9-3.4 4.1-4.4 9.1-4.2 4.2.2 5.2-.2 7-2.4 2.3-2.8 2.6-2.7 4.3 1.3zM184.8 593c13 7.9 7.4 28-7.8 28-8.6 0-15-6.5-15-15.1 0-11.4 13.1-18.8 22.8-12.9zm-64.3 22c4.3 2.7 6.5 7 6.5 12.8 0 11.8-12.1 18.8-22.4 12.9-9.1-5.2-10.2-17.1-2.3-24.5 4.8-4.5 12.1-4.9 18.2-1.2zm39.4 8.7c6.2 4.7 8.2 13.9 4.4 20.6-2.6 4.6-10 8.1-15.3 7.2-7.1-1.2-13-8.1-13-15.2 0-1.4.9-4.6 2.1-6.9 3.7-7.8 14.9-10.7 21.8-5.7zm385.1 4.8c1.3 4.1 2.2 7.7 1.9 7.9-.8.8-18.9 9.6-19.6 9.6-.5 0-1.8-2.8-3-6.3-1.2-3.4-2.4-6.9-2.8-7.8-.4-1 .3-1.9 2-2.7 2.5-1.2 2.7-1 4.6 3.3 1.1 2.5 2.3 4.5 2.6 4.5.6 0-.1-4.4-1.2-7.1-.4-1.2.2-1.9 2.3-2.7 2.7-.9 2.9-.8 4.1 2.4.7 1.9 1.7 3.4 2.2 3.4 1.2 0 1.1-1.7-.5-6.3-1.2-3.3-1.2-3.8.3-4.7 3.6-2.1 4.7-1.1 7.1 6.5zm-347 2.8c5.9 3.1 8.2 7.6 7.7 14.6-.3 4.8-.8 5.8-4.4 9.2-5.1 4.8-9.8 5.8-15.9 3.4-12.2-4.6-12.8-22.2-1-27.6 5.4-2.5 8.4-2.4 13.6.4zM131.8 652c13 7.9 7.4 28-7.8 28-2.7 0-5.8-.8-7.8-2-13-7.9-7.4-28 7.8-28 2.7 0 5.8.8 7.8 2zm420.7 4c1.5 2.9 1.4 3.2-2 8.5-3.8 5.9-3.5 6.4 2 3.8 3.1-1.5 3.7-1.5 4.5-.3 2.2 3.4.9 4.7-8.1 9-7.4 3.5-9.3 4.1-10 2.9-1.5-2.4-1-5 2.2-10.1 1.6-2.8 2.8-5.3 2.4-5.6-.3-.3-2.1.2-4 1.1-4.7 2.3-5.5 2.1-5.5-.7 0-2 1.5-3.2 8.3-7 4.5-2.4 8.3-4.5 8.4-4.5.1-.1.9 1.3 1.8 2.9zm-379.7 4c2.1 1.3 4.1 3.8 5.3 6.6 6 13.4-7.8 26.2-21 19.4-4.2-2.1-8.1-8.5-8.1-13.1.1-4.2 3.7-10.8 7.2-12.9 4.4-2.7 12.2-2.7 16.6 0zm39 8c6.9 4.2 9.4 13.9 5.2 20.8-7.8 12.8-28 7.3-28-7.7 0-8.6 6.4-15.1 15-15.1 2.7 0 5.8.8 7.8 2zm-66.9 21.6c10 5.9 9.4 21.5-.9 26.6-9.8 5-20.8-1.2-21.7-12.1-.8-9.1 5.7-16.1 14.9-16.1 2.8 0 6.2.7 7.7 1.6zm422.1 4.9c0 .7-1.6 2-3.5 3.1-2.4 1.3-3.5 2.6-3.5 4.1 0 3.1 1.5 3.6 4.9 1.8 4.2-2.1 5.1-1.9 5.1 1.4 0 2.6-.8 3.2-8.7 7.1-6.3 3-9.2 3.9-10.3 3.2-2.9-1.8-2.3-4 1.4-5.3 2.9-1.1 3.6-1.8 3.6-4 0-3.7-1.1-4.2-5.5-2.3-2 .8-3.9 1.3-4.1 1.1-.2-.2-.1-1.7.2-3.4.5-2.7 1.7-3.6 9.2-7.2 8-3.8 8.8-4 10-2.4.6.9 1.2 2.2 1.2 2.8zm-384.4.4c10.8 4.9 11.4 20.5.9 26.7-6.1 3.7-15.5 1.6-19.9-4.4-3.1-4.1-3.3-12.3-.6-16.8 2.4-3.8 8.6-7.4 13-7.4 1.4 0 4.3.9 6.6 1.9zm38.7 7.5c4.3 1.8 8.5 6.8 9.3 11.2 1.5 7.8-4.4 16.5-12.1 18-4.5.8-11.7-1.8-14.5-5.3-9.7-12.3 3-29.9 17.3-23.9zM159 725.2c12.3 8.4 6.9 27.8-7.7 27.8-10.4 0-17.6-9.1-15-19 .9-3.8 5-8.7 8.2-10 4-1.7 11.1-1.1 14.5 1.2zm418.6 6.3c1.7 4.2 1.8 8.6.2 10.7-2.4 2.9-9.2 6.8-12 6.8-5.3 0-9.2-8.4-6.4-13.8 1.8-3.4 8.6-7.1 13.4-7.2 2.8 0 3.5.5 4.8 3.5zM198 733.9c9.5 6.8 9.2 20.2-.6 25.8-10.3 6-22.4-1.1-22.4-13.1 0-7.3 3.8-12.5 10.8-14.7 3.6-1.1 9.1-.2 12.2 2zm39.5 8c6.8 3.7 9.3 14.9 4.7 21-6.9 9.3-18.5 9.4-25.4.1-3-4-3.3-9.1-1-14.3 3.9-8.7 13-11.6 21.7-6.8zM170 762.2c9.9 6.8 10.5 19.3 1.1 25.5-5.3 3.6-9.3 3.9-14.8 1.2-9.1-4.5-11.6-14.9-5.6-22.7 4.7-6.3 13.3-8 19.3-4zm418.1 1.4c.5 1.5.8 2.8.7 2.9-.2.1-1.8 1-3.5 1.9-2.6 1.3-3.3 2.3-3.3 4.6 0 1.7.2 3 .4 3s2.5-.9 5-2l4.6-1.9v3.3c0 3.2-.3 3.4-9.2 7.5l-9.2 4.3-1.9-2.3-1.9-2.3 4.1-1.8c4.1-1.7 5.1-3.7 3.1-6.8-.8-1.2-1.4-1.2-4.5.3-4.7 2.2-4.7 2.2-4.3-1.6.3-2.9 1-3.5 8.8-7.4 4.7-2.3 8.8-4.2 9.3-4.2.4-.1 1.2 1.1 1.8 2.5zM210 769.8c12.1 6 9.9 24.7-3.3 28.3-9.4 2.5-18.7-5.1-18.7-15.4 0-10.9 12-18 22-12.9zm40.5 6.2c7.9 4.8 9.1 17.4 2.4 23.7-12.2 11.2-31-1.8-24.5-17 3.6-8.5 13.9-11.6 22.1-6.7zm-65.7 22.7c4.9 3.7 6.7 7.1 6.7 12.8 0 8.9-6 15-14.9 15-6.8 0-11.7-3.5-14.2-10-2-5.2-1.1-10.1 2.8-15 4.4-5.6 14-7 19.6-2.8zm37 6.3c5.3 3.2 7.4 7.5 6.9 14.2-.2 4.4-.9 6.4-2.8 8.4-9.9 10.6-26.9 4.5-26.9-9.6 0-11.5 13-18.9 22.8-13zm377.5 7.9c7.2 6.5 8.9 16.9 4.8 28.8-3.9 11.4-2.3 19.7 5.6 28.3 2.1 2.4 3.1 4.1 2.3 3.8-2.3-.7-8.6-9.5-9.9-13.8-1.6-5.5-1.4-11 .9-18.2 2.5-8.1 2.6-17.2.1-21.8-1-1.9-4.7-5.9-8.2-8.9-3.5-3-6.6-5.9-6.8-6.5-.4-1.1 6.5 4.1 11.2 8.3zm-337.3 0c9.8 7 9.2 20.8-1 26.2-6.8 3.7-15.2 1.5-19.8-5.2-2-2.8-2.3-4.4-2-9.2.4-4.9.9-6.2 3.8-9.2 5.5-5.7 13.3-6.7 19-2.6zm330.6 1.9c.1.7 0 .8-.3.2-.9-1.8-3.3-1-3.3 1.1 0 1.6.5 2 2 1.6 1.1-.3 1.8-.1 1.4.4-1.7 2.8-5.2-.4-4-3.7.7-1.8 3.8-1.5 4.2.4zm8.1 8.2c2.6 5 2.9 10.4.7 14-1 1.6-1.3 1.8-.8.5 2.1-5.6 1.6-9.6-1.5-14.6-1.7-2.8-2.6-4.9-1.9-4.7.7.3 2.2 2.4 3.5 4.8zm-403.9 10c13 7.9 7.4 28-7.8 28-8.5 0-15-6.5-15-15 0-5.4 2.7-10.2 7.2-13 2-1.2 5.1-2 7.8-2s5.8.8 7.8 2zm40.2 8.6c4.7 4.2 6.3 9.1 5 14.7-3 13.3-21 15.9-27.7 4.1-6.1-10.5 1-22.4 13.3-22.4 4.8 0 5.8.4 9.4 3.6zm370.3 9.8c-.5 5.7-.2 7 2 10.9 1.4 2.4 4.2 5.6 6.2 7.1 2 1.6 3.4 3.1 3 3.4-.9.9-9.6-8-11.1-11.5-1.4-3.3-1.9-11.9-.8-14.7 1.1-2.8 1.2-1.8.7 4.8zm11.7 27.1c0 2.6-2.2 3.9-3.9 2.2-2.2-2.2-.2-6.1 2.5-5 .8.3 1.4 1.5 1.4 2.8zm-2 8.1c6.8 5.4 9.3 9.5 9.8 16.3.2 3.4-.1 6.7-.7 7.7-.9 1.5-1 1-.5-2.7 1.1-8.7-2-14.8-11.6-22.2-1.9-1.5-3-2.7-2.5-2.7.6 0 3 1.6 5.5 3.6zm10 4.3c4.6 5.9 5.2 13 2 23.3-2.8 9.1-2.9 16-.3 21.8 1.9 4.2 8.5 11.3 12.8 13.8 1.1.6 1.7 1.3 1.4 1.7-1.1 1.1-11-7.6-13.9-12.2-4.4-6.9-4.8-13.4-1.6-23.7 3.8-12.3 3.5-16.9-1.4-23.9-2.2-3-4-5.9-4-6.3 0-.9.5-.4 5 5.5zm-206.9 29.8c1.3 1.6 1.2 1.7-.3.4-1.7-1.3-2.2-2.1-1.4-2.1.2 0 1 .8 1.7 1.7zm211 2.6c-1.4 4-.7 7.8 2.1 12.5 1.1 1.8 1.8 3.6 1.5 3.8-.7.7-4.2-6.1-5.1-9.9-.7-2.8 1-11.4 2.1-10.4.3.3 0 2.1-.6 4zm12.4 17.7c0 2.9-3.2 4.1-4.1 1.6-.9-2.4.4-4.8 2.3-4.4 1.2.2 1.8 1.2 1.8 2.8z"/><path d="M370 288.2c-2 .9-2.2 1.2-.8 1.5.9.2 2.9-.3 4.5-1.1 2.3-1.2 2.4-1.5.8-1.5-1.1 0-3.1.5-4.5 1.1zM178.2 303.7c-3.3 1.6-4.2 3.3-1.8 3.3 1.7 0 6.3-3.6 5.6-4.4-.3-.2-2 .2-3.8 1.1zM270 465.4c0 .2.8 1 1.8 1.7 1.5 1.3 1.6 1.2.3-.4s-2.1-2.1-2.1-1.3zM278 472.4c0 .2.8 1 1.8 1.7 1.5 1.3 1.6 1.2.3-.4s-2.1-2.1-2.1-1.3zM278 489.4c0 .2.8 1 1.8 1.7 1.5 1.3 1.6 1.2.3-.4s-2.1-2.1-2.1-1.3zM285.5 496c1 1.1 2 2 2.3 2 .3 0-.3-.9-1.3-2s-2-2-2.3-2c-.3 0 .3.9 1.3 2zM297.5 555.9c2.2 2.3 4.9 4.7 6 5.3 1.1.6 1.8.9 1.5.6-.3-.2-3-2.6-6-5.3-5.4-4.9-5.4-4.9-1.5-.6zM313.5 565c1 1.1 2 2 2.3 2 .3 0-.3-.9-1.3-2s-2-2-2.3-2c-.3 0 .3.9 1.3 2zM312 567.4c0 .2.8 1 1.8 1.7 1.5 1.3 1.6 1.2.3-.4s-2.1-2.1-2.1-1.3zM303 572.5c1.3 1.4 2.6 2.5 2.8 2.5.3 0-.5-1.1-1.8-2.5s-2.6-2.5-2.8-2.5c-.3 0 .5 1.1 1.8 2.5zM315.4 572.8c2.3 2.6 2.6 2.7 2.6.5 0-.9-.3-1.3-.7-1-.3.4-1.3.1-2.2-.5-1-.8-.9-.4.3 1zM305.5 579c3.3 3.3 6.2 6 6.4 6 .3 0-2.1-2.7-5.4-6-3.3-3.3-6.2-6-6.4-6-.3 0 2.1 2.7 5.4 6zM313.5 588c1 1.1 2 2 2.3 2 .3 0-.3-.9-1.3-2s-2-2-2.3-2c-.3 0 .3.9 1.3 2zM312.5 619c2.1 2.2 4.1 4 4.4 4 .3 0-1.3-1.8-3.4-4-2.1-2.2-4.1-4-4.4-4-.3 0 1.3 1.8 3.4 4zM320.7 625.1c.7.9 1.1 1.8.8 2.1-.3.3.3 1.1 1.2 1.9 1.6 1.2 1.7 1.2.6-.2-.7-.9-1.1-1.8-.8-2.1.3-.3-.3-1.1-1.2-1.9-1.6-1.2-1.7-1.2-.6.2zM328 631.5c1.3 1.4 2.6 2.5 2.8 2.5.3 0-.5-1.1-1.8-2.5s-2.6-2.5-2.8-2.5c-.3 0 .5 1.1 1.8 2.5zM328 634.4c0 .2.8 1 1.8 1.7 1.5 1.3 1.6 1.2.3-.4s-2.1-2.1-2.1-1.3zM315.5 638c1 1.1 2 2 2.3 2 .3 0-.3-.9-1.3-2s-2-2-2.3-2c-.3 0 .3.9 1.3 2zM333.5 638.1c-.4.6-.4 1.3-.1 1.6.3.4.6.1.6-.6 0-.8.6-1.1 1.6-.7.8.3 1.2.2.9-.4-.8-1.3-2.2-1.3-3 .1zM320.5 644c1 1.1 2 2 2.3 2 .3 0-.3-.9-1.3-2s-2-2-2.3-2c-.3 0 .3.9 1.3 2zM307 644.4c0 .2.8 1 1.8 1.7 1.5 1.3 1.6 1.2.3-.4s-2.1-2.1-2.1-1.3zM312 649.4c0 .2.8 1 1.8 1.7 1.5 1.3 1.6 1.2.3-.4s-2.1-2.1-2.1-1.3zM332.5 654c1 1.1 2 2 2.3 2 .3 0-.3-.9-1.3-2s-2-2-2.3-2c-.3 0 .3.9 1.3 2zM328 653.4c0 .2.8 1 1.8 1.7 1.5 1.3 1.6 1.2.3-.4s-2.1-2.1-2.1-1.3zM321 659.5c1.3 1.4 2.6 2.5 2.8 2.5.3 0-.5-1.1-1.8-2.5s-2.6-2.5-2.8-2.5c-.3 0 .5 1.1 1.8 2.5zM325.5 661c1 1.1 2 2 2.3 2 .3 0-.3-.9-1.3-2s-2-2-2.3-2c-.3 0 .3.9 1.3 2zM338 659.4c0 .2.8 1 1.8 1.7 1.5 1.3 1.6 1.2.3-.4s-2.1-2.1-2.1-1.3zM340 663.4c0 .3.9 1 2 1.6 1.1.6 2 .8 2 .6 0-.3-.9-1-2-1.6-1.1-.6-2-.8-2-.6zM345 665.8c0 .4 1 1.3 2.3 2.1 2.2 1.4 2.2 1.4.3-.8-2-2.2-2.6-2.5-2.6-1.3zM332.5 668c1 1.1 2 2 2.3 2 .3 0-.3-.9-1.3-2s-2-2-2.3-2c-.3 0 .3.9 1.3 2zM332 671.3c0 .2 1.5 1.6 3.3 3.3l3.2 2.9-2.9-3.3c-2.8-3-3.6-3.7-3.6-2.9zM338 673.4c0 .2.8 1 1.8 1.7 1.5 1.3 1.6 1.2.3-.4s-2.1-2.1-2.1-1.3zM339 678.3c0 .2 1.5 1.6 3.3 3.3l3.2 2.9-2.9-3.3c-2.8-3-3.6-3.7-3.6-2.9zM352 686.4c0 .2.8 1 1.8 1.7 1.5 1.3 1.6 1.2.3-.4s-2.1-2.1-2.1-1.3zM335 689.5c1.3 1.4 2.6 2.5 2.8 2.5.3 0-.5-1.1-1.8-2.5s-2.6-2.5-2.8-2.5c-.3 0 .5 1.1 1.8 2.5zM327 695.5c1.3 1.4 2.6 2.5 2.8 2.5.3 0-.5-1.1-1.8-2.5s-2.6-2.5-2.8-2.5c-.3 0 .5 1.1 1.8 2.5zM344 695.4c0 .2.8 1 1.8 1.7 1.5 1.3 1.6 1.2.3-.4s-2.1-2.1-2.1-1.3zM328 699.4c0 .2.8 1 1.8 1.7 1.5 1.3 1.6 1.2.3-.4s-2.1-2.1-2.1-1.3zM341 708.5c1.3 1.4 2.6 2.5 2.8 2.5.3 0-.5-1.1-1.8-2.5s-2.6-2.5-2.8-2.5c-.3 0 .5 1.1 1.8 2.5zM357 708.4c0 .3.9 1 2 1.6 1.1.6 2 .8 2 .6 0-.3-.9-1-2-1.6-1.1-.6-2-.8-2-.6zM328 715.5c1.3 1.4 2.6 2.5 2.8 2.5.3 0-.5-1.1-1.8-2.5s-2.6-2.5-2.8-2.5c-.3 0 .5 1.1 1.8 2.5zM350.5 717c1 1.1 2 2 2.3 2 .3 0-.3-.9-1.3-2s-2-2-2.3-2c-.3 0 .3.9 1.3 2zM334.5 722c1 1.1 2 2 2.3 2 .3 0-.3-.9-1.3-2s-2-2-2.3-2c-.3 0 .3.9 1.3 2zM342 722.5c1.3 1.4 2.6 2.5 2.8 2.5.3 0-.5-1.1-1.8-2.5s-2.6-2.5-2.8-2.5c-.3 0 .5 1.1 1.8 2.5zM352 732.5c3.5 3.6 6.7 6.5 6.9 6.5.3 0-2.4-2.9-5.9-6.5-3.5-3.6-6.7-6.5-6.9-6.5-.3 0 2.4 2.9 5.9 6.5zM365 730.4c0 .2.8 1 1.8 1.7 1.5 1.3 1.6 1.2.3-.4s-2.1-2.1-2.1-1.3zM348.5 737c1 1.1 2 2 2.3 2 .3 0-.3-.9-1.3-2s-2-2-2.3-2c-.3 0 .3.9 1.3 2zM352 740.3c0 .2 1.5 1.6 3.3 3.3l3.2 2.9-2.9-3.3c-2.8-3-3.6-3.7-3.6-2.9zM363 743.5c1.9 1.9 3.6 3.5 3.9 3.5.3 0-1-1.6-2.9-3.5s-3.6-3.5-3.9-3.5c-.3 0 1 1.6 2.9 3.5zM342 743.4c0 .2.8 1 1.8 1.7 1.5 1.3 1.6 1.2.3-.4s-2.1-2.1-2.1-1.3zM372 752.4c0 .2.8 1 1.8 1.7 1.5 1.3 1.6 1.2.3-.4s-2.1-2.1-2.1-1.3zM354.5 757c1 1.1 2 2 2.3 2 .3 0-.3-.9-1.3-2s-2-2-2.3-2c-.3 0 .3.9 1.3 2zM361.5 759c1 1.1 2 2 2.3 2 .3 0-.3-.9-1.3-2s-2-2-2.3-2c-.3 0 .3.9 1.3 2zM354 765.5c1.3 1.4 2.6 2.5 2.8 2.5.3 0-.5-1.1-1.8-2.5s-2.6-2.5-2.8-2.5c-.3 0 .5 1.1 1.8 2.5zM363.5 765c1 1.1 2 2 2.3 2 .3 0-.3-.9-1.3-2s-2-2-2.3-2c-.3 0 .3.9 1.3 2zM375.5 765c1 1.1 2 2 2.3 2 .3 0-.3-.9-1.3-2s-2-2-2.3-2c-.3 0 .3.9 1.3 2zM369 766.5c1.3 1.4 2.6 2.5 2.8 2.5.3 0-.5-1.1-1.8-2.5s-2.6-2.5-2.8-2.5c-.3 0 .5 1.1 1.8 2.5zM349 767.5c1.3 1.4 2.6 2.5 2.8 2.5.3 0-.5-1.1-1.8-2.5s-2.6-2.5-2.8-2.5c-.3 0 .5 1.1 1.8 2.5zM375 772.5c1.3 1.4 2.6 2.5 2.8 2.5.3 0-.5-1.1-1.8-2.5s-2.6-2.5-2.8-2.5c-.3 0 .5 1.1 1.8 2.5zM377.5 778c1 1.1 2 2 2.3 2 .3 0-.3-.9-1.3-2s-2-2-2.3-2c-.3 0 .3.9 1.3 2zM368.5 780c1 1.1 2 2 2.3 2 .3 0-.3-.9-1.3-2s-2-2-2.3-2c-.3 0 .3.9 1.3 2zM382.5 780c1 1.1 2 2 2.3 2 .3 0-.3-.9-1.3-2s-2-2-2.3-2c-.3 0 .3.9 1.3 2zM375 786.5c1.3 1.4 2.6 2.5 2.8 2.5.3 0-.5-1.1-1.8-2.5s-2.6-2.5-2.8-2.5c-.3 0 .5 1.1 1.8 2.5zM382 793.5c1.3 1.4 2.6 2.5 2.8 2.5.3 0-.5-1.1-1.8-2.5s-2.6-2.5-2.8-2.5c-.3 0 .5 1.1 1.8 2.5zM389.5 801c1 1.1 2 2 2.3 2 .3 0-.3-.9-1.3-2s-2-2-2.3-2c-.3 0 .3.9 1.3 2zM361 806.4c0 .2.8 1 1.8 1.7 1.5 1.3 1.6 1.2.3-.4s-2.1-2.1-2.1-1.3zM389 807.4c0 .2.8 1 1.8 1.7 1.5 1.3 1.6 1.2.3-.4s-2.1-2.1-2.1-1.3zM380 822.4c0 .2.8 1 1.8 1.7 1.5 1.3 1.6 1.2.3-.4s-2.1-2.1-2.1-1.3zM387 829.4c0 .2.8 1 1.8 1.7 1.5 1.3 1.6 1.2.3-.4s-2.1-2.1-2.1-1.3zM387 843.4c0 .2.8 1 1.8 1.7 1.5 1.3 1.6 1.2.3-.4s-2.1-2.1-2.1-1.3zM402 843.4c0 .2.8 1 1.8 1.7 1.5 1.3 1.6 1.2.3-.4s-2.1-2.1-2.1-1.3zM405 847.3c0 .2 1.9 1.9 4.3 3.7 2.3 1.9 3.6 2.6 2.8 1.7-1.5-1.9-7.1-6.1-7.1-5.4zM395 850.4c0 .2.8 1 1.8 1.7 1.5 1.3 1.6 1.2.3-.4s-2.1-2.1-2.1-1.3zM403 857.4c0 .2.8 1 1.8 1.7 1.5 1.3 1.6 1.2.3-.4s-2.1-2.1-2.1-1.3zM412.5 866c1 1.1 2 2 2.3 2 .3 0-.3-.9-1.3-2s-2-2-2.3-2c-.3 0 .3.9 1.3 2zM401 870.4c0 .2.8 1 1.8 1.7 1.5 1.3 1.6 1.2.3-.4s-2.1-2.1-2.1-1.3zM423 875.4c0 .2.8 1 1.8 1.7 1.5 1.3 1.6 1.2.3-.4s-2.1-2.1-2.1-1.3zM409.5 880c1 1.1 2 2 2.3 2 .3 0-.3-.9-1.3-2s-2-2-2.3-2c-.3 0 .3.9 1.3 2zM398 884.5c1.3 1.4 2.6 2.5 2.8 2.5.3 0-.5-1.1-1.8-2.5s-2.6-2.5-2.8-2.5c-.3 0 .5 1.1 1.8 2.5zM430 882.5c0 .2 1 1 2.3 1.6 2 1.1 2.1 1.1.8-.4-1.3-1.6-3.1-2.3-3.1-1.2zM405 891.5c1.3 1.4 2.6 2.5 2.8 2.5.3 0-.5-1.1-1.8-2.5s-2.6-2.5-2.8-2.5c-.3 0 .5 1.1 1.8 2.5zM409.7 894.1c.7.9 1.1 1.8.8 2.1-.3.3.5 1.3 1.7 2.4 2.3 1.9 2.3 1.9.5-.2-.9-1.1-1.5-2.3-1.2-2.6.3-.3-.3-1.1-1.2-1.9-1.6-1.2-1.7-1.2-.6.2zM422 893.3c0 .2 1.5 1.6 3.3 3.3l3.2 2.9-2.9-3.3c-2.8-3-3.6-3.7-3.6-2.9zM417 901.7c1.3 1.8 2.5 3.3 2.7 3.3.8 0-1.7-3.8-3.3-5.1-1.1-.9-.9-.2.6 1.8zM422.5 907c1 1.1 2 2 2.3 2 .3 0-.3-.9-1.3-2s-2-2-2.3-2c-.3 0 .3.9 1.3 2zM454.7 934.1c.7.7 1.5 1 1.8.7.3-.3-.2-.9-1.2-1.2-1.4-.6-1.5-.5-.6.5zM429 942.5c1.3 1.4 2.6 2.5 2.8 2.5.3 0-.5-1.1-1.8-2.5s-2.6-2.5-2.8-2.5c-.3 0 .5 1.1 1.8 2.5zM441 940.4c0 .2.8 1 1.8 1.7 1.5 1.3 1.6 1.2.3-.4s-2.1-2.1-2.1-1.3zM440 952.5c1.9 1.9 3.6 3.5 3.9 3.5.3 0-1-1.6-2.9-3.5s-3.6-3.5-3.9-3.5c-.3 0 1 1.6 2.9 3.5zM462.5 957c1.1.5 2.9.8 4 .8 1.6 0 1.5-.2-.5-.8-3.4-1.1-6-1.1-3.5 0zM449 960.5c1.9 1.9 3.6 3.5 3.9 3.5.3 0-1-1.6-2.9-3.5s-3.6-3.5-3.9-3.5c-.3 0 1 1.6 2.9 3.5zM458 968.2c2.4 2.7 4.5 4.8 4.7 4.8.8 0 0-.9-4.4-5l-4.8-4.5 4.5 4.7zM470 421c0 1.5.5 2 1.8 1.8.9-.2 1.7-1 1.7-1.8s-.8-1.6-1.7-1.8c-1.3-.2-1.8.3-1.8 1.8zM486.7 490.4c-.8 2 1.6 3.9 3 2.5s.6-3.9-1.2-3.9c-.7 0-1.5.6-1.8 1.4zM504.5 560c-.8 1.4.3 3 2.1 3 .8 0 1.4-.9 1.4-2 0-2.1-2.4-2.8-3.5-1zM528.6 591.2c-1.5 2.4-2 2.5-5.1 1.5-4.1-1.2-9.1.5-10 3.4-.6 1.9 1.9 11.4 3.7 13.5 1.3 1.8 18.8-5.4 18.1-7.3-.4-1.1-1.5-1.3-3.8-.9-2.8.6-3.3.3-3.8-1.6-.5-1.6.1-3 1.9-4.9 2-2.1 2.4-3.1 1.6-4.5-.9-1.5-1.1-1.5-2.6.8zm-4.7 8c1 2.4 1.7 4.6 1.5 5-.2.3-1.7 1.1-3.3 1.6-2.9 1-3 .9-4.7-3.4-1.3-3.5-1.4-4.7-.4-5.9 2.3-2.8 5-1.8 6.9 2.7z"/><path d="M518.5 597c-.8 1.2.3 6.8 1.4 7.5.5.2 1.5-.1 2.4-.8 1.4-1.1 1.4-1.6.2-4.5-1.4-3.2-2.9-4-4-2.2zM538.8 623.6c-.4.3.1 2.6.9 5 1.7 5 1.7 4.9-1.3 5.8-1.8.5-2.4.1-3.2-2.4-.6-1.6-1.8-3-2.6-3-1.9 0-1.9-.1-.5 3.9.8 2.4.8 3.5-.1 4.6-1.9 2.3-2.7 1.8-4.6-3-1.6-4.4-2.7-5.4-3.8-3.6-.8 1.2 3.4 13.1 4.5 13.1 2 0 16.9-8.1 16.9-9.2 0-.6-.8-3.5-1.7-6.5-1.5-4.8-3-6.3-4.5-4.7zM542.6 659.2c-5.3 2.6-7.5 4.3-6.8 5 .6.6 2.2.3 4.8-1 8.7-4.4 8.9-4.1 3.4 4.6-7.4 11.7-6.8 12.8 4.4 7.7 4.6-2.1 7.6-4 7.6-5 0-2.1-1.3-1.9-7.1 1.1-2.8 1.4-5.3 2.4-5.4 2.2-.2-.2 1.7-3.6 4.2-7.6 3.4-5.5 4.3-7.8 3.7-9.2-.8-1.7-1.5-1.5-8.8 2.2zM556 695.8c-4.4 2.2-7.6 4.4-7.8 5.5-.3 1.7-.1 1.7 3.8.1 2.2-.9 4.2-1.5 4.4-1.3.2.2.6 2.2.9 4.5.6 3.9.5 4.1-2.8 5.7-3.5 1.7-4.7 3.7-2.1 3.7 2.7 0 16.6-7.2 16.6-8.6 0-1.8-1.4-1.8-5.1.1-3.7 2-4.6 1.4-5.1-3-.4-3.2 0-3.8 2.9-5.6 1.8-1.1 3.3-2.7 3.3-3.5 0-1.9-.5-1.8-9 2.4zM570 729.7c-5.3 1.9-8.3 3.9-9.6 6.4-1.2 2.5-1.2 3.3-.1 6.1 2.7 6.4 5.4 6.9 12.4 2.4 4.7-3.1 5.7-5.4 4.4-10.3-1.3-4.7-3.2-6-7.1-4.6zm4.1 3c1.2 1.6 1.2 1.7-.1.7-.8-.6-2.2-1.4-3-1.7-1.3-.5-1.2-.6.1-.6.9-.1 2.3.7 3 1.6zm-7.8 1.2c-2 1.3-3.3 3-3.6 4.8l-.4 2.8-.2-2.7c-.1-2.6 3.7-6.8 6.3-6.8.6 0-.3.9-2.1 1.9zm8.6 6.7c-.7.8-2.2 2-3.3 2.5-1.3.6-1.1.2.7-1.1 1.6-1.3 2.8-3.2 2.8-4.8.2-2.5.2-2.5.6-.4.3 1.3-.1 3-.8 3.8zm-7.4 3.7c1.9.4 1.9.5-.1.6-1.2 0-2.8-.7-3.5-1.7-1.2-1.5-1.2-1.6.1-.6.8.7 2.4 1.4 3.5 1.7zM577.3 766.8c-4.8 2.4-7.3 4.2-7.3 5.4 0 1.6.3 1.6 3.6.2 4.2-1.8 4.9-1.3 5.7 3.7.5 3.3.3 3.7-2.9 5.2-3.1 1.5-4.6 3.7-2.5 3.7 1.6 0 15.9-6.9 16.6-8 1.3-2-.3-2.3-4.5-.6-2.2.9-4.2 1.6-4.4 1.6-.2 0-.6-1.9-.8-4.2-.4-3.8-.1-4.3 2.9-6.1 3.2-1.9 4.5-4.8 2.1-4.6-.7 0-4.6 1.7-8.5 3.7zM615.6 876.7c-1.2 1.2-.6 3.3.9 3.3.8 0 1.5-.6 1.5-1.4 0-1.7-1.4-2.8-2.4-1.9zM640 941c0 1.1.7 2 1.5 2s1.5-.9 1.5-2-.7-2-1.5-2-1.5.9-1.5 2zM42.5 620.1c-17.4 3.6-36.7 9.1-37.2 10.6-1 2.8 15.2 3.4 24 .8C35.9 629.6 57 619.3 57 618c0-.6-.1-1-.2-.9-.2.1-6.6 1.4-14.3 3zM795.1 942.7c-.1.6-.4 2-.7 3-.5 1.7-.5 1.7.6 0 .6-1 .9-2.3.6-3-.3-.9-.5-.9-.5 0zM770.1 946.6c0 1.1.3 1.4.6.6.3-.7.2-1.6-.1-1.9-.3-.4-.6.2-.5 1.3zM777.1 946.6c0 1.1.3 1.4.6.6.3-.7.2-1.6-.1-1.9-.3-.4-.6.2-.5 1.3zM737.1 947.6c0 1.1.3 1.4.6.6.3-.7.2-1.6-.1-1.9-.3-.4-.6.2-.5 1.3zM715.2 955c0 1.9.2 2.7.5 1.7.2-.9.2-2.5 0-3.5-.3-.9-.5-.1-.5 1.8zM727.1 957.6c0 1.1.3 1.4.6.6.3-.7.2-1.6-.1-1.9-.3-.4-.6.2-.5 1.3zM715.1 961.6c0 1.1.3 1.4.6.6.3-.7.2-1.6-.1-1.9-.3-.4-.6.2-.5 1.3zM691.1 962.6c0 1.1.3 1.4.6.6.3-.7.2-1.6-.1-1.9-.3-.4-.6.2-.5 1.3z"/></svg>